<?xml version="1.0" encoding="UTF-8"?>
<svg width="116px" height="26px" viewBox="0 0 116 26" version="1.1" xmlns="http://www.w3.org/2000/svg" xmlns:xlink="http://www.w3.org/1999/xlink">
    <!-- Generator: Sketch 55.2 (78181) - https://sketchapp.com -->
    <title>delta-logo</title>
    <desc>Created with Sketch.</desc>
    <g id="Page-1" stroke="none" stroke-width="1" fill="none" fill-rule="evenodd">
        <g id="delta-logo" fill="#FFFFFF" fill-rule="nonzero">
            <path d="M17.4,0 C17.9,0 18.4,0.2 18.7,0.5 C19,0.8 19.2,1.3 19.2,1.8 L19.2,16.6 C19.2,18.3 18.8,19.9 18,21.3 C17.2,22.7 16.1,23.8 14.7,24.6 C13.3,25.4 11.8,25.8 10.1,25.8 C8.4,25.8 6.8,25.4 5.4,24.6 C4,23.8 2.9,22.7 2.1,21.3 C1.3,19.9 0.9,18.3 0.9,16.6 C0.9,14.9 1.3,13.3 2,11.9 C2.7,10.5 3.8,9.4 5.1,8.6 C6.4,7.8 7.8,7.4 9.4,7.4 C10.7,7.4 11.9,7.7 13,8.2 C14,8.7 14.8,9.3 15.5,10.1 L15.5,1.8 C15.5,1.3 15.7,0.8 16,0.5 C16.5,0.2 16.9,0 17.4,0 Z M10.2,10.7 C9.1,10.7 8.2,11 7.3,11.5 C6.4,12 5.8,12.7 5.3,13.6 C4.8,14.5 4.6,15.5 4.6,16.6 C4.6,17.7 4.8,18.7 5.3,19.6 C5.8,20.5 6.5,21.2 7.3,21.7 C8.2,22.2 9.1,22.5 10.2,22.5 C11.3,22.5 12.2,22.2 13.1,21.7 C14,21.2 14.6,20.5 15.1,19.6 C15.6,18.7 15.8,17.7 15.8,16.6 C15.8,15.5 15.6,14.5 15.1,13.6 C14.6,12.7 13.9,12 13.1,11.5 C12.2,11 11.2,10.7 10.2,10.7 Z M38.6,7.5 C40.3,7.5 41.8,7.9 43,8.6 C44.2,9.4 45.2,10.4 45.9,11.8 C46.6,13.1 46.9,14.7 46.9,16.4 C46.9,16.9 46.7,17.2 46.4,17.5 C46,17.8 45.7,18 45.2,18 L33,18 C33.3,19.4 33.9,20.5 35,21.4 C36.1,22.3 37.5,22.8 39.1,22.8 C39.7,22.8 40.4,22.7 41.1,22.5 C41.8,22.3 42.4,22 42.8,21.6 C43.1,21.3 43.5,21.2 44,21.2 C44.5,21.2 44.8,21.3 45.1,21.6 C45.5,22 45.7,22.4 45.7,22.8 C45.7,23.2 45.5,23.6 45.1,23.9 C44.3,24.5 43.4,25 42.3,25.4 C41.2,25.8 40.1,26 39.1,26 C37.3,26 35.7,25.6 34.2,24.8 C32.8,24 31.6,22.9 30.8,21.5 C30,20.1 29.6,18.5 29.6,16.8 C29.6,15 30,13.5 30.7,12.1 C31.5,10.7 32.5,9.6 33.9,8.8 C35.3,7.9 36.8,7.5 38.6,7.5 Z M38.6,10.6 C37.1,10.6 35.8,11 34.9,11.9 C34,12.7 33.4,13.8 33.1,15.1 L43.5,15.1 C43.3,13.8 42.8,12.7 41.9,11.9 C41.1,11 40,10.6 38.6,10.6 Z M58.7,1.8 C58.7,1.3 58.9,0.8 59.2,0.5 C59.5,0.2 59.9,0 60.4,0 C60.9,0 61.4,0.2 61.7,0.5 C62,0.8 62.2,1.3 62.2,1.8 L62.2,19.6 C62.2,20.4 62.3,21 62.6,21.5 C62.9,22 63.2,22.2 63.6,22.2 L64.4,22.2 C64.9,22.2 65.3,22.4 65.6,22.7 C65.9,23 66,23.5 66,24 C66,24.5 65.8,25 65.3,25.3 C64.9,25.6 64.3,25.8 63.6,25.8 L63.5,25.8 C62.5,25.8 61.7,25.5 60.9,25 C60.1,24.5 59.5,23.7 59.1,22.8 C58.7,21.9 58.5,20.8 58.5,19.6 L58.5,1.8 L58.7,1.8 Z M82,19.3 C82,20.1 82.2,20.8 82.7,21.4 C83.1,21.9 83.7,22.2 84.3,22.2 L85.4,22.2 C85.8,22.2 86.2,22.4 86.5,22.7 C86.8,23 86.9,23.5 86.9,24 C86.9,24.5 86.7,25 86.3,25.3 C85.9,25.6 85.4,25.8 84.8,25.8 L84.2,25.8 C83.1,25.8 82.1,25.5 81.2,24.9 C80.3,24.3 79.6,23.6 79.1,22.6 C78.6,21.6 78.3,20.5 78.3,19.3 L78.3,11.4 L77,11.4 C76.5,11.4 76.1,11.3 75.8,11 C75.5,10.7 75.3,10.3 75.3,9.9 C75.3,9.4 75.5,9 75.8,8.7 C76.1,8.4 76.5,8.3 77,8.3 L78.3,8.3 L78.3,3.7 C78.3,3.2 78.5,2.7 78.8,2.4 C79.2,2.1 79.7,2 80.2,2 C80.7,2 81.2,2.2 81.5,2.5 C81.8,2.8 82,3.2 82,3.7 L82,8.2 L84.6,8.2 C85.1,8.2 85.5,8.3 85.8,8.6 C86.1,8.9 86.3,9.3 86.3,9.8 C86.3,10.2 86.1,10.6 85.8,10.9 C85.5,11.2 85.1,11.3 84.6,11.3 L82,11.3 L82,19.3 Z M106.1,7.5 C107.8,7.5 109.3,7.9 110.7,8.7 C112.1,9.5 113.2,10.6 114,12 C114.8,13.4 115.2,15 115.2,16.7 L115.2,24 C115.2,24.5 115,25 114.7,25.3 C114.4,25.6 113.9,25.8 113.4,25.8 C112.9,25.8 112.4,25.6 112.1,25.3 C111.8,25 111.6,24.5 111.6,24 L111.6,23.2 C110.9,24 110,24.6 109.1,25.1 C108,25.6 106.8,25.9 105.5,25.9 C103.9,25.9 102.5,25.5 101.2,24.7 C99.9,23.9 98.9,22.8 98.1,21.4 C97.4,20 97,18.4 97,16.7 C97,15 97.4,13.4 98.2,12 C99,10.6 100.1,9.5 101.5,8.7 C102.8,7.9 104.4,7.5 106.1,7.5 Z M106.1,10.7 C105,10.7 104.1,11 103.2,11.5 C102.3,12 101.7,12.7 101.2,13.6 C100.7,14.5 100.5,15.5 100.5,16.6 C100.5,17.7 100.7,18.7 101.2,19.6 C101.7,20.5 102.4,21.2 103.2,21.7 C104.1,22.2 105,22.5 106.1,22.5 C107.2,22.5 108.1,22.2 109,21.7 C109.9,21.2 110.5,20.5 111,19.6 C111.5,18.7 111.7,17.7 111.7,16.6 C111.7,15.5 111.5,14.5 111,13.6 C110.5,12.7 109.8,12 109,11.5 C108.1,11 107.1,10.7 106.1,10.7 Z" id="Shape"></path>
        </g>
    </g>
</svg>