<?xml version="1.0" encoding="utf-8"?>
<!-- Generator: Adobe Illustrator 25.2.3, SVG Export Plug-In . SVG Version: 6.00 Build 0)  -->
<svg version="1.1" id="Laag_1" xmlns="http://www.w3.org/2000/svg" xmlns:xlink="http://www.w3.org/1999/xlink" x="0px" y="0px"
	 viewBox="0 0 70 70" style="enable-background:new 0 0 70 70;" xml:space="preserve">
<style type="text/css">
	.st0{fill:#FF4500;}
	.st1{fill:#FFFFFF;}
</style>
<g transform="translate(-85.4 -85.4)">
	<circle class="st0" cx="120.4" cy="120.4" r="35"/>
	<path class="st1" d="M143.7,120.4c0-2.8-2.3-5.1-5.1-5.1c-1.4,0-2.6,0.5-3.5,1.4c-3.5-2.5-8.3-4.1-13.6-4.3l2.3-10.9l7.6,1.6
		c0.1,1.9,1.7,3.5,3.6,3.5c2,0,3.6-1.6,3.6-3.6s-1.6-3.6-3.6-3.6c-1.4,0-2.7,0.8-3.2,2l-8.5-1.8c-0.2,0-0.5,0-0.7,0.1
		c-0.2,0.1-0.3,0.3-0.4,0.6l-2.6,12.2c-5.4,0.2-10.3,1.8-13.8,4.3c-0.9-0.9-2.2-1.4-3.5-1.4c-2.8,0-5.1,2.3-5.1,5.1
		c0,2.1,1.2,3.8,3,4.7c-0.1,0.5-0.1,1-0.1,1.6c0,7.9,9.1,14.2,20.4,14.2c11.3,0,20.4-6.3,20.4-14.2c0-0.5,0-1-0.1-1.5
		C142.5,124.3,143.7,122.5,143.7,120.4L143.7,120.4z M108.7,124c0-2,1.6-3.6,3.6-3.6s3.6,1.6,3.6,3.6s-1.6,3.6-3.6,3.6
		S108.7,126,108.7,124z M129.1,133.7c-2.5,2.5-7.2,2.7-8.6,2.7c-1.4,0-6.2-0.2-8.6-2.7c-0.4-0.4-0.4-1,0-1.4s1-0.4,1.4,0
		c1.6,1.6,4.9,2.1,7.3,2.1c2.4,0,5.7-0.6,7.3-2.1c0.4-0.4,1-0.4,1.4,0C129.4,132.7,129.4,133.3,129.1,133.7L129.1,133.7z
		 M128.4,127.7c-2,0-3.6-1.6-3.6-3.6s1.6-3.6,3.6-3.6s3.6,1.6,3.6,3.6S130.4,127.7,128.4,127.7z"/>
</g>
</svg>
