<?xml version="1.0" encoding="utf-8"?>
<!-- Generator: Adobe Illustrator 25.2.3, SVG Export Plug-In . SVG Version: 6.00 Build 0)  -->
<svg version="1.1" id="Laag_1" xmlns="http://www.w3.org/2000/svg" xmlns:xlink="http://www.w3.org/1999/xlink" x="0px" y="0px"
	 viewBox="0 0 70 70" style="enable-background:new 0 0 70 70;" xml:space="preserve">
<style type="text/css">
	.st0{fill:url(#SVGID_1_);}
	.st1{fill:#FFFFFF;}
</style>
<g transform="scale(3.4682)">
	
		<linearGradient id="SVGID_1_" gradientUnits="userSpaceOnUse" x1="-106.2866" y1="207.104" x2="-108.5572" y2="201.8062" gradientTransform="matrix(7.7071 0 0 -7.7071 832.2122 1599.364)">
		<stop  offset="0" style="stop-color:#37AEE2"/>
		<stop  offset="1" style="stop-color:#1E96C8"/>
	</linearGradient>
	<circle class="st0" cx="10.1" cy="10.1" r="10.1"/>
	<path class="st1" d="M4.2,10L11,7.2C11.7,6.9,13.9,6,13.9,6s1.1-0.4,1,0.6c0,0.4-0.3,1.8-0.5,3.4l-0.7,4.6c0,0-0.1,0.7-0.6,0.8
		c-0.5,0.1-1.3-0.4-1.5-0.5c-0.1-0.1-2.2-1.4-2.9-2c-0.2-0.2-0.4-0.5,0-0.9c1.1-1,2.3-2.2,3.1-2.9c0.4-0.4,0.7-1.2-0.8-0.2l-4.1,2.8
		c0,0-0.5,0.3-1.3,0s-1.9-0.6-1.9-0.6S3,10.5,4.2,10L4.2,10z"/>
</g>
</svg>
