<?xml version="1.0" encoding="utf-8"?>
<!-- Generator: Adobe Illustrator 25.1.0, SVG Export Plug-In . SVG Version: 6.00 Build 0)  -->
<svg version="1.1" id="Layer_1" xmlns="http://www.w3.org/2000/svg" xmlns:xlink="http://www.w3.org/1999/xlink" x="0px" y="0px"
	 viewBox="0 0 31.1 35" style="enable-background:new 0 0 31.1 35;" xml:space="preserve">
<style type="text/css">
	.st0{fill-rule:evenodd;clip-rule:evenodd;fill:#FFFFFF;}
</style>
<g id="Layer_2_1_">
	<g id="Layer_1-2">
		<g id="页面-1">
			<g id="BitMart_logo">
				<g id="编组-2">
					<g id="编组">
						<g>
							<path id="Fill-77" class="st0" d="M25.6,2.8C23.3,0.9,20.2,0,16.1,0h-10v1.4H16c3.4,0,6.5,0.7,8.4,2.3
								c1.9,1.6,3.3,4.1,3.3,7.1c0,2.9-1.3,5.1-3.2,6.7s-5.5,2.3-9,2.3H4.2v1.4h11.4c4.2,0,7.6-0.9,9.9-2.8s3.6-4.4,3.6-7.8
								C29.1,7.4,27.9,4.7,25.6,2.8"/>
						</g>
						<g>
							<path id="Fill-79" class="st0" d="M24.8,4.9c-1.4-1.1-3.1-2-7.7-2H9.3v1.4c0,0,3.5,0,7.6,0c4,0,5.4,0.5,6.8,1.5
								c1.7,1.3,2.8,2.8,2.8,5c0,2.1-1.1,3.6-2.8,4.8c-1.8,1.3-4.4,1.3-5.5,1.3c-0.4,0-5.7,0-5.7,0v1.4c0,0,2.6,0,4.3,0
								c3.8-0.1,6-0.3,8.1-1.8c2-1.5,3-3.4,3-5.8C27.7,7.5,26.1,5.9,24.8,4.9"/>
						</g>
						<g>
							<path id="Fill-80" class="st0" d="M24.1,6.7c-1.1-0.7-2-1.1-6.5-1.1H12v0.9h5.4c3.9,0,5.4,0.7,5.9,1c0.9,0.5,2.1,1.4,2.1,3.2
								c0,1.2-0.7,2.6-1.7,3.2c-0.9,0.5-2.6,1-5.5,1H0v0.9h18.2c3.6,0,4.8-0.4,6-1.1c1.3-0.7,2.1-2.1,2.1-3.9
								C26.4,8.6,25.2,7.4,24.1,6.7"/>
						</g>
					</g>
					<path id="Fill-81" class="st0" d="M27.6,16.6c-2.3-1.9-5.5-2.8-9.5-2.8h-6.7v1.4h6.5c3.4,0,6.5,0.7,8.4,2.3s3.3,4.1,3.3,7.1
						c0,2.9-1.2,5.1-3.2,6.7s-5.5,2.3-9,2.3H6.2V35h11.4c4.2,0,7.6-0.9,9.9-2.8c2.4-1.8,3.6-4.4,3.6-7.8
						C31.1,21.1,29.9,18.5,27.6,16.6"/>
					<path id="Fill-82" class="st0" d="M26.8,18.6c-1.4-1.1-3.1-2-7.7-2c-5,0-8.4,0-10.5,0V18c0,0,6.2,0,10.3,0c4,0,5.4,0.5,6.8,1.5
						c1.7,1.3,2.8,2.8,2.8,5c0,2.1-1.1,3.6-2.8,4.8c-1.8,1.3-4.4,1.3-5.5,1.3c-0.4,0-5.7,0-5.7,0v1.4c0,0,2.6,0,4.3,0
						c3.8-0.1,6-0.3,8.1-1.8c2-1.5,3-3.4,3-5.8C29.7,21.3,28.1,19.6,26.8,18.6"/>
					<polygon id="Fill-83" class="st0" points="10.8,23.3 20.6,23.3 20.6,22.5 10.8,22.5 					"/>
					<polygon id="Fill-84" class="st0" points="14.8,25.9 20.6,25.9 20.6,25.3 14.8,25.3 					"/>
					<polygon id="Fill-85" class="st0" points="6.2,23.3 9.1,23.3 9.1,22.5 6.2,22.5 					"/>
					<polygon id="Fill-86" class="st0" points="4.3,26 13.2,26 13.2,25.2 4.3,25.2 					"/>
					<polygon id="Fill-87" class="st0" points="6.5,6.4 10,6.4 10,5.8 6.5,5.8 					"/>
					<polygon id="Fill-88" class="st0" points="4.1,11.5 12,11.5 12,10.8 4.1,10.8 					"/>
					<polygon id="Fill-89" class="st0" points="4.3,32 12.7,32 12.7,31.1 4.3,31.1 					"/>
					<polygon id="Fill-90" class="st0" points="2.3,35 4.4,35 4.4,33.6 2.3,33.6 					"/>
					<polygon id="Fill-91" class="st0" points="7.5,9.3 20.6,9.3 20.6,8.5 7.5,8.5 					"/>
					<polygon id="Fill-92" class="st0" points="14,11.5 20.3,11.5 20.3,10.8 14,10.8 					"/>
					<path id="Fill-93" class="st0" d="M26.1,20.6c-1.1-0.7-2-1.1-6.5-1.1h-7.1v0.9h6.9c3.9,0,5.4,0.7,5.9,0.9
						c0.9,0.5,2.1,1.4,2.1,3.1c0,1.1-0.7,2.5-1.7,3c-0.9,0.5-2.6,0.9-5.5,0.9H2v0.9h18.2c3.6,0,4.8-0.4,6-1c1.3-0.7,2.1-2,2.1-3.8
						C28.3,22.5,27.2,21.3,26.1,20.6"/>
				</g>
			</g>
		</g>
	</g>
</g>
</svg>
