<?xml version="1.0" encoding="utf-8"?>
<!-- Generator: Adobe Illustrator 25.1.0, SVG Export Plug-In . SVG Version: 6.00 Build 0)  -->
<svg version="1.1" id="Layer_1" xmlns="http://www.w3.org/2000/svg" xmlns:xlink="http://www.w3.org/1999/xlink" x="0px" y="0px"
	 viewBox="0 0 34.7 35" style="enable-background:new 0 0 34.7 35;" xml:space="preserve">
<style type="text/css">
	.st0{fill:#1AB394;}
</style>
<g id="Layer_2_1_">
	<g id="Layer_1-2">
		<path class="st0" d="M16.4,0.6c0.3-0.2,0.7-0.4,1-0.6c5.8,3.4,11.5,6.7,17.3,10c0,5,0,10,0,15c-5.8,3.3-11.6,6.7-17.3,10
			C11.6,31.7,5.8,28.3,0,25C0,20,0,15,0,10c0.3-0.1,0.6-0.3,0.9-0.5C6.1,6.6,11.2,3.6,16.4,0.6z M17.2,4.2C12.8,6.8,8.4,9.3,4,11.9
			c-0.2,0.1-0.4,0.2-0.5,0.4c3.4,1.9,6.8,3.9,10.2,5.9l0.3,0.1c1-1.3,2.1-2.5,3.1-3.8c-2-1.2-4-2.3-6-3.4c0.2-0.3,0.6-0.4,0.9-0.6
			c1-0.6,1.9-1.2,2.9-1.7c5.5,3.2,10.9,6.3,16.4,9.4c0-2,0-3.9,0-5.9C26.8,9.5,22.2,7,17.7,4.3C17.5,4.2,17.4,4.1,17.2,4.2z
			 M20.5,16.4c-1,1.3-2.1,2.5-3.1,3.8c1.9,1.1,3.7,2.2,5.6,3.2v0.2c-1.1,0.7-2.2,1.4-3.3,2.2c-0.1,0.1-0.3,0.2-0.4,0.1
			c-5.3-3-10.5-6.1-15.7-9.1c0,2,0,3.9,0,5.9c4.6,2.7,9.2,5.3,13.8,8c0.2,0.1,0.4-0.1,0.6-0.2c4.5-2.6,8.9-5.2,13.4-7.7
			c0,0,0-0.1,0-0.2l-10.4-6C20.7,16.5,20.6,16.5,20.5,16.4z"/>
	</g>
</g>
</svg>
