<?xml version="1.0" encoding="utf-8"?>
<!-- Generator: Adobe Illustrator 25.1.0, SVG Export Plug-In . SVG Version: 6.00 Build 0)  -->
<svg version="1.1" id="Layer_1" xmlns="http://www.w3.org/2000/svg" xmlns:xlink="http://www.w3.org/1999/xlink" x="0px" y="0px"
	 viewBox="0 0 35 35" style="enable-background:new 0 0 35 35;" xml:space="preserve">
<style type="text/css">
	.st0{fill:#FFFFFF;}
</style>
<g id="Layer_2_1_">
	<g id="Layer_1-2">
		<path class="st0" d="M17.5,0C8-0.1,0.1,7.7,0,17.5c0,0,0,0,0,0C0.1,27.3,8,35.1,17.5,35c0,0,0,0,0,0C27,35.1,34.8,27.3,35,17.5
			C34.8,7.7,27-0.1,17.5,0z M23.5,24.5l-0.2-3.2h-4.2l-1.2,3.2H5.2l6.9-15.7h4.3L11,21.2h3.9l5.5-12.5h5.1l2.5,15.7H23.5z"/>
		<polygon class="st0" points="23,18.3 20.1,18.3 22.5,11.5 		"/>
	</g>
</g>
</svg>
