<?xml version="1.0" encoding="utf-8"?>
<!-- Generator: Adobe Illustrator 25.1.0, SVG Export Plug-In . SVG Version: 6.00 Build 0)  -->
<svg version="1.1" id="Layer_1" xmlns="http://www.w3.org/2000/svg" xmlns:xlink="http://www.w3.org/1999/xlink" x="0px" y="0px"
	 viewBox="0 0 35 35" style="enable-background:new 0 0 35 35;" xml:space="preserve">
<style type="text/css">
	.st0{fill:#0A7542;}
	.st1{fill:#F1F2F2;}
</style>
<g id="Layer_2_1_">
	<g id="Layer_1-2">
		<path class="st0" d="M4.8,0h12.2C27,0,35,8,35,17.9v12.2c0,0.6-0.1,1.3-0.4,1.8c-0.5,1.2-1.4,2.1-2.6,2.6
			c-0.6,0.2-1.2,0.4-1.8,0.4H18c-4.8,0-9.4-1.9-12.7-5.3C1.9,26.3,0,21.8,0,17V4.8C0,2.2,2.1,0,4.8,0C4.8,0,4.8,0,4.8,0z"/>
		<path class="st1" d="M17.6,12.2c2.9,0,5.3,2.4,5.3,5.3c0,0.3,0,0.7-0.1,1c-0.4,2.1-2,3.7-4.1,4.1c-1,0.2-2.1,0.1-3-0.3
			c-2-0.8-3.2-2.7-3.2-4.8c0-1.4,0.5-2.8,1.5-3.7C14.9,12.8,16.2,12.2,17.6,12.2z M17.6,6.6c-6,0-10.9,4.9-10.9,10.9
			c0,0.7,0.1,1.4,0.2,2.1c0.4,2.1,1.5,4,3,5.6c4.2,4.3,11.1,4.3,15.4,0s4.3-11.1,0-15.4C23.3,7.8,20.5,6.6,17.6,6.6L17.6,6.6z"/>
		<path class="st1" d="M12.4,6.6h-2c-0.5,0-1,0.1-1.5,0.3C8.4,7.1,8,7.4,7.6,7.7C7.3,8.1,7,8.5,6.8,9c-0.2,0.5-0.3,1-0.3,1.5v20.4
			c1.7,1.4,3.7,2.5,5.8,3.3L12.4,6.6L12.4,6.6z"/>
		<path class="st1" d="M17.7,6.6h-6.8v3.6h6.8L17.7,6.6z"/>
	</g>
</g>
</svg>
