<svg xmlns="http://www.w3.org/2000/svg" width="845" height="84" viewBox="0 0 845 84">
  <defs>
    <style>
      .cls-1 {
        fill: #d5a642;
      }

      .cls-1, .cls-2 {
        fill-rule: evenodd;
      }

      .cls-2 {
        fill: #fff;
      }
    </style>
  </defs>
  <path id="MOONBOXES" class="cls-1" d="M460.094,83.986a16.152,16.152,0,0,0,16.119-16.071V50A14.886,14.886,0,0,0,475,44.214a26.89,26.89,0,0,0-3.166-5.55,10.735,10.735,0,0,0,.806-2.659,17.8,17.8,0,0,0,.23-2.89v-16.3a15.5,15.5,0,0,0-4.721-11.33A15.37,15.37,0,0,0,456.87.742H393.318V83.986h66.776ZM408.918,68.2q-0.4-.4-0.4-3.642V53.348q0-3.236.4-3.642t3.627-.4H456.87q3.109,0,3.57.4t0.46,3.642V64.563q0,3.238-.46,3.642t-3.57.4H412.545Q409.32,68.609,408.918,68.2Zm0-34.685q-0.4-.4-0.4-3.642V20.166q0-3.235.4-3.642t3.627-.4h40.987q3.222,0,3.569.4t0.345,3.642v9.712q0,3.238-.345,3.642t-3.569.4H412.545Q409.32,33.924,408.918,33.52Zm146.39,50.467a16.153,16.153,0,0,0,16-16.071v-51.1a15.5,15.5,0,0,0-4.721-11.33A15.37,15.37,0,0,0,555.308.742H504.42a15.367,15.367,0,0,0-11.283,4.74,15.492,15.492,0,0,0-4.72,11.33v51.1a16.151,16.151,0,0,0,16,16.071h50.888ZM504.017,68.2q-0.4-.4-0.4-3.642v-44.4q0-3.235.4-3.642t3.627-.4h44.325q3.11,0,3.57.4T556,20.166v44.4q0,3.238-.46,3.642t-3.57.4H507.644Q504.419,68.609,504.017,68.2Zm91.357,15.782L620.128,54.5l24.753,29.482H661.46V79.593L630.144,42.364,661.46,5.02V0.742H644.881l-24.638,29.6-24.869-29.6H578.91V5.02l31.2,37.344-31.2,37.344v4.278h16.464Zm154.622,0V68.609h-61.02v-18.5h49.047V34.618H688.976v-18.5H750V0.742H673.664V83.986H750Zm78.06,0a16.151,16.151,0,0,0,16-16.071V50.8a15.691,15.691,0,0,0-4.72-11.388,15.281,15.281,0,0,0-11.283-4.8H780.391q-3.225,0-3.626-.347t-0.4-3.584V20.166q0-3.235.4-3.642t3.626-.4h44.326q3.222,0,3.627.4t0.4,3.642v3.006h15.312V16.813a15.5,15.5,0,0,0-4.72-11.33A15.37,15.37,0,0,0,828.056.742H777.168a15.365,15.365,0,0,0-11.283,4.74,15.489,15.489,0,0,0-4.721,11.33V33.924a15.677,15.677,0,0,0,4.721,11.388,15.27,15.27,0,0,0,11.283,4.8h47.549q3.222,0,3.627.347t0.4,3.584V64.563q0,3.238-.4,3.642t-3.627.4H780.391q-3.225,0-3.626-.4t-0.4-3.642V61.557h-15.2v6.359a16.153,16.153,0,0,0,16,16.071h50.888Z"/>
  <path id="MOONBOXES_copy" data-name="MOONBOXES copy" class="cls-2" d="M17.987,83.986V28.259L46.655,62.366,75.208,28.143V83.986H93.169V0.742H74.632L46.655,34.387,18.563,0.742H0.142V83.986H17.987Zm154.507,0a17.236,17.236,0,0,0,17.04-17.111V17.854a16.419,16.419,0,0,0-5.066-12.082A16.43,16.43,0,0,0,172.494.742H123.679a16.372,16.372,0,0,0-12.032,5.029,16.511,16.511,0,0,0-5.008,12.082V66.875a17.135,17.135,0,0,0,17.04,17.111h48.815ZM124.484,65.95V18.778h46.974V65.95H124.484ZM267.709,83.986a17.236,17.236,0,0,0,17.039-17.111V17.854a16.419,16.419,0,0,0-5.066-12.082A16.43,16.43,0,0,0,267.709.742H218.893a16.372,16.372,0,0,0-12.032,5.029,16.515,16.515,0,0,0-5.008,12.082V66.875a17.135,17.135,0,0,0,17.04,17.111h48.816ZM219.7,65.95V18.778h46.973V65.95H219.7Zm95.444,18.036V28.259l46.628,55.727h18.422V0.742H362.117v55.5l-46.4-55.5H297.3V83.986h17.845Z"/>
</svg>
