<svg xmlns="http://www.w3.org/2000/svg" width="660" height="84" viewBox="0 0 660 84">
  <defs>
    <style>
      .cls-1 {
        fill: #50aac5;
      }

      .cls-1, .cls-2 {
        fill-rule: evenodd;
      }

      .cls-2 {
        fill: #fff;
      }
    </style>
  </defs>
  <path id="MOONSEA" class="cls-1" d="M459.682,83.986a16.151,16.151,0,0,0,16-16.071V50.8a15.691,15.691,0,0,0-4.72-11.388,15.283,15.283,0,0,0-11.283-4.8H412.017q-3.225,0-3.627-.347t-0.4-3.584V20.166q0-3.235.4-3.642t3.627-.4h44.326q3.222,0,3.626.4t0.4,3.642v3.006h15.313V16.813a15.5,15.5,0,0,0-4.72-11.33A15.372,15.372,0,0,0,459.682.742H408.793a15.368,15.368,0,0,0-11.283,4.74,15.492,15.492,0,0,0-4.72,11.33V33.924a15.68,15.68,0,0,0,4.72,11.388,15.273,15.273,0,0,0,11.283,4.8h47.55q3.222,0,3.626.347t0.4,3.584V64.563q0,3.238-.4,3.642t-3.626.4H412.017q-3.225,0-3.627-.4t-0.4-3.642V61.557h-15.2v6.359a16.151,16.151,0,0,0,16,16.071h50.889Zm105,0V68.609h-61.02v-18.5h49.046V34.618H503.662v-18.5h61.02V0.742H488.349V83.986h76.333Zm26.941,0V56.007h52.385V83.986H659.32V16.813a15.5,15.5,0,0,0-4.72-11.33A15.5,15.5,0,0,0,643.2.742H592.429a15.367,15.367,0,0,0-11.283,4.74,15.493,15.493,0,0,0-4.721,11.33V83.986h15.2Zm0-63.82q0-3.235.4-3.642t3.626-.4h44.326q3.11,0,3.569.4t0.461,3.642v20.58H591.623V20.166Z"/>
  <path id="MOONSEA_copy" data-name="MOONSEA copy" class="cls-2" d="M18.151,83.986V28.259L46.818,62.366,75.371,28.143V83.986h17.96V0.742H74.8L46.818,34.387,18.726,0.742H0.305V83.986H18.151Zm154.507,0A17.236,17.236,0,0,0,189.7,66.875V17.854a16.419,16.419,0,0,0-5.066-12.082A16.43,16.43,0,0,0,172.658.742H123.842A16.372,16.372,0,0,0,111.81,5.772,16.515,16.515,0,0,0,106.8,17.854V66.875a17.135,17.135,0,0,0,17.04,17.111h48.816ZM124.648,65.95V18.778h46.973V65.95H124.648ZM267.872,83.986a17.236,17.236,0,0,0,17.039-17.111V17.854a16.419,16.419,0,0,0-5.066-12.082A16.43,16.43,0,0,0,267.872.742H219.056a16.368,16.368,0,0,0-12.031,5.029,16.512,16.512,0,0,0-5.009,12.082V66.875a17.137,17.137,0,0,0,17.04,17.111h48.816ZM219.862,65.95V18.778h46.974V65.95H219.862Zm95.444,18.036V28.259l46.629,55.727h18.421V0.742H362.28v55.5l-46.4-55.5H297.461V83.986h17.845Z"/>
</svg>
