<?xml version="1.0" encoding="utf-8"?>
<!-- Generator: Adobe Illustrator 25.2.3, SVG Export Plug-In . SVG Version: 6.00 Build 0)  -->
<svg version="1.1" id="Laag_1" xmlns="http://www.w3.org/2000/svg" xmlns:xlink="http://www.w3.org/1999/xlink" x="0px" y="0px"
	 viewBox="0 0 120 120" style="enable-background:new 0 0 120 120;" xml:space="preserve">
<style type="text/css">
	.st0{fill:#52565a;}
</style>
<g>
	<path class="st0" d="M60,15c1.4,0,2.5-1.1,2.5-2.5S61.4,10,60,10c-5.5,0-10,4.5-10,10l0,0l0,0c0,1.4,1.1,2.5,2.5,2.5S55,21.4,55,20
		l0,0l0,0C55,17.2,57.2,15,60,15z"/>
	<path class="st0" d="M97.5,85v-7.5c0-1.4-1.1-2.5-2.5-2.5H85c-1.4,0-2.5,1.1-2.5,2.5V85h-5l-5-10h-5V38.5C74.8,35.6,80,28.4,80,20
		C80,9,71,0,60,0S40,9,40,20c0,8.4,5.2,15.6,12.5,18.5V75h-5l-5,10h-5c0-1.4-1.1-2.5-2.5-2.5s-2.5,1.1-2.5,2.5h-5
		c0-1.4-1.1-2.5-2.5-2.5s-2.5,1.1-2.5,2.5h-5v20l5,12.5H25c0,1.4,1.1,2.5,2.5,2.5s2.5-1.1,2.5-2.5h60c0,1.4,1.1,2.5,2.5,2.5
		s2.5-1.1,2.5-2.5h2.5l5-12.5V85H97.5z M87.5,80h5v5h-5V80z M45,20c0-8.3,6.7-15,15-15s15,6.7,15,15s-6.7,15-15,15S45,28.3,45,20z
		 M57.5,39.8c0.8,0.1,1.7,0.2,2.5,0.2s1.7-0.1,2.5-0.2V75h-5V39.8z M50.6,80h18.8l3.1,6.2v6.3h-25v-6.3L50.6,80z M94.1,112.5H25.9
		l-2-5h72.2L94.1,112.5z M97.5,102.5h-75V90h20v5c0,1.4,1.1,2.5,2.5,2.5h30c1.4,0,2.5-1.1,2.5-2.5v-5h20V102.5z"/>
</g>
</svg>