<?xml version="1.0" encoding="utf-8"?>
<!-- Generator: Adobe Illustrator 25.2.3, SVG Export Plug-In . SVG Version: 6.00 Build 0)  -->
<svg version="1.1" id="Laag_1" xmlns="http://www.w3.org/2000/svg" xmlns:xlink="http://www.w3.org/1999/xlink" x="0px" y="0px"
	 viewBox="0 0 120 120" style="enable-background:new 0 0 120 120;" xml:space="preserve">
<style type="text/css">
	.st0{fill:#52565a;}
</style>
<g>
	<g>
		<path class="st0" d="M62,37.8c0.4,0.4,1,0.6,1.5,0.6c0.5,0,1.1-0.2,1.5-0.6l0.2-0.2l5.4,5.5c4.7,4.8,7.8,11.1,8.6,17.8l1.3,9.8
			c0.1,0.9,0.9,1.7,1.8,1.8c0.1,0,0.2,0,0.3,0c0.8,0,1.6-0.5,1.9-1.2c5.8-13.1,3.2-28.3-6.7-38.7l-1.4-6.1l0.5-0.5
			c0.4-0.4,0.6-0.9,0.6-1.5s-0.2-1.1-0.6-1.5l-1.5-1.5l1.5-1.5c2.5-2.4,2.5-6.4,0.1-8.9c-2.4-2.4-6.5-2.4-8.9-0.1l-1.5,1.5l-1.5-1.5
			c-0.4-0.4-0.9-0.6-1.5-0.6c0,0,0,0,0,0c-0.5,0-1.1,0.2-1.5,0.6l-0.5,0.5l-6-1.5C45.8,0.3,30.2-2.8,17.2,2.6
			C16.4,3,15.9,3.9,16,4.8c0.1,0.9,0.8,1.7,1.8,1.8l9.7,1.5c6.6,1,12.9,4.2,17.6,9l5.4,5.5l-0.2,0.2c-0.8,0.8-0.8,2.1,0,3l1.5,1.5
			L2.3,75.7c-2.5,2.4-2.5,6.4-0.1,8.9c1.2,1.2,2.8,1.9,4.5,1.9c1.7,0,3.2-0.6,4.4-1.8l49.4-48.4L62,37.8z M71.1,14.2
			c0.8-0.8,2.2-0.8,3,0c0.8,0.8,0.8,2.2,0,3l-1.5,1.5l-2.9-3L71.1,14.2z M56.2,25.9L56.2,25.9l-1.5-1.5l0.2-0.2l0,0l8.8-8.6l8.8,9
			l-9,8.8l-4.4-4.5L56.2,25.9z M73.8,34.1c0.1,0.4,0.3,0.7,0.5,1c6.5,6.6,9.6,15.5,8.8,24.4c-1.1-7.2-4.6-14-9.7-19.3l-5.4-5.5
			l3.5-3.5l1.3-1.2L73.8,34.1z M48,14.2C42.9,9,36.2,5.4,29.1,4.1c8.9-0.5,17.9,3,24.1,9.3c0.3,0.3,0.6,0.5,1,0.6l4.1,1l-4.8,4.7
			L48,14.2z M8.1,81.7c-0.8,0.8-2.2,0.8-3,0c-0.8-0.8-0.8-2.2,0-3l49.4-48.4l1.5,1.5l1.5,1.5L8.1,81.7z"/>
		<path class="st0" d="M118.7,82.6l-12.6-8.4c-0.3-0.2-0.7-0.4-1.2-0.4H88.2c-0.6,0-1.1,0.2-1.5,0.6L69.9,91.3
			c-0.1,0.1-0.1,0.2-0.1,0.3c-0.1,0.1-0.2,0.2-0.2,0.3L57,117c-0.3,0.6-0.3,1.4,0.1,2c0.4,0.6,1.1,1,1.8,1h33.5c0,0,0.1,0,0.1,0
			h25.1c1.2,0,2.1-0.9,2.1-2.1v-16.8V84.4C119.6,83.7,119.3,83,118.7,82.6z M89,78.1h15.3l11.1,7.4v14.3l-6.4,3.2L98,99.4l-3.8-7.6
			c-0.4-0.7-1.1-1.2-1.9-1.2H76.5L89,78.1z M62.2,115.8l10.5-21h18.4l3.1,6.1l-7.7,11.6c-0.6,0.8-0.4,1.9,0.3,2.6l0.6,0.6
			L62.2,115.8z M115.4,115.8H93.2l-2.4-2.4l6.5-9.8l11.1,3.7c0.2,0.1,0.4,0.1,0.7,0.1c0,0,0,0,0.1,0c0.3,0,0.6-0.1,0.9-0.2l5.3-2.7
			V115.8z"/>
		<path class="st0" d="M55.6,74.1c-1-0.5-2.3-0.1-2.8,0.9c-0.5,1-0.1,2.3,0.9,2.8l16.8,8.4c0.3,0.1,0.6,0.2,0.9,0.2
			c0.8,0,1.5-0.4,1.9-1.2c0.5-1,0.1-2.3-0.9-2.8L55.6,74.1z"/>
		<path class="st0" d="M95.6,69.5c0.3,0.2,0.6,0.2,0.9,0.2c0.8,0,1.5-0.4,1.9-1.2l8.4-16.8c0.5-1,0.1-2.3-0.9-2.8
			c-1-0.5-2.3-0.1-2.8,0.9l-8.4,16.8C94.2,67.7,94.6,69,95.6,69.5z"/>
		<path class="st0" d="M65.1,92.3c-0.3-1.1-1.4-1.8-2.5-1.5l-16.8,4.2c-1.1,0.3-1.8,1.4-1.5,2.5c0.2,1,1.1,1.6,2,1.6
			c0.2,0,0.3,0,0.5-0.1l16.8-4.2C64.7,94.5,65.3,93.4,65.1,92.3z"/>
	</g>
</g>
</svg>
