<?xml version="1.0" encoding="utf-8"?>
<!-- Generator: Adobe Illustrator 25.2.3, SVG Export Plug-In . SVG Version: 6.00 Build 0)  -->
<svg version="1.1" id="Laag_1" xmlns="http://www.w3.org/2000/svg" xmlns:xlink="http://www.w3.org/1999/xlink" x="0px" y="0px"
	 viewBox="0 0 120 120" style="enable-background:new 0 0 120 120;" xml:space="preserve">
<style type="text/css">
	.st0{fill:#52565a;}
</style>
<path class="st0" d="M114.2,54.2c-2.5,0-4.6,1.6-5.5,3.9h-4.2V46.5c0-1.1-0.9-1.9-1.9-1.9h-6C94.6,19.6,73.8,0,48.4,0
	C21.7,0,0,21.7,0,48.4c0,21.8,14.5,40.3,34.4,46.3l-19.8,21.4h-5v3.9H87v-3.9h-5L62.4,94.7c19.9-6,34.4-24.5,34.4-46.3h3.9V60
	c0,1.1,0.9,1.9,1.9,1.9h6.2c0.8,2.2,2.9,3.9,5.5,3.9c3.2,0,5.8-2.6,5.8-5.8S117.4,54.2,114.2,54.2z M84.6,22.6l-3.3,2.2
	c-2.6-3.6-5.7-6.7-9.3-9.3l2.2-3.3C78.2,15,81.7,18.5,84.6,22.6z M62.8,82.2l-8.2-19.7c3.5-1.6,6.4-4.4,7.9-7.9l19.7,8.2
	C78.5,71.5,71.5,78.5,62.8,82.2z M48.4,96.8c0.9,0,1.9,0,2.8-0.1l13,19.4H32.6l13-19.4C46.5,96.7,47.5,96.8,48.4,96.8z M48.4,92.9
	c-8.2,0-16-2.3-22.6-6.2l2.2-3.3c6,3.5,13,5.6,20.4,5.6s14.4-2,20.4-5.6l2.2,3.3C64.3,90.6,56.6,92.9,48.4,92.9z M34,14.6l8.2,19.6
	c-3.5,1.6-6.4,4.4-7.9,7.9L14.6,34C18.3,25.4,25.3,18.3,34,14.6z M57.5,8.8l1.4-3.7c4.3,1,8.4,2.7,12.1,4.9l-2.2,3.3
	C65.3,11.3,61.5,9.7,57.5,8.8z M56.1,12.5c1,0.2,2.1,0.5,3.1,0.8l-8.3,19.9c-0.8-0.1-1.6-0.2-2.5-0.2c-0.8,0-1.7,0.1-2.5,0.2
	l-8.3-19.9c1-0.3,2-0.6,3.1-0.8l5.9,15.3c0.3,0.7,1,1.2,1.8,1.2s1.5-0.5,1.8-1.2L56.1,12.5z M48.4,63.9c0.8,0,1.7-0.1,2.5-0.2
	l8.3,19.9c-3.4,1-7,1.6-10.8,1.6c-3.7,0-7.4-0.6-10.8-1.6l8.3-19.9C46.7,63.8,47.5,63.9,48.4,63.9z M48.4,60
	c-6.4,0-11.6-5.2-11.6-11.6S42,36.8,48.4,36.8S60,42,60,48.4S54.8,60,48.4,60z M28,13.3L25.8,10c3.7-2.2,7.8-3.9,12.1-4.9l1.4,3.7
	C35.2,9.7,31.4,11.3,28,13.3z M11.6,48.4c0-3.7,0.6-7.3,1.7-10.8l19.8,8.3c-0.1,0.8-0.2,1.6-0.2,2.5c0,0.8,0.1,1.7,0.2,2.5
	l-19.9,8.3C12.2,55.8,11.6,52.1,11.6,48.4z M14.6,62.8l19.7-8.2c1.6,3.5,4.4,6.4,7.9,7.9L34,82.2C25.3,78.5,18.3,71.5,14.6,62.8z
	 M85.2,48.4c0,3.7-0.6,7.4-1.6,10.8l-19.9-8.3c0.1-0.8,0.2-1.6,0.2-2.5c0-0.8-0.1-1.7-0.2-2.5l19.8-8.3
	C84.6,41.1,85.2,44.7,85.2,48.4z M62.6,42.2c-1.6-3.5-4.4-6.4-7.9-7.9l8.2-19.6c8.7,3.7,15.6,10.8,19.4,19.4L62.6,42.2z M55.1,4.4
	l-6.7,17.3L41.7,4.4c2.2-0.3,4.4-0.5,6.7-0.5S52.9,4,55.1,4.4z M22.6,12.2l2.2,3.3c-3.6,2.6-6.7,5.7-9.3,9.3l-3.3-2.2
	C15,18.5,18.5,15,22.6,12.2z M10,25.8l3.3,2.2c-3.5,6-5.6,13-5.6,20.4s2,14.4,5.6,20.4L10,71c-3.9-6.6-6.2-14.3-6.2-22.6
	S6.1,32.4,10,25.8z M12.2,74.2l3.2-2.2c2.6,3.6,5.7,6.7,9.3,9.3l-2.2,3.2C18.5,81.7,15,78.2,12.2,74.2z M38.7,95.8
	c0.9,0.2,1.7,0.3,2.6,0.5L28,116.1h-8.1L38.7,95.8z M76.9,116.1h-8.1L55.5,96.2c0.9-0.1,1.7-0.3,2.6-0.5L76.9,116.1z M74.2,84.6
	L72,81.4c3.6-2.6,6.7-5.7,9.3-9.3l3.2,2.2C81.7,78.2,78.2,81.7,74.2,84.6z M86.7,71l-3.3-2.2c3.5-6,5.6-13,5.6-20.4
	C89,41,87,34,83.5,28l3.3-2.2c3.9,6.6,6.2,14.3,6.2,22.6S90.6,64.3,86.7,71z M114.2,61.9c-1.1,0-1.9-0.9-1.9-1.9s0.9-1.9,1.9-1.9
	s1.9,0.9,1.9,1.9C116.1,61.1,115.3,61.9,114.2,61.9z"/>
</svg>
