<?xml version="1.0" encoding="UTF-8"?>
<svg width="775px" height="200px" viewBox="0 0 775 200" version="1.1" xmlns="http://www.w3.org/2000/svg" xmlns:xlink="http://www.w3.org/1999/xlink">
    <!-- Generator: Sketch 55.2 (78181) - https://sketchapp.com -->
    <title>bitmart</title>
    <desc>Created with Sketch.</desc>
    <g id="Page-1" stroke="none" stroke-width="1" fill="none" fill-rule="evenodd">
        <g id="bitmart" fill="#55A49F" fill-rule="nonzero">
            <path d="M721.62,78.41 L735.51,78.41 L735.51,59.55 L750.8,55.55 L750.8,78.41 L774.85,78.41 L774.85,88.97 L750.8,88.97 L750.8,132.5 C750.8,137.68 751.89,141.38 754.06,143.59 C756.24,145.8 759.84,146.91 764.88,146.91 C768.73,146.91 772.05,146.06 774.85,144.34 L774.85,154.91 C771.24,156.52 766.49,157.32 760.59,157.32 C743.87,157.32 735.51,149.78 735.51,134.69 L735.51,88.97 L721.62,88.97 L721.62,90.93 C718.95,89.27 715.09,88.44 710.06,88.44 C703.54,88.44 698.08,90.93 693.7,95.91 C689.32,100.89 687.13,107.68 687.13,116.28 L687.13,155.66 L671.84,155.66 L671.84,78.41 L687.13,78.41 L687.13,94.33 L687.5,94.33 C689.68,88.89 693,84.66 697.48,81.61 C701.95,78.57 706.95,77.05 712.48,77.05 C716.46,77.05 719.5,77.4 721.62,78.11 L721.62,78.41 Z M251.95,105.27 L251.95,144.19 L273.21,144.19 C282.4,144.19 289.53,142.43 294.6,138.91 C299.66,135.39 302.19,130.56 302.19,124.43 C302.19,111.65 291.44,105.27 269.94,105.27 L251.95,105.27 Z M251.95,58.94 L251.95,93.87 L267.99,93.87 C276.56,93.87 283.3,92.2 288.21,88.86 C293.12,85.51 295.58,80.8 295.58,74.71 C295.58,64.2 287.03,58.94 269.94,58.94 L251.95,58.94 Z M236.29,155.66 L236.29,47.48 L274.33,47.48 C285.88,47.48 295.05,49.77 301.82,54.34 C308.59,58.92 311.98,64.88 311.98,72.22 C311.98,78.36 309.93,83.69 305.83,88.22 C301.73,92.74 296.07,95.96 288.87,97.87 L288.87,98.17 C297.88,99.03 305.08,101.78 310.49,106.43 C315.9,111.09 318.6,117.14 318.6,124.58 C318.6,133.83 314.5,141.33 306.3,147.06 C298.09,152.79 287.75,155.66 275.26,155.66 L236.29,155.66 Z M336.04,155.66 L336.04,78.41 L351.32,78.41 L351.32,155.66 L336.04,155.66 Z M343.87,58.79 C341.13,58.79 338.8,58.04 336.88,56.53 C334.95,55.02 333.99,53.11 333.99,50.8 C333.99,48.48 334.95,46.56 336.88,45.02 C338.8,43.49 341.13,42.72 343.87,42.72 C346.66,42.72 349.04,43.49 351,45.02 C352.96,46.56 353.93,48.48 353.93,50.8 C353.93,53.01 352.96,54.9 351,56.45 C349.04,58.01 346.66,58.79 343.87,58.79 Z M418.91,154.91 C415.3,156.52 410.55,157.32 404.65,157.32 C387.93,157.32 379.57,149.78 379.57,134.69 L379.57,88.97 L363.17,88.97 L363.17,78.41 L379.57,78.41 L379.57,59.55 L394.86,55.55 L394.86,78.41 L418.91,78.41 L418.91,88.97 L394.86,88.97 L394.86,132.5 C394.86,137.68 395.95,141.38 398.12,143.59 C400.3,145.8 403.9,146.91 408.94,146.91 C412.79,146.91 416.11,146.06 418.91,144.34 L418.91,154.91 Z M557.7,155.66 L543.38,155.66 L543.38,88.9 C543.38,83.62 543.78,77.17 544.58,69.53 L544.24,69.53 C542.87,74.02 541.63,77.23 540.55,79.18 L498.53,155.66 L491.5,155.66 L449.57,79.73 C448.37,77.51 447.14,74.11 445.88,69.53 L445.54,69.53 C446,73.51 446.23,80.01 446.23,89.03 L446.23,155.66 L432.33,155.66 L432.33,56.14 L451.37,56.14 L489.1,125.54 C492.02,130.86 493.9,134.84 494.76,137.48 L495.27,137.48 C497.73,132.02 499.7,127.95 501.19,125.26 L539.69,56.14 L557.7,56.14 L557.7,155.66 Z M635.39,116.58 L612.37,119.15 C605.28,119.95 599.94,121.37 596.33,123.41 C592.73,125.45 590.93,129.06 590.93,134.23 C590.93,138.01 592.59,141.09 595.92,143.48 C599.24,145.87 603.67,147.06 609.2,147.06 C616.78,147.06 623.04,144.91 627.98,140.61 C632.92,136.31 635.39,130.87 635.39,124.28 L635.39,116.58 Z M650.68,155.66 L635.39,155.66 L635.39,143.59 L635.02,143.59 C628.37,152.84 618.58,157.47 605.66,157.47 C596.15,157.47 588.71,155.43 583.33,151.36 C577.96,147.29 575.27,141.88 575.27,135.14 C575.27,120.71 585.77,112.31 606.78,109.94 L635.39,106.7 C635.39,93.57 628.83,87.01 615.72,87.01 C604.23,87.01 593.85,90.18 584.59,96.51 L584.59,83.84 C593.97,79.01 604.79,76.6 617.03,76.6 C639.46,76.6 650.68,86.2 650.68,105.42 L650.68,155.66 Z" id="Combined-Shape"></path>
            <path d="M148.520103,150.524697 C143.689093,160.69266 132.464066,167.839196 120.8,167.839196 L0,167.839196 L0,162.430537 L120.260334,162.430537 C133.070303,162.430537 145.603339,151.983773 145.603339,139.156914 C145.603339,126.308677 133.0419,115.883291 120.260334,115.883291 L59.3206678,115.883291 L59.3206678,111.557789 L120.8,111.557789 C134.056073,111.557789 146.74508,120.788292 150.125745,133.194077 C148.972286,125.769069 145.486864,118.846804 140.10116,113.468151 C133.412662,106.788408 124.34137,103.036715 114.883349,103.0386 L36,103.0386 L36,95.4773869 L113.239946,95.4773869 C137.409107,95.4813112 157,115.053643 157,139.19598 C157.001886,150.790218 152.392299,161.910232 144.185492,170.109262 C135.978685,178.308293 124.847066,182.914573 113.239946,182.914573 L68.4198611,182.914573 L68.4198611,174.280293 L114.883349,174.280293 C130.413913,174.280293 143.625889,164.364255 148.520103,150.524697 Z M138.496775,89.0773251 C140.948465,85.3877811 142.916037,81.4238187 144.36722,77.2827354 C142.622311,81.2830076 140.274872,85.0251529 137.38179,88.3701997 C137.756195,88.6019365 138.127876,88.8376647 138.496775,89.0773251 Z M144.948335,93.9098786 C157.8351,104.976083 166,121.400607 166,139.735093 C166,173.060796 139.043444,198.994975 105.755,198.994975 L24,198.994975 L24,191.454485 L104.147239,191.461578 C133.554392,191.461578 157.394583,168.662768 157.394583,139.203073 C157.394584,109.74878 133.556081,85.8702597 104.147239,85.8663424 L53.0459375,85.8663424 L53.0459375,79.3969849 L105.755,79.3969849 C109.79106,79.3969849 113.734422,79.7944882 117.548185,80.5525382 C127.431381,77.595686 135.598481,68.8516906 135.598481,58.5456491 C135.598481,45.7948265 123.058734,35.4484851 110.299241,35.4484851 L57,35.4484851 L57,31.1557789 L110.852152,31.1557789 C126.312405,31.1557789 141,43.6590814 141,59.0831214 C141,69.1631651 134.710159,77.993892 126.04893,82.9059291 C127.642994,83.4769973 129.206018,84.113433 130.734781,84.8120118 C137.617896,78.135332 141.538011,68.9316284 141.526741,59.2773638 C141.526743,49.8233362 137.763439,40.7568324 131.065315,34.0738258 C124.36719,27.3908192 115.283362,23.6391881 105.813618,23.6448469 L42,23.6448469 L42,16.080402 L104.197092,16.080402 C122.282055,16.0833368 137.806161,27.025927 144.492047,42.6402383 C137.309398,21.9411074 117.351454,7.53071474 93.8555466,7.53071474 L22,7.53071474 L22,0 L95.4847466,0 C128.908247,0 156,25.8863891 156,59.1830583 C156.019956,71.6454315 152.142629,83.7767992 144.948337,93.909876 Z M1,191.959799 L13,191.959799 L13,200 L1,200 L1,191.959799 Z M13,177.889447 L60,177.889447 L60,182.914573 L13,182.914573 L13,177.889447 Z M13,143.718593 L64,143.718593 L64,147.738693 L13,147.738693 L13,143.718593 Z M73,143.718593 L105,143.718593 L105,147.738693 L73,147.738693 L73,143.718593 Z M23,128.643216 L40,128.643216 L40,132.663317 L23,132.663317 L23,128.643216 Z M50,128.643216 L106,128.643216 L106,132.663317 L50,132.663317 L50,128.643216 Z M68,60.3015075 L105,60.3015075 L105,64.321608 L68,64.321608 L68,60.3015075 Z M25,31.1557789 L45,31.1557789 L45,35.1758794 L25,35.1758794 L25,31.1557789 Z M30,47.2361809 L105,47.2361809 L105,51.2562814 L30,51.2562814 L30,47.2361809 Z M11,60.3015075 L57,60.3015075 L57,64.321608 L11,64.321608 L11,60.3015075 Z" id="Combined-Shape"></path>
        </g>
    </g>
</svg>