<?xml version="1.0" encoding="utf-8"?>
<!DOCTYPE svg PUBLIC "-//W3C//DTD SVG 20010904//EN" "http://www.w3.org/TR/2001/REC-SVG-20010904/DTD/svg10.dtd">
<svg version="1.0" xmlns="http://www.w3.org/2000/svg" width="1916px" height="1005px" viewBox="0 0 1916 1005" preserveAspectRatio="xMidYMid meet">
 <g fill="#252339">
  <path d="M0.3 555 c0.2 -92.6 0.4 -103 2 -108 6.3 -20.8 19.4 -39.9 35.6 -51.9 3.8 -2.8 7.1 -6.1 7.4 -7.2 0.4 -1.5 1.2 -2 2.9 -1.7 3.3 0.4 19.8 -6.3 19.8 -8.1 0 -0.9 0.8 -1.1 2.5 -0.7 1.6 0.4 2.5 0.2 2.5 -0.5 0 -0.6 0.9 -0.9 2 -0.6 1.1 0.3 2 0.1 2 -0.4 0 -0.5 0.9 -0.9 2 -0.9 1.1 0 2 0.5 2 1 0 1.6 1.8 1.1 3.9 -1.1 1.7 -1.9 2.8 -2.1 10.6 -1.8 5.9 0.3 8.8 0.8 9.4 1.8 0.6 1 2.1 1.2 5 0.8 2.3 -0.3 4.1 -0.2 4.1 0.3 0 0.4 0.9 1 2 1.3 1.1 0.3 2 0 2 -0.6 0 -0.7 0.4 -0.6 0.9 0.2 0.5 0.8 1.6 1.1 2.5 0.8 0.9 -0.4 1.6 -0.2 1.6 0.4 0 0.6 0.7 0.9 1.5 0.5 0.8 -0.3 1.5 -0.1 1.5 0.5 0 0.6 0.7 0.9 1.5 0.5 0.8 -0.3 1.5 -0.1 1.5 0.3 0 1.2 6 3.2 7.1 2.5 0.5 -0.3 0.9 0.3 0.9 1.3 0 1.5 0.2 1.6 1 0.3 0.8 -1.2 1 -1.2 1 -0.1 0 0.8 0.3 1.1 0.7 0.8 0.3 -0.4 1.3 0.2 2.1 1.4 0.8 1.1 2 1.8 2.8 1.5 0.8 -0.3 1.4 -0.1 1.4 0.4 0 0.5 2.7 2.7 6 5 8 5.4 20.7 18.1 25.5 25.5 7.6 11.6 12.4 24.2 15 39.8 1.4 8.3 1.5 11.2 0.5 19 -1.4 10.3 -3.3 19 -5.8 25.7 -2 5.5 -8.7 17.3 -10.7 19 -0.8 0.7 -1.5 1.6 -1.5 2.1 0 0.5 -0.8 1.7 -1.7 2.7 -1 0.9 -2.7 2.8 -3.8 4.2 -2.7 3.4 -13.9 12.9 -19.8 16.9 -22.6 15.3 -56.2 19.5 -84.2 10.5 -4.3 -1.4 -9.2 -3.2 -10.7 -4 -1.5 -0.8 -2.9 -1.4 -3.3 -1.4 -0.3 0 -0.5 23.4 -0.5 52 0 28.6 -0.3 52 -0.7 52 -0.5 0 -12 0.1 -25.6 0.3 -24.8 0.2 -24.8 0.2 -24.4 -102.3z m88.8 -43.2 c0 -1 0.2 -1 0.6 0 0.6 1.5 11.3 1.7 11.3 0.2 0 -0.5 0.9 -1 2 -1 1.1 0 2 0.5 2 1 0 0.6 0.5 1 1 1 0.6 0 1 -0.6 1 -1.4 0 -0.9 1.3 -1.3 3.8 -1.3 4.8 0 8.6 -2 14.8 -7.7 4.1 -3.8 4.7 -4.7 3.4 -5.7 -1.2 -0.9 -1.1 -1 0.7 -0.6 1.8 0.4 2.8 -0.4 5.2 -4.2 5.5 -8.6 7.5 -17.1 6.5 -27.5 -0.5 -5.5 -1 -6.9 -2.5 -7.3 -2.2 -0.6 -2.5 -1.9 -0.6 -2.6 0.6 -0.3 0.3 -0.6 -0.8 -0.6 -1.3 -0.1 -1.6 -0.4 -0.8 -0.9 1.3 -0.8 0.6 -5.2 -0.8 -5.2 -0.5 0 -0.9 -0.6 -0.9 -1.4 0 -2.1 -13.1 -14 -18.1 -16.3 -6.9 -3.2 -14.8 -4.6 -24 -4.1 -13.9 0.7 -23.9 6.6 -34.8 20.4 -3.3 4.1 -6 12.6 -6.7 20.9 -1.2 14 5.9 28.3 18.2 37.1 3.6 2.6 9 5.4 12.2 6.4 7.1 2.3 7.2 2.3 7.3 0.8z"/>
  <path d="M499.3 657.2 c-23.3 -0.2 -23.3 -0.2 -23.3 -99.1 0 -108.5 -0.1 -106.5 6 -121.8 5.6 -14 19.2 -31.9 30.3 -39.9 2.8 -2.1 5.4 -4.1 5.7 -4.4 0.3 -0.4 1.3 -1 2.4 -1.3 1.1 -0.5 1.6 -1.3 1.2 -2.3 -0.5 -1.3 -0.2 -1.5 1.5 -1.1 1.5 0.4 2.3 0 2.6 -1.4 0.5 -1.9 3.3 -2.7 3.3 -0.9 0 0.5 1.6 0.2 3.5 -0.7 2.1 -1 3.4 -2.2 3.1 -3 -0.3 -0.7 0.1 -1.3 0.9 -1.3 0.8 0 1.5 0.4 1.5 1 0 0.5 0.7 0.7 1.5 0.4 0.8 -0.4 1.5 -1.2 1.5 -2 0 -1.7 2.7 -1.9 3.2 -0.2 0.3 0.8 1.2 0.4 2.6 -1 2.5 -2.5 4.2 -2.8 4.2 -0.9 0.1 0.7 0.6 0.5 1.4 -0.6 1.5 -2 4.2 -2.3 4.8 -0.5 0.3 0.8 1.1 0.4 2.4 -1 1.8 -2.1 2.6 -2.3 12.2 -2.1 8 0.1 10.4 0.5 11.1 1.7 0.6 1 1.8 1.3 4 1 1.7 -0.2 3.1 0 3.1 0.5 0 0.5 1 0.7 2.1 0.4 1.3 -0.3 2.8 0.1 3.7 0.9 0.8 0.8 2.4 1.4 3.6 1.2 1.1 -0.2 2.6 0.4 3.3 1.2 1 1.3 1.2 1.3 1.3 0.1 0 -1.3 0.2 -1.3 1.3 0 0.6 0.9 3.2 2.4 5.7 3.4 2.5 1.1 6.9 3.4 9.8 5.2 2.9 1.8 5.6 3.3 6.1 3.3 0.5 0 1.1 0.3 1.3 0.8 0.2 0.4 3.3 3.1 6.9 5.9 9.4 7.5 20.6 21.2 24.5 30.3 5.7 13 7.5 19 9.1 30 5.1 37.2 -17 76.8 -52.8 94.2 -15.2 7.5 -22.6 9.1 -41.9 9.5 -14.9 0.2 -17.4 0 -25.7 -2.2 -5.1 -1.4 -11.3 -3.4 -13.8 -4.5 -2.6 -1.1 -5.1 -2 -5.6 -2 -0.5 0 -0.9 20.5 -0.9 50.3 0 28.2 -0.4 50.8 -0.9 51.6 -1.1 1.7 0.7 1.7 -27.8 1.3z m65.8 -145.4 c0 -1 0.2 -1 0.6 0 0.6 1.5 12.3 1.7 12.3 0.2 0 -0.5 0.7 -1 1.5 -1 0.8 0 1.5 0.5 1.5 1 0 0.6 0.5 1 1 1 0.6 0 1 -0.7 1 -1.5 0 -0.8 0.7 -1.5 1.5 -1.5 0.8 0 1.5 0.5 1.5 1 0 0.6 0.7 0.7 1.8 0.1 0.9 -0.5 3.8 -1.8 6.4 -3 5.5 -2.6 15.8 -13.2 19.2 -19.9 3.4 -6.6 5 -15.9 4.3 -24 -1.5 -16.1 -15.9 -32.5 -32.2 -36.7 -11.8 -3 -27.7 -1.2 -35.8 4.1 -8.5 5.6 -16.7 15.1 -19.6 22.7 -2.3 5.9 -3.2 15.6 -2.1 22.3 1 6.2 4.7 15.3 7.4 17.9 0.6 0.6 2 2.4 3.1 3.8 1.3 1.9 2.2 2.3 2.7 1.4 0.5 -0.8 0.8 -0.7 0.8 0.5 0 2.1 7.9 8.1 9.7 7.4 0.7 -0.3 1.3 -0.1 1.3 0.5 0 0.6 0.4 0.8 0.9 0.5 0.5 -0.3 1.1 0 1.4 0.8 0.6 1.6 4.7 2.8 4.7 1.4 0 -0.5 0.7 -0.2 1.6 0.6 1.9 1.9 3.4 2.1 3.5 0.4z"/>
  <path d="M1322.6 654.3 c-8.2 -1.2 -20 -4.6 -22 -6.5 -0.6 -0.4 -1.5 -0.8 -2.2 -0.8 -1.4 0 -9.3 -4.7 -18.2 -10.7 -3.4 -2.4 -6.6 -4.3 -7.2 -4.3 -0.5 0 -1 -0.5 -1 -1.1 0 -0.6 -2.3 -3.6 -5.1 -6.7 -12.3 -13.5 -21.8 -32.4 -23.7 -47.2 -0.4 -3 -0.7 -50.5 -0.7 -105.5 0 -100 0 -100 24 -100.2 22.8 -0.2 24 -0.1 25.8 1.8 1.8 1.9 1.9 4.3 1.5 52 -0.3 46 -0.2 49.9 1.4 49.9 0.9 0 1.9 0.6 2.1 1.3 0.4 0.7 0.8 0.3 1.2 -1 0.8 -2.6 4 -3.9 5.9 -2.4 0.7 0.6 1.6 0.7 2 0.3 0.4 -0.4 1.2 -0.8 1.7 -0.8 0.5 -0.1 1.4 -0.2 1.9 -0.3 0.6 0 1 -0.8 1 -1.6 0 -0.8 0.7 -1.5 1.5 -1.5 0.8 0 1.5 0.4 1.5 0.9 0 0.8 2.9 0.4 11.8 -1.5 1.2 -0.2 2.2 -1.1 2.2 -1.8 0 -0.9 0.7 -1.2 2 -0.9 1.1 0.3 2 0.9 2 1.5 0 0.5 3.4 0.8 7.5 0.7 4.7 -0.1 7.5 -0.6 7.5 -1.3 0 -0.8 0.2 -0.8 0.8 0 1.1 1.7 7.2 2.6 7.2 1.1 0 -0.7 0.5 -0.5 1 0.4 0.6 1 3 2 5.7 2.4 2.7 0.4 6.9 1.5 9.5 2.5 3.3 1.2 4.8 1.4 5.2 0.6 0.3 -0.8 0.5 -0.7 0.5 0.1 0.1 1.4 6 4.7 6.9 3.9 0.3 -0.3 1.2 0.3 2 1.5 0.8 1.1 2 1.8 2.8 1.5 0.8 -0.3 1.4 -0.1 1.4 0.4 0 0.5 2.6 2.9 5.7 5.2 17.1 12.7 29.5 29.7 35.2 48.2 2.7 8.8 5 23.7 4.5 29.6 -1.5 19.8 -5.5 32.8 -14.1 46.3 -5.1 7.9 -21.6 25.1 -28 29.1 -16.6 10.3 -31.3 15.1 -47.3 15.5 -4.7 0.1 -9.9 0.3 -11.6 0.5 -1.7 0.1 -7 -0.4 -11.8 -1.1z m29.7 -50.4 c2.9 -0.8 3.7 -1.4 3.3 -2.6 -0.5 -1.2 -0.1 -1.4 1.9 -0.9 2 0.5 3.7 -0.2 7.9 -3.3 21.6 -16 24.3 -46.9 5.6 -65.1 -4.5 -4.4 -15.1 -11.2 -17.4 -11.2 -0.3 0 -2.5 -0.6 -4.8 -1.2 -7.1 -2.1 -19.2 -1.2 -27.8 2.1 -0.8 0.3 -2 0.7 -2.6 0.8 -0.6 0.2 -3.3 1.9 -6 3.8 -8.8 6.3 -16.7 18.9 -17.9 28.3 -0.9 7 -0.7 16.2 0.5 18.5 0.6 1 0.9 1.9 0.6 1.9 -0.8 0 2.4 7.1 4.7 10.3 9.2 12.9 23.6 20.8 34.9 19.3 3.4 -0.5 4.8 -0.3 4.8 0.5 0 1.2 5 0.7 12.3 -1.2z"/>
  <path d="M1807 654.7 c-10.2 -0.9 -24.8 -5.7 -34.4 -11.2 -3.7 -2.2 -7.7 -4.5 -8.8 -5.2 -1.1 -0.6 -5.2 -3.9 -9 -7.3 -4.9 -4.4 -7.5 -6.1 -8.8 -5.7 -2.5 0.6 -3.6 -0.9 -1.6 -2 1.2 -0.7 0.4 -2.4 -4.3 -9 -8 -11.2 -12 -20.6 -16 -37.3 -0.7 -3 -0.9 -37.3 -0.8 -105 0.2 -100.5 0.2 -100.5 24.2 -100.5 19.1 0 24.4 0.3 25.5 1.4 1.3 1.2 1.5 8.5 1.2 53.2 -0.2 28.6 -0.1 51.9 0.1 51.9 2 0 12.5 -4.6 13.8 -6 2.2 -2.5 6 -3.5 7 -1.9 0.7 1.1 0.9 1 0.9 -0.3 0 -1 0.7 -1.8 1.5 -1.8 0.8 0 1.5 0.5 1.5 1 0 0.6 0.5 1 1 1 0.6 0 1 -0.7 1 -1.5 0 -1.7 2.7 -2 3.2 -0.4 0.5 1.6 4.8 0.1 4.8 -1.7 0 -1.8 1.4 -1.8 3.2 -0.1 1.8 1.9 13.8 2.3 14.9 0.5 0.7 -1 1.1 -1 1.7 -0.1 1.1 1.7 6.2 2.5 6.2 1 0 -0.8 0.3 -0.9 0.8 -0.1 1.1 1.7 9.2 3.5 9.2 2 0 -0.6 0.4 -0.5 0.9 0.3 0.5 0.7 1.4 1 2 0.7 0.6 -0.4 1.1 -0.3 1.1 0.2 0 0.5 2.6 2 5.8 3.2 15.7 6.3 36 22.1 45.1 35.3 16.9 24.6 20.7 59.1 9.6 86.5 -9.1 22.3 -28 41.8 -50 51.4 -14.5 6.4 -34.1 9.2 -52.5 7.5z m11 -50 c0 -1.8 3.2 -1.8 4.5 0 1.5 2 12.6 -0.3 11.8 -2.5 -0.5 -1.2 -0.1 -1.4 2 -0.8 6.9 1.7 23.5 -15.4 26.7 -27.6 3.3 -12 -0.6 -33.6 -6 -33.9 -1 0 -1.1 -0.2 -0.3 -0.6 1.9 -0.7 -3.1 -6.8 -9.2 -11.3 -5.2 -3.9 -13.5 -8.5 -13.5 -7.5 0 0.3 -0.9 0.1 -1.9 -0.5 -3.2 -1.7 -15.2 -2 -22.2 -0.5 -13.2 2.7 -23.4 10.5 -30.6 23.3 -3.7 6.5 -3.8 7 -4 17.7 -0.1 8 0.2 11.6 1.3 13.2 0.8 1.2 1.4 3 1.4 3.9 0 2.5 3.1 8.4 4.1 7.8 0.5 -0.3 0.9 0.2 0.9 1 0 2.1 6.7 8.9 8 8.1 0.5 -0.3 1 0.1 1 0.9 0 1.2 7.8 6.8 10 7.2 0.3 0 1.2 0.4 2 0.7 1.4 0.6 10 2.3 12.8 2.6 0.6 0 1.2 -0.5 1.2 -1.2z"/>
  <path d="M236.7 653.8 c0.7 -1.2 6.7 -10.1 19.1 -28.1 2.6 -3.7 5.2 -7.5 5.7 -8.3 0.7 -1 0.6 -1.8 -0.5 -2.5 -1.2 -0.9 -1.1 -1 0.5 -0.6 1.6 0.3 2.9 -0.8 5.5 -4.7 9 -13.1 18.1 -26.2 18.8 -27.1 0.4 -0.5 3.4 -4.8 6.5 -9.5 3.1 -4.7 8.1 -11.9 11 -16 18.7 -26.5 20.9 -30 18.8 -30 -1.2 0 -2.1 -0.7 -2.1 -1.5 0 -1.1 0.5 -1.2 2.4 -0.5 2.1 0.8 2.9 0.2 7.3 -5.3 6.5 -8.1 6.8 -8.7 5.2 -9.8 -1 -0.6 -0.7 -0.9 1.1 -0.9 2 0 4.5 -2.7 13.4 -14.5 13.7 -18.4 15.8 -22.6 16.4 -32.5 0.5 -9.2 -1.8 -19 -4.6 -19.1 -0.9 0 -1.2 -0.3 -0.5 -0.5 1.8 -0.8 -2.1 -6.7 -7.5 -11.4 -13 -11.5 -30.4 -14.1 -45.8 -6.8 -6.3 2.9 -15.7 12.7 -19.1 19.7 -2.4 4.9 -2.7 6.8 -2.6 15.2 0 6.7 0.6 11.1 1.8 14.3 1 2.6 1.5 4.9 1.2 5.2 -0.3 0.4 -11.1 0.6 -23.9 0.5 -16.6 -0.1 -23.6 -0.5 -24.5 -1.4 -1.6 -1.7 -2.4 -8.5 -2.3 -19.7 0 -16.5 5.7 -33.6 15.7 -47.1 5 -6.9 14.4 -16.4 19.8 -20 1.9 -1.3 3.3 -3 3 -3.7 -0.3 -0.8 0.2 -1.2 1.3 -1.1 2.7 0.4 6.4 -1.2 5.9 -2.5 -0.6 -1.6 4 -4 11.7 -6.1 4.8 -1.3 6 -1.4 6.7 -0.3 0.6 0.9 0.9 0.8 1.5 -0.5 0.7 -2 3.4 -2.3 3.4 -0.4 0.1 0.7 0.6 0.5 1.4 -0.6 1.4 -1.8 4.6 -2.3 4.6 -0.7 0 1.2 5.3 0.1 5.8 -1.2 0.6 -1.3 8.2 -1 8.2 0.5 0 0.8 0.4 0.7 1 -0.3 0.7 -1.1 1.2 -1.2 1.8 -0.4 0.9 1.5 6.2 2.1 8.1 1 0.8 -0.5 1.6 -0.4 2.1 0.4 0.4 0.7 1.7 1 2.9 0.7 1.2 -0.3 2.1 -0.1 2.1 0.5 0 0.6 0.8 0.8 1.8 0.6 1 -0.3 2.4 0.2 3.2 1 0.9 1.1 1.5 1.2 1.8 0.4 0.2 -0.8 0.8 -0.7 1.9 0.4 0.8 0.8 2 1.3 2.7 1.1 0.6 -0.2 1.7 0.3 2.5 1 0.7 0.8 1.9 1.2 2.6 0.9 0.8 -0.3 1.5 0.1 1.8 0.7 0.5 1.4 14.2 9.8 16.4 10.1 0.8 0.1 2.2 1.5 3.2 3 1 1.5 2.7 3.4 3.9 4.1 3 2.2 12.4 15 16.5 22.6 6.3 11.7 8 18.7 8.3 34.4 0.3 11.4 0 15.1 -1.5 20 -2.5 8.4 -10.5 23.7 -14.6 28.1 -0.6 0.6 -8.6 12.1 -17.8 25.5 -9.3 13.4 -20.2 29.4 -24.4 35.4 -4.2 6.1 -11.4 16.6 -16.1 23.5 -4.7 6.9 -9.8 14.1 -11.4 16.1 -1.5 2 -2.8 4 -2.8 4.3 0 0.3 19.2 0.7 42.8 0.8 42.7 0.3 42.7 0.3 42.9 22.6 0.3 22.2 0.3 22.2 -86.3 22.2 -69 0 -86.4 -0.3 -85.7 -1.2z"/>
  <path d="M1484.7 645.3 c3.7 -5.4 10.2 -14.8 14.5 -21 4.3 -6.2 7.8 -11.7 7.8 -12.2 0 -0.5 -0.6 -1.2 -1.2 -1.5 -0.7 -0.4 -0.4 -0.5 0.7 -0.3 1.7 0.3 3.4 -1.6 8.5 -9.1 7.4 -10.8 14 -20.3 22.3 -32.1 6.1 -8.8 6.4 -9.6 4.5 -10.5 -0.7 -0.3 -0.4 -0.4 0.7 -0.3 1.4 0.2 3.1 -1.3 5.8 -5.1 4 -5.7 4.3 -6.7 2.5 -7.6 -0.7 -0.4 -0.3 -0.4 0.9 -0.2 1.2 0.2 2.4 -0.2 2.6 -0.8 0.5 -1.2 12.2 -17.7 16.1 -22.8 4.6 -5.8 5.6 -7.2 5.6 -7.9 0 -0.4 -0.8 -1 -1.7 -1.2 -1.2 -0.3 -0.8 -0.5 0.9 -0.6 2.1 -0.1 4.2 -2 10 -9.3 12.7 -15.8 19.1 -25.1 21.1 -30.3 2 -5.2 2.6 -14.8 1.4 -21.8 -0.9 -4.8 -4.9 -12.2 -9 -16.5 -4.4 -4.6 -14.8 -11.4 -16.4 -10.8 -0.8 0.3 -1.2 0.2 -0.9 -0.3 0.8 -1.3 -5.6 -2.3 -15.4 -2.4 -7.6 0 -9.2 0.3 -15.1 3.1 -7.6 3.6 -15.4 10.9 -19.2 18 -5.2 9.7 -5.9 22.5 -1.7 32 1.1 2.4 2 4.6 2 4.8 0 0.2 -11 0.4 -24.4 0.4 -22.3 0 -24.4 -0.2 -25.1 -1.7 -0.4 -1 -0.9 -7.6 -1.2 -14.8 -0.8 -19.3 2.4 -31.4 12.4 -46.9 2.4 -3.8 5.1 -7.5 5.9 -8.3 1.7 -1.8 1.8 -3 0.2 -3.6 -0.8 -0.3 -0.6 -0.6 0.5 -0.6 1 -0.1 5.4 -3 9.7 -6.5 4.4 -3.6 8.9 -7 10 -7.6 1.2 -0.7 1.9 -1.8 1.6 -2.6 -0.4 -0.9 0.2 -1.3 1.7 -1.2 3 0.2 12.7 -4.1 12.7 -5.7 0 -0.6 1.9 -1.7 4.1 -2.4 3.4 -1 4.3 -1 5 0 0.6 1.1 0.9 1 1.5 -0.4 0.7 -2 3 -2.3 3.7 -0.4 0.4 0.7 0.8 0.4 1.2 -0.9 0.5 -1.5 1.2 -2 2.6 -1.7 1 0.3 1.9 0.8 1.9 1.2 0 0.3 2.7 0.4 6 0.3 3.3 -0.2 6 -0.8 6 -1.3 0 -0.5 1.1 -0.9 2.5 -0.9 1.4 0 2.5 0.4 2.5 0.9 0 1.2 5.6 1.9 7.4 0.9 1.1 -0.6 1.6 -0.5 1.6 0.3 0 0.7 1 0.9 2.5 0.7 1.4 -0.3 2.5 -0.1 2.5 0.5 0 0.5 0.9 0.7 2 0.4 1.1 -0.3 2 -0.2 2 0.2 0 1.1 9.8 4.3 11 3.6 0.5 -0.3 1 -0.1 1 0.5 0 0.6 0.5 0.8 1 0.5 0.6 -0.3 1 -0.1 1 0.5 0 0.6 0.5 0.8 1 0.5 0.6 -0.3 1 -0.1 1 0.6 0 0.7 0.2 1 0.5 0.7 0.3 -0.3 1.6 0.3 2.8 1.3 4.5 3.7 18.9 14.4 20.8 15.4 1 0.5 1.9 1.3 1.9 1.7 0 0.3 2.4 4.2 5.4 8.5 7.7 11.2 11.5 19.4 14.7 31.3 1.6 6 1.4 26.2 -0.4 33 -1.7 7.1 -6.4 17.6 -9.7 22 -1.5 1.9 -5.5 7.8 -9.1 13 -3.5 5.2 -6.6 9.7 -7 10 -0.3 0.3 -3.5 5 -7.2 10.5 -3.7 5.5 -11.2 16.5 -16.8 24.5 -5.5 8 -12.1 17.7 -14.7 21.5 -2.6 3.9 -5.2 7.5 -5.8 8.2 -0.6 0.6 -2.6 3.5 -4.5 6.5 -1.8 2.9 -3.6 5.5 -4 5.8 -1 0.9 -7.9 11.4 -7.9 12.2 0 0.4 19 0.9 42.3 1 42.2 0.3 42.2 0.3 42.7 21.3 0.3 11.6 0.4 21.6 0.2 22.3 -0.3 0.9 -18.6 1.2 -86.9 1.2 -86.4 0 -86.4 0 -79.6 -9.7z"/>
 </g>
 <g fill="#1d8d58">
  <path d="M950.5 722.1 c-0.3 -0.2 -5.3 -0.7 -11.2 -1.2 -22.8 -1.9 -37.4 -4.5 -47.1 -8.5 -1.8 -0.8 -3.9 -1.4 -4.8 -1.4 -0.8 0 -5.3 -1.8 -9.9 -4.1 -4.7 -2.2 -10.1 -4.3 -12 -4.6 -1.9 -0.3 -3.5 -0.9 -3.5 -1.4 0 -1 -8.7 -4.9 -11 -4.9 -0.9 0 -2.7 -1.1 -3.9 -2.4 -1.3 -1.4 -2.9 -2.2 -3.7 -1.9 -0.8 0.3 -1.4 0 -1.4 -0.6 0 -1.7 -5.9 -4.9 -7.9 -4.4 -1.3 0.3 -2 -0.2 -2.4 -1.7 -0.3 -1.2 -1 -1.9 -1.6 -1.5 -0.6 0.3 -1.1 0.2 -1.1 -0.4 0 -1 -3.8 -2.7 -5.2 -2.3 -0.5 0.1 -0.8 -0.3 -0.8 -0.8 0 -2 -8.9 -10 -10.5 -9.4 -0.8 0.3 -1.5 0.1 -1.5 -0.5 0 -1.5 -7.7 -8.9 -10.2 -9.7 -2.9 -0.9 -5.7 -3.5 -7.5 -6.8 -2.3 -4.3 -16.5 -19.6 -18.2 -19.6 -0.6 0 -1.1 -0.9 -1.1 -1.9 0 -1 -0.7 -2.1 -1.5 -2.5 -0.8 -0.3 -1.5 -1.5 -1.5 -2.6 0 -1.4 -0.6 -2 -1.7 -1.8 -1.2 0.2 -1.8 -0.3 -1.8 -1.7 0 -1.1 -0.2 -2.2 -0.5 -2.5 -0.3 -0.3 -1.1 -1.6 -1.8 -3 -0.7 -1.4 -3 -5.4 -5.2 -9 -2.2 -3.6 -5.1 -8.8 -6.4 -11.7 -1.4 -2.8 -3 -5.4 -3.5 -5.8 -0.6 -0.3 -1.1 -1.6 -1.1 -2.8 0 -1.2 -1.2 -4 -2.5 -6.2 -2.7 -4.3 -3.3 -9 -1.2 -9.8 0.7 -0.3 0.5 -0.6 -0.5 -0.6 -1 -0.1 -1.8 -0.7 -1.8 -1.5 0 -0.7 -0.6 -1.9 -1.4 -2.5 -1.1 -0.9 -1.2 -0.7 -0.9 1.3 0.6 2.9 -1 4.1 -2.8 2 -1.1 -1.3 -1 -2.1 0.5 -4.9 1.2 -2.1 1.5 -4.1 1.1 -5.5 -0.5 -1.5 -0.2 -2.6 0.6 -3.1 1.1 -0.7 1.1 -0.9 -0.2 -0.9 -1.1 0 -2 -1.5 -2.8 -4.4 -1.5 -5.9 -1.4 -6.4 0.7 -6.9 1.4 -0.4 1.4 -0.6 -0.5 -1.2 -2.8 -0.9 -4.4 -7.2 -2.2 -8.6 1.2 -0.7 1.1 -0.9 -0.1 -0.9 -1.6 0 -4 -4.3 -4 -7.1 0 -1 0.7 -2.4 1.5 -3.2 1.3 -1.3 1.2 -1.6 -0.8 -2.1 -2.2 -0.5 -2.2 -0.5 -1.9 -94.7 0.2 -83.4 0.1 -94.1 -1.2 -93.6 -1.9 0.7 -2.8 -0.6 -2 -2.7 0.6 -1.5 0.8 -1.5 1.9 0.1 1.1 1.5 1.5 1 2.9 -4 1.2 -4 2.2 -5.7 3.4 -5.8 1 0 1.2 -0.3 0.5 -0.6 -1.8 -0.7 -1.6 -2.9 0.4 -6.1 2.3 -3.6 3.9 -5.2 5.1 -5.2 0.6 0 1.3 0.6 1.5 1.3 0.3 0.6 0.6 0.2 0.6 -1 0.1 -1.3 -0.4 -2.3 -1 -2.3 -0.5 0 0.1 -2.1 1.6 -4.7 1.7 -3.3 4.3 -5.9 8 -8.3 3 -1.9 5.4 -3.8 5.5 -4.2 0 -0.4 -0.9 -1 -2 -1.3 -2.4 -0.8 -1.7 -2.5 1.1 -2.5 1 0 1.9 0.7 1.9 1.5 0 1.1 1.5 0.7 6.3 -1.7 3.4 -1.7 7.5 -3.7 9 -4.4 2.3 -1.1 21.3 -1.3 102.5 -1.1 90.5 0.3 100.2 0.4 105.5 2 3.2 0.9 6.8 1.7 8.1 1.7 1.3 0 4.6 0.6 7.2 1.4 2.7 0.8 7.6 2 10.9 2.7 3.3 0.7 6.5 1.6 7 2 0.6 0.4 2.7 1 4.8 1.4 2 0.4 3.7 1.1 3.7 1.6 0 0.5 1 0.9 2.3 0.9 1.3 0 2.8 0.5 3.3 1 0.6 0.6 2.5 1.4 4.2 1.9 2.8 0.8 3.2 0.7 3.2 -0.9 0 -1.3 0.5 -1.8 1.6 -1.3 0.8 0.3 1.3 1.2 0.9 2.1 -0.8 2.2 1.4 4.2 4.6 4.2 1.8 0 3.2 0.7 3.9 2 0.7 1.4 2.1 2 4.4 2 2.5 0 3.5 0.5 3.9 2 0.3 1.4 1.4 2 3.1 2 1.9 0 3 0.8 3.8 2.6 1.1 2.3 1.7 2.5 5.1 2.1 3.1 -0.4 3.6 -0.3 2.7 0.8 -1.7 2 -0.2 3.7 2.8 3.5 5.1 -0.4 5.6 -0.2 4.2 1.5 -2 2.4 0.3 4.4 3.1 2.7 2.6 -1.7 4.1 -0.7 3.3 2.3 -0.5 2 0.1 2.6 4.6 4.7 3.7 1.7 5 2.8 4.7 4 -0.5 1.6 3.4 5.8 5.3 5.8 0.6 0 1 0.5 1 1 0 0.6 0.4 1 0.9 1 1.7 0 11.6 10.1 11.6 11.8 0 0.9 0.8 1.8 1.8 2 0.9 0.2 1.7 -0.1 1.7 -0.7 0 -0.6 0.5 -1.1 1 -1.1 0.6 0 0.9 1.3 0.8 2.9 -0.1 1.8 0.6 3.9 1.7 5.2 1.1 1.3 2.7 3.1 3.5 4.1 0.8 1 2.5 2.9 3.8 4.2 1.2 1.3 2.2 2.8 2.2 3.4 0 0.6 1.8 2.9 4 5.2 2.4 2.5 4 5.1 4 6.6 0 2.4 2.3 3.3 3.5 1.4 0.4 -0.7 1.3 -0.7 2.6 0 2.5 1.4 2.4 3 -0.1 3.7 -1.1 0.3 -2 0.7 -2 1 0 1.5 3.6 6.3 4.7 6.3 0.7 0 1.3 1.2 1.3 2.8 0 1.5 0.9 4.2 2 6 1.1 1.8 2 4.1 2 5.2 0 1 0.4 2.2 1 2.5 1 0.6 6 10.9 6 12.4 0 1.6 3.8 12.6 5.4 15.6 0.9 1.7 1.3 3.8 1 4.7 -0.3 1 0 2.8 0.7 4 1.6 3 4.9 19.2 4.9 24.1 0 3 0.4 4 2 4.4 2 0.5 2.8 2.3 1.1 2.3 -1.8 0 -3 15.7 -1.8 23 0.4 1.9 0.7 38.8 0.7 82 0.1 85.2 -0.1 87.4 -5.5 97.6 -1.9 3.5 -2.2 5.1 -1.4 6.5 0.5 1 0.6 2 0.2 2 -0.4 0.1 -1.4 0.2 -2.2 0.3 -0.8 0 -1.9 1 -2.5 2 -2 3.5 -3 4.8 -8.1 9.7 -2.7 2.7 -6.2 5.4 -7.7 6 -1.6 0.6 -2.8 1.5 -2.8 1.9 0 0.4 -1.9 1.5 -4.2 2.5 -2.4 0.9 -5.4 2.2 -6.8 2.7 -8.2 3.4 -18 3.8 -98.8 4.1 -44.2 0.1 -80.5 0 -80.7 -0.2z m-69.9 -94.8 c-1.1 -1.1 -1.7 0.4 -0.9 2.3 0.7 1.8 0.8 1.8 1.1 0.1 0.2 -1 0.1 -2.1 -0.2 -2.4z m83.9 -0.3 c0.4 -0.6 -0.7 -1 -2.4 -1 -1.7 0 -3.1 0.5 -3.1 1 0 0.6 1.1 1 2.4 1 1.4 0 2.8 -0.4 3.1 -1z m26 -3 c0.3 -0.4 -0.6 -1.1 -1.9 -1.4 -3 -0.7 -8.6 1.1 -6.8 2.3 1.4 0.9 8 0.2 8.7 -0.9z m-77 0 c0.3 -0.5 -0.3 -1 -1.5 -1 -1.2 0 -1.8 0.5 -1.5 1 0.3 0.6 1 1 1.5 1 0.5 0 1.2 -0.4 1.5 -1z m-18.1 -7.3 c-0.7 -1.9 -2 -2.2 -2.9 -0.7 -0.9 1.5 1.6 4.3 2.7 3.2 0.5 -0.5 0.6 -1.6 0.2 -2.5z m119.6 0.3 c0 -0.5 -0.3 -1 -0.7 -1.1 -0.5 0 -1.6 -0.2 -2.6 -0.4 -1.5 -0.3 -1.6 -0.1 -0.6 1.1 1.3 1.6 3.9 1.9 3.9 0.4z m-100.6 -48.6 c2.5 -0.9 1.9 -2.4 -0.9 -2.4 -2.4 0 -3.2 1 -1.8 2.3 0.8 0.8 0.8 0.8 2.7 0.1z m22.1 -0.4 c-0.3 -0.5 -1.5 -1 -2.6 -1 -1 0 -1.9 0.5 -1.9 1 0 0.6 1.2 1 2.6 1 1.4 0 2.3 -0.4 1.9 -1z m41.1 -1.3 c0.4 -0.4 -0.2 -0.7 -1.4 -0.7 -1.2 0 -2.2 0.4 -2.2 0.9 0 1 2.6 0.9 3.6 -0.2z m100 -17.4 c-0.3 -0.3 -1.3 -0.2 -2.3 0.2 -1.7 0.7 -1.7 0.8 0.2 1.5 1.9 0.7 3.4 -0.5 2.1 -1.7z m-2.6 -14.9 c0 -2.1 -0.4 -3.3 -1 -2.9 -0.5 0.3 -1 1.9 -1 3.6 0 1.6 0.5 2.9 1 2.9 0.6 0 1 -1.6 1 -3.6z m-185.7 -0.4 c-0.3 -1 -1.1 -2.5 -1.9 -3.1 -1.1 -0.9 -1.4 -0.7 -1.4 1.3 0 2.5 1.8 5 3.1 4.3 0.4 -0.3 0.5 -1.4 0.2 -2.5z m-5.8 -8 c0.3 -0.5 -0.1 -2 -0.9 -3.2 -0.9 -1.2 -1.6 -3.3 -1.6 -4.5 0 -1.3 -0.4 -2.3 -1 -2.3 -1.4 0 -1.3 3.6 0.2 7.7 1.2 3.4 2.2 4.1 3.3 2.3z m137.3 -8.8 c0.4 -2.5 -1.3 -3 -2.2 -0.6 -0.9 2.5 -0.7 3.6 0.7 3.2 0.6 -0.3 1.3 -1.4 1.5 -2.6z m-135.8 -42.1 c0 -1 -0.7 -2.4 -1.5 -3.1 -1.2 -1 -1.5 -0.9 -1.5 0.8 0 2.9 1.1 5.3 2.1 4.6 0.5 -0.3 0.9 -1.3 0.9 -2.3z m194.8 -1.9 c0.3 -2.7 0 -3.2 -1.9 -3.2 -1.7 0 -2 0.4 -1.5 2.3 0.3 1.2 0.6 2.8 0.6 3.5 0 2.8 2.5 0.4 2.8 -2.6z m-60.8 -8.3 c0 -1 -0.7 -1.9 -1.5 -1.9 -1.5 0 -2.1 3.1 -0.9 4.3 1.1 1 2.4 -0.3 2.4 -2.4z m-127 -1 c0 -0.5 -0.7 -0.9 -1.5 -0.9 -0.9 0 -1.5 0.9 -1.5 2.1 0 1.8 0.2 1.9 1.5 0.9 0.8 -0.7 1.5 -1.6 1.5 -2.1z m185.2 -5.8 c-0.2 -1.6 -1.3 -3.8 -2.3 -4.7 -1.8 -1.6 -1.9 -1.6 -1.9 1.5 0 1.9 0.6 3.4 1.5 3.7 0.8 0.4 1.5 1.3 1.5 2.1 0 0.8 0.4 1.2 0.8 0.9 0.5 -0.3 0.7 -1.9 0.4 -3.5z m-69.2 0.1 c0 -1.3 -5.1 -5.4 -5.8 -4.7 -0.4 0.4 0.1 1.1 1.1 1.6 0.9 0.6 1.7 1.7 1.7 2.4 0 0.8 0.7 1.5 1.5 1.5 0.8 0 1.5 -0.4 1.5 -0.8z m-111 -3.7 c0 -0.8 1.4 -2.4 3 -3.7 3 -2.2 3.9 -3.8 2.1 -3.8 -1.7 0 -8.3 6.9 -7.6 8 0.9 1.5 2.5 1.2 2.5 -0.5z m17.5 -15.4 c-0.8 -1.3 -3.5 -1.5 -3.5 -0.2 0 0.5 0.8 1.1 1.8 1.3 2.1 0.5 2.6 0.2 1.7 -1.1z m76.5 -4.6 c0 -0.8 -0.6 -1.5 -1.4 -1.5 -1.7 0 -2.8 1.4 -1.9 2.4 1.2 1.2 3.3 0.6 3.3 -0.9z m73 -1 c0 -0.8 -0.7 -1.5 -1.5 -1.5 -1.6 0 -2 1.2 -0.8 2.3 1.1 1.2 2.3 0.8 2.3 -0.8z m-125.5 -1.5 c0.4 -0.6 -0.8 -1 -2.9 -1 -2 0 -3.6 0.5 -3.6 1 0 0.6 1.3 1 2.9 1 1.7 0 3.3 -0.4 3.6 -1z m118.1 -4.7 c-1.1 -1.1 -1.9 0.6 -1.1 2.4 0.8 1.7 0.8 1.7 1.2 0 0.3 -1 0.2 -2.1 -0.1 -2.4z m-12.2 -20.2 c0.3 -0.5 -0.1 -1.1 -0.9 -1.5 -0.9 -0.3 -1.5 0 -1.5 0.9 0 1.6 1.6 2 2.4 0.6z m-22.4 -15.5 c-1.4 -1.4 -2.4 0 -1.6 2.1 0.6 1.5 0.8 1.5 1.6 0.3 0.6 -0.9 0.5 -1.9 0 -2.4z m-8 -3.5 c0 -1.5 -2.3 -1.9 -4.7 -0.8 -2.2 1 -2.9 2.7 -1.7 4 0.8 0.8 6.4 -2 6.4 -3.2z"/>
 </g>
 <g fill="#f0f3f2">
  <path d="M950.5 722.1 c-0.3 -0.2 -5.3 -0.7 -11.2 -1.2 -22.8 -1.9 -37.4 -4.5 -47.1 -8.5 -1.8 -0.8 -3.9 -1.4 -4.8 -1.4 -0.8 0 -5.3 -1.8 -9.9 -4.1 -4.7 -2.2 -10.1 -4.3 -12 -4.6 -1.9 -0.3 -3.5 -0.9 -3.5 -1.4 0 -1 -8.7 -4.9 -11 -4.9 -0.9 0 -2.7 -1.1 -3.9 -2.4 -1.3 -1.4 -2.9 -2.2 -3.7 -1.9 -0.8 0.3 -1.4 0 -1.4 -0.6 0 -1.7 -5.9 -4.9 -7.9 -4.4 -1.3 0.3 -2 -0.2 -2.4 -1.7 -0.3 -1.2 -1 -1.9 -1.6 -1.5 -0.6 0.3 -1.1 0.2 -1.1 -0.4 0 -1 -3.8 -2.7 -5.2 -2.3 -0.5 0.1 -0.8 -0.3 -0.8 -0.8 0 -2 -8.9 -10 -10.5 -9.4 -0.8 0.3 -1.5 0.1 -1.5 -0.5 0 -1.5 -7.7 -8.9 -10.2 -9.7 -2.9 -0.9 -5.7 -3.5 -7.5 -6.8 -2.3 -4.3 -16.5 -19.6 -18.2 -19.6 -0.6 0 -1.1 -0.9 -1.1 -1.9 0 -1 -0.7 -2.1 -1.5 -2.5 -0.8 -0.3 -1.5 -1.5 -1.5 -2.6 0 -1.4 -0.6 -2 -1.7 -1.8 -1.2 0.2 -1.8 -0.3 -1.8 -1.7 0 -1.1 -0.2 -2.2 -0.5 -2.5 -0.3 -0.3 -1.1 -1.6 -1.8 -3 -0.7 -1.4 -3 -5.4 -5.2 -9 -2.2 -3.6 -5.1 -8.8 -6.4 -11.7 -1.4 -2.8 -3 -5.4 -3.5 -5.8 -0.6 -0.3 -1.1 -1.6 -1.1 -2.8 0 -1.2 -1.2 -4 -2.5 -6.2 -2.7 -4.3 -3.3 -9 -1.2 -9.8 0.7 -0.3 0.5 -0.6 -0.5 -0.6 -1 -0.1 -1.8 -0.7 -1.8 -1.5 0 -0.7 -0.6 -1.9 -1.4 -2.5 -1.1 -0.9 -1.2 -0.7 -0.9 1.3 0.6 2.9 -1 4.1 -2.8 2 -1.1 -1.3 -1 -2.1 0.5 -4.9 1.2 -2.1 1.5 -4.1 1.1 -5.5 -0.5 -1.5 -0.2 -2.6 0.6 -3.1 1.1 -0.7 1.1 -0.9 -0.2 -0.9 -1.5 0 -3.9 -6.2 -3.9 -9.9 0 -2.6 2.9 -0.8 3.5 2.2 1.6 7.3 8.7 27.5 13.1 37.4 11.8 26.5 27.5 48.8 48.8 69.7 12.1 11.8 12.1 11.8 12.6 -120 0.6 -146.4 -0.1 -132.9 7.2 -146.5 6.3 -11.9 20.3 -21 35.5 -23 5.3 -0.7 26 -0.9 60 -0.6 47.4 0.4 52.6 0.6 61.3 2.5 34.4 7.4 63.2 25.3 82.8 51.5 24.8 33.1 33.3 73.6 23.7 113.5 -1.5 6.1 -3.1 11.2 -3.6 11.2 -0.6 0 -0.8 0.4 -0.5 0.8 0.8 1.3 -2.9 10.4 -8.1 20.3 -6.2 11.9 -15.8 24.3 -26.5 34.3 -42 39.7 -104.2 48.4 -156 22 -2.8 -1.5 -2.8 -1.5 -2.8 42.4 0 43.9 0 43.9 8.8 46.5 13.7 4.1 24.3 5.9 47.7 8.4 3.9 0.5 45.7 0.6 93 0.3 86 -0.5 86 -0.5 92.6 -3.1 3.7 -1.4 8.8 -3.8 11.5 -5.4 6.4 -3.7 16 -12.9 19.1 -18.3 2.4 -4.1 3.8 -4.5 4.5 -1.2 0.2 0.8 -0.5 1.4 -1.6 1.5 -1 0 -2.4 0.9 -3 1.9 -2 3.5 -3 4.8 -8.1 9.7 -2.7 2.7 -6.2 5.4 -7.7 6 -1.6 0.6 -2.8 1.5 -2.8 1.9 0 0.4 -1.9 1.5 -4.2 2.5 -2.4 0.9 -5.4 2.2 -6.8 2.7 -8.2 3.4 -18 3.8 -98.8 4.1 -44.2 0.1 -80.5 0 -80.7 -0.2z m-69.9 -94.8 c-1.1 -1.1 -1.7 0.4 -0.9 2.3 0.7 1.8 0.8 1.8 1.1 0.1 0.2 -1 0.1 -2.1 -0.2 -2.4z m83.9 -0.3 c0.4 -0.6 -0.7 -1 -2.4 -1 -1.7 0 -3.1 0.5 -3.1 1 0 0.6 1.1 1 2.4 1 1.4 0 2.8 -0.4 3.1 -1z m26 -3 c0.3 -0.4 -0.6 -1.1 -1.9 -1.4 -3 -0.7 -8.6 1.1 -6.8 2.3 1.4 0.9 8 0.2 8.7 -0.9z m-77 0 c0.3 -0.5 -0.3 -1 -1.5 -1 -1.2 0 -1.8 0.5 -1.5 1 0.3 0.6 1 1 1.5 1 0.5 0 1.2 -0.4 1.5 -1z m-18.1 -7.3 c-0.7 -1.9 -2 -2.2 -2.9 -0.7 -0.9 1.5 1.6 4.3 2.7 3.2 0.5 -0.5 0.6 -1.6 0.2 -2.5z m119.6 0.3 c0 -0.5 -0.3 -1 -0.7 -1.1 -0.5 0 -1.6 -0.2 -2.6 -0.4 -1.5 -0.3 -1.6 -0.1 -0.6 1.1 1.3 1.6 3.9 1.9 3.9 0.4z m-100.6 -48.6 c2.5 -0.9 1.9 -2.4 -0.9 -2.4 -2.4 0 -3.2 1 -1.8 2.3 0.8 0.8 0.8 0.8 2.7 0.1z m22.1 -0.4 c-0.3 -0.5 -1.5 -1 -2.6 -1 -1 0 -1.9 0.5 -1.9 1 0 0.6 1.2 1 2.6 1 1.4 0 2.3 -0.4 1.9 -1z m41.1 -1.3 c0.4 -0.4 -0.2 -0.7 -1.4 -0.7 -1.2 0 -2.2 0.4 -2.2 0.9 0 1 2.6 0.9 3.6 -0.2z m-8.4 -1.6 c28.6 -7.3 48.8 -33.3 48.8 -62.6 0 -25.7 -13.6 -47.7 -36.4 -58.8 -10.1 -4.9 -17.7 -6.7 -28.8 -6.7 -28.3 0 -53.1 17.7 -62.5 44.6 -2.3 6.8 -2.7 9.5 -2.7 19.9 -0.1 10.6 0.2 13 2.8 20.9 5.4 16.4 17.5 30.4 32.9 38.2 12.4 6.4 31.4 8.2 45.9 4.5z m108.4 -15.8 c-0.3 -0.3 -1.3 -0.2 -2.3 0.2 -1.7 0.7 -1.7 0.8 0.2 1.5 1.9 0.7 3.4 -0.5 2.1 -1.7z m-2.6 -14.9 c0 -2.1 -0.4 -3.3 -1 -2.9 -0.5 0.3 -1 1.9 -1 3.6 0 1.6 0.5 2.9 1 2.9 0.6 0 1 -1.6 1 -3.6z m-185.7 -0.4 c-0.3 -1 -1.1 -2.5 -1.9 -3.1 -1.1 -0.9 -1.4 -0.7 -1.4 1.3 0 2.5 1.8 5 3.1 4.3 0.4 -0.3 0.5 -1.4 0.2 -2.5z m-5.8 -8 c0.3 -0.5 -0.1 -2 -0.9 -3.2 -0.9 -1.2 -1.6 -3.3 -1.6 -4.5 0 -1.3 -0.4 -2.3 -1 -2.3 -1.4 0 -1.3 3.6 0.2 7.7 1.2 3.4 2.2 4.1 3.3 2.3z m137.3 -8.8 c0.4 -2.5 -1.3 -3 -2.2 -0.6 -0.9 2.5 -0.7 3.6 0.7 3.2 0.6 -0.3 1.3 -1.4 1.5 -2.6z m-135.8 -42.1 c0 -1 -0.7 -2.4 -1.5 -3.1 -1.2 -1 -1.5 -0.9 -1.5 0.8 0 2.9 1.1 5.3 2.1 4.6 0.5 -0.3 0.9 -1.3 0.9 -2.3z m194.8 -1.9 c0.3 -2.7 0 -3.2 -1.9 -3.2 -1.7 0 -2 0.4 -1.5 2.3 0.3 1.2 0.6 2.8 0.6 3.5 0 2.8 2.5 0.4 2.8 -2.6z m-60.8 -8.3 c0 -1 -0.7 -1.9 -1.5 -1.9 -1.5 0 -2.1 3.1 -0.9 4.3 1.1 1 2.4 -0.3 2.4 -2.4z m-127 -1 c0 -0.5 -0.7 -0.9 -1.5 -0.9 -0.9 0 -1.5 0.9 -1.5 2.1 0 1.8 0.2 1.9 1.5 0.9 0.8 -0.7 1.5 -1.6 1.5 -2.1z m185.2 -5.8 c-0.2 -1.6 -1.3 -3.8 -2.3 -4.7 -1.8 -1.6 -1.9 -1.6 -1.9 1.5 0 1.9 0.6 3.4 1.5 3.7 0.8 0.4 1.5 1.3 1.5 2.1 0 0.8 0.4 1.2 0.8 0.9 0.5 -0.3 0.7 -1.9 0.4 -3.5z m-69.2 0.1 c0 -1.3 -5.1 -5.4 -5.8 -4.7 -0.4 0.4 0.1 1.1 1.1 1.6 0.9 0.6 1.7 1.7 1.7 2.4 0 0.8 0.7 1.5 1.5 1.5 0.8 0 1.5 -0.4 1.5 -0.8z m-111 -3.7 c0 -0.8 1.4 -2.4 3 -3.7 3 -2.2 3.9 -3.8 2.1 -3.8 -1.7 0 -8.3 6.9 -7.6 8 0.9 1.5 2.5 1.2 2.5 -0.5z m17.5 -15.4 c-0.8 -1.3 -3.5 -1.5 -3.5 -0.2 0 0.5 0.8 1.1 1.8 1.3 2.1 0.5 2.6 0.2 1.7 -1.1z m76.5 -4.6 c0 -0.8 -0.6 -1.5 -1.4 -1.5 -1.7 0 -2.8 1.4 -1.9 2.4 1.2 1.2 3.3 0.6 3.3 -0.9z m73 -1 c0 -0.8 -0.7 -1.5 -1.5 -1.5 -1.6 0 -2 1.2 -0.8 2.3 1.1 1.2 2.3 0.8 2.3 -0.8z m-125.5 -1.5 c0.4 -0.6 -0.8 -1 -2.9 -1 -2 0 -3.6 0.5 -3.6 1 0 0.6 1.3 1 2.9 1 1.7 0 3.3 -0.4 3.6 -1z m118.1 -4.7 c-1.1 -1.1 -1.9 0.6 -1.1 2.4 0.8 1.7 0.8 1.7 1.2 0 0.3 -1 0.2 -2.1 -0.1 -2.4z m-12.2 -20.2 c0.3 -0.5 -0.1 -1.1 -0.9 -1.5 -0.9 -0.3 -1.5 0 -1.5 0.9 0 1.6 1.6 2 2.4 0.6z m-22.4 -15.5 c-1.4 -1.4 -2.4 0 -1.6 2.1 0.6 1.5 0.8 1.5 1.6 0.3 0.6 -0.9 0.5 -1.9 0 -2.4z m-8 -3.5 c0 -1.5 -2.3 -1.9 -4.7 -0.8 -2.2 1 -2.9 2.7 -1.7 4 0.8 0.8 6.4 -2 6.4 -3.2z"/>
  <path d="M1144.2 714.9 c0.2 -0.7 1 -1.5 1.7 -1.7 0.8 -0.3 1.2 0.1 0.9 0.9 -0.2 0.7 -1 1.5 -1.7 1.7 -0.8 0.3 -1.2 -0.1 -0.9 -0.9z"/>
  <path d="M1163.5 686.3 c3.4 -8.1 4.6 -12.2 5.4 -19 0.6 -4.5 1 -40.2 1 -84.7 0.1 -42.3 0.3 -77.1 0.6 -77.4 0.2 -0.3 0.5 34.3 0.6 76.9 0.1 42.6 0.2 78.5 0.2 79.9 0.1 6.5 -5.8 26 -7.9 26 -0.4 0 -0.3 -0.8 0.1 -1.7z"/>
  <path d="M805.2 669.9 c0.2 -0.6 0.8 -1 1.3 -1 0.5 0 1.1 0.4 1.3 1 0.2 0.6 -0.4 1.1 -1.3 1.1 -0.9 0 -1.5 -0.5 -1.3 -1.1z"/>
  <path d="M527.2 604.3 c-0.1 -28.2 0.1 -51.3 0.6 -51.3 0.6 0 0.6 38.3 -0.1 84.5 -0.1 9.9 -0.3 -5.1 -0.5 -33.2z"/>
  <path d="M1743.4 624.9 c-0.8 -1.3 2.5 -2.4 3.7 -1.2 0.7 0.7 0.3 1.2 -1 1.6 -1.2 0.3 -2.4 0.1 -2.7 -0.4z"/>
  <path d="M1334.5 605 c2.8 -1.2 5.5 -1.2 5.5 0 0 0.6 -1.7 1 -3.7 0.9 -3.1 0 -3.4 -0.2 -1.8 -0.9z"/>
  <path d="M1818 604.7 c0 -1.8 3.7 -1.9 4.4 -0.1 0.4 1 -0.2 1.4 -1.9 1.4 -1.4 0 -2.5 -0.6 -2.5 -1.3z"/>
  <path d="M1834 602 c0 -0.5 0.7 -1 1.5 -1 0.8 0 1.5 0.5 1.5 1 0 0.6 -0.7 1 -1.5 1 -0.8 0 -1.5 -0.4 -1.5 -1z"/>
  <path d="M1355.5 601 c-0.3 -0.5 0.1 -1 0.9 -1 0.8 0 1.8 0.5 2.1 1 0.3 0.6 -0.1 1 -0.9 1 -0.8 0 -1.8 -0.4 -2.1 -1z"/>
  <path d="M1840 593.2 c0 -1.5 0.4 -2 1.6 -1.5 0.9 0.3 1.2 0.9 0.7 1.2 -0.4 0.3 -1.1 1 -1.5 1.5 -0.5 0.5 -0.8 0 -0.8 -1.2z"/>
  <path d="M1777.1 578.3 c0 -0.6 -0.4 -2 -0.7 -3 -0.5 -1.4 -0.4 -1.5 0.5 -0.7 0.7 0.7 1.1 2 0.8 3 -0.3 1.1 -0.5 1.4 -0.6 0.7z"/>
  <path d="M734.4 540.4 c-0.5 -2.6 -0.3 -3.9 0.7 -4.5 1.2 -0.7 1.1 -0.9 -0.1 -0.9 -1.6 0 -4 -4.3 -4 -7.1 0 -1 0.7 -2.4 1.5 -3.2 1.3 -1.3 1.2 -1.6 -0.8 -2.1 -2.2 -0.5 -2.2 -0.5 -1.9 -94.7 0.2 -83.4 0.1 -94.1 -1.2 -93.6 -1.9 0.7 -2.8 -0.6 -2 -2.7 0.6 -1.5 0.8 -1.5 1.9 0.1 1.1 1.5 1.5 1 2.9 -4 1.2 -4 2.2 -5.7 3.4 -5.8 1 0 1.2 -0.3 0.5 -0.6 -1.8 -0.7 -1.6 -2.9 0.4 -6.1 2.4 -3.6 3.9 -5.2 5.2 -5.2 1.7 0 1.4 1.4 -1.8 8.2 -5.8 12.3 -5.5 7.7 -5.7 100.8 -0.2 88.6 0.3 106.6 3.7 118.2 1.3 4.7 1.1 6.8 -0.6 6.8 -0.8 0 -1.7 -1.4 -2.1 -3.6z"/>
  <path d="M320 525.6 c0 -0.9 0.7 -1.2 2 -0.9 3.1 0.8 3.4 2.3 0.6 2.3 -1.6 0 -2.6 -0.6 -2.6 -1.4z"/>
  <path d="M722.6 511.8 c-1 -3.9 -0.7 -15.8 0.4 -15.8 0.7 0 1 2.8 0.8 7.3 -0.2 3.9 0.1 8 0.6 9 0.5 1 0.4 1.7 -0.2 1.7 -0.5 0 -1.2 -1 -1.6 -2.2z"/>
  <path d="M1574.5 513.1 c-1.7 -0.7 -1.5 -0.9 1.2 -1.3 2.6 -0.4 3 -0.2 2.2 0.9 -0.7 0.7 -1.2 1.3 -1.3 1.2 0 0 -1 -0.4 -2.1 -0.8z"/>
  <path d="M101 512 c0 -0.5 0.9 -1 2 -1 1.1 0 2 0.5 2 1 0 0.6 -0.9 1 -2 1 -1.1 0 -2 -0.4 -2 -1z"/>
  <path d="M335.6 511.9 c0.3 -0.6 0 -1.5 -0.7 -2 -1 -0.6 -0.8 -0.9 0.9 -0.9 2 0 2.1 0.3 1.2 2 -0.6 1.1 -1.3 2 -1.6 2 -0.3 0 -0.2 -0.5 0.2 -1.1z"/>
  <path d="M578 512 c0 -0.5 0.7 -1 1.5 -1 0.8 0 1.5 0.5 1.5 1 0 0.6 -0.7 1 -1.5 1 -0.8 0 -1.5 -0.4 -1.5 -1z"/>
  <path d="M107 511 c0 -0.5 0.7 -1 1.5 -1 0.8 0 1.5 0.5 1.5 1 0 0.6 -0.7 1 -1.5 1 -0.8 0 -1.5 -0.4 -1.5 -1z"/>
  <path d="M583 511 c0 -0.5 0.7 -1 1.5 -1 0.8 0 1.5 0.5 1.5 1 0 0.6 -0.7 1 -1.5 1 -0.8 0 -1.5 -0.4 -1.5 -1z"/>
  <path d="M1169.1 490.5 c-0.3 -4.6 -0.5 -6.3 -2.7 -20 -6.8 -44 -29.3 -87.4 -61.9 -120 -37.6 -37.6 -85.7 -60.4 -137.9 -65.4 -6.8 -0.7 -43.3 -1.1 -95.6 -1.1 -81.6 0 -85 0.1 -92.6 2 -10.7 2.8 -21.2 9 -28.8 17 -4.4 4.7 -6.5 6.3 -7.3 5.6 -2 -2 3.2 -9.7 9.2 -13.6 3 -1.9 5.4 -3.8 5.5 -4.2 0 -0.4 -0.9 -1 -2 -1.3 -2.4 -0.8 -1.7 -2.5 1.1 -2.5 1 0 1.9 0.7 1.9 1.5 0 1.1 1.5 0.7 6.3 -1.7 3.4 -1.7 7.5 -3.7 9 -4.4 2.3 -1.1 21.3 -1.3 102.5 -1.1 90.5 0.3 100.2 0.4 105.5 2 3.2 0.9 6.8 1.7 8.1 1.7 1.3 0 4.6 0.6 7.2 1.4 2.7 0.8 7.6 2 10.9 2.7 3.3 0.7 6.5 1.6 7 2 0.6 0.4 2.7 1 4.8 1.4 2 0.4 3.7 1.1 3.7 1.6 0 0.5 1 0.9 2.3 0.9 1.3 0 2.8 0.5 3.3 1 0.6 0.6 2.5 1.4 4.2 1.9 2.8 0.8 3.2 0.7 3.2 -0.9 0 -1.3 0.5 -1.8 1.6 -1.3 0.8 0.3 1.3 1.2 0.9 2.1 -0.8 2.2 1.4 4.2 4.6 4.2 1.8 0 3.2 0.7 3.9 2 0.7 1.4 2.1 2 4.4 2 2.5 0 3.5 0.5 3.9 2 0.3 1.4 1.4 2 3.1 2 1.9 0 3 0.8 3.8 2.6 1.1 2.3 1.7 2.5 5.1 2.1 3.1 -0.4 3.6 -0.3 2.7 0.8 -1.7 2 -0.2 3.7 2.8 3.5 5.1 -0.4 5.6 -0.2 4.2 1.5 -2 2.4 0.3 4.4 3.1 2.7 2.6 -1.7 4.1 -0.7 3.3 2.3 -0.5 2 0.1 2.6 4.6 4.7 3.7 1.7 5 2.8 4.7 4 -0.5 1.6 3.4 5.8 5.3 5.8 0.6 0 1 0.5 1 1 0 0.6 0.4 1 0.9 1 1.7 0 11.6 10.1 11.6 11.8 0 0.9 0.8 1.8 1.8 2 0.9 0.2 1.7 -0.1 1.7 -0.7 0 -0.6 0.5 -1.1 1 -1.1 0.6 0 0.9 1.3 0.8 2.9 -0.1 1.8 0.6 3.9 1.7 5.2 1.1 1.3 2.7 3.1 3.5 4.1 0.8 1 2.5 2.9 3.8 4.2 1.2 1.3 2.2 2.8 2.2 3.4 0 0.6 1.8 2.9 4 5.2 2.4 2.5 4 5.1 4 6.6 0 2.4 2.3 3.3 3.5 1.4 0.4 -0.7 1.3 -0.7 2.6 0 2.5 1.4 2.4 3 -0.1 3.7 -1.1 0.3 -2 0.7 -2 1 0 1.5 3.6 6.3 4.7 6.3 0.7 0 1.3 1.2 1.3 2.8 0 1.5 0.9 4.2 2 6 1.1 1.8 2 4.1 2 5.2 0 1 0.4 2.2 1 2.5 1 0.6 6 10.9 6 12.4 0 1.6 3.8 12.6 5.4 15.6 0.9 1.7 1.3 3.8 1 4.7 -0.3 1 0 2.8 0.7 4 1.6 3 4.9 19.2 4.9 24.1 0 3 0.4 4 2 4.4 2 0.5 2.8 2.3 1.1 2.3 -0.4 0 -1.3 2.8 -1.8 6.3 -0.9 5.6 -1 5.8 -1.2 2.2z"/>
  <path d="M1293.3 476.5 c0 -0.8 0.9 -1.5 2 -1.5 1 0 1.7 0.5 1.5 1.3 -0.7 1.8 -3.5 2 -3.5 0.2z"/>
  <path d="M1299 474.5 c0 -1.7 3.9 -3 5.1 -1.8 0.5 0.5 -0.4 1.3 -2.1 2 -2.4 0.9 -3 0.9 -3 -0.2z"/>
  <path d="M193.3 468.5 c0 -2.7 0.2 -3.8 0.4 -2.2 0.2 1.5 0.2 3.7 0 5 -0.2 1.2 -0.4 0 -0.4 -2.8z"/>
  <path d="M1788.6 471.5 c0.6 -1.4 5.3 -3 6.2 -2 0.8 0.8 -0.2 1.5 -3.6 2.4 -2.4 0.7 -3 0.6 -2.6 -0.4z"/>
  <path d="M1311 470.5 c0 -0.8 0.7 -1.5 1.5 -1.5 0.8 0 1.5 0.4 1.5 0.9 0 0.5 -0.7 1.1 -1.5 1.5 -0.9 0.3 -1.5 0 -1.5 -0.9z"/>
  <path d="M669.2 468 c0 -1.9 0.2 -2.7 0.5 -1.7 0.2 0.9 0.2 2.5 0 3.5 -0.3 0.9 -0.5 0.1 -0.5 -1.8z"/>
  <path d="M1796 469 c0 -0.5 0.7 -1 1.5 -1 0.8 0 1.5 0.5 1.5 1 0 0.6 -0.7 1 -1.5 1 -0.8 0 -1.5 -0.4 -1.5 -1z"/>
  <path d="M1801 468 c0 -0.5 0.7 -1 1.5 -1 0.8 0 1.5 0.5 1.5 1 0 0.6 -0.7 1 -1.5 1 -0.8 0 -1.5 -0.4 -1.5 -1z"/>
  <path d="M1328 466.6 c0 -0.9 0.7 -1.2 2 -0.9 1.1 0.3 2 0.9 2 1.4 0 0.5 -0.9 0.9 -2 0.9 -1.1 0 -2 -0.6 -2 -1.4z"/>
  <path d="M1809 466.5 c0 -1.7 0.2 -1.8 2.4 -0.9 2.3 0.9 2 2.4 -0.4 2.4 -1.1 0 -2 -0.7 -2 -1.5z"/>
  <path d="M1293.5 419 c0 -25 0.1 -35.3 0.2 -22.8 0.2 12.6 0.2 33 0 45.5 -0.1 12.6 -0.2 2.3 -0.2 -22.7z"/>
  <path d="M1158.7 417.6 c-0.3 -0.8 -0.2 -1.8 0.3 -2.1 1.3 -0.8 2.4 1.5 1.2 2.7 -0.6 0.6 -1.1 0.4 -1.5 -0.6z"/>
  <path d="M1500 404 c-1.3 -0.8 -1.2 -1 0.4 -1 1.1 0 3.1 -1 4.5 -2.2 2.1 -1.9 2 -1.7 -0.3 1 -1.7 1.7 -3 3.2 -3 3.2 -0.1 0 -0.8 -0.5 -1.6 -1z"/>
  <path d="M380.6 394.5 c-2 -1.6 -2.4 -2.3 -1.3 -2.1 1 0.1 2.4 1.2 3.3 2.4 1.9 2.8 1.6 2.7 -2 -0.3z"/>
  <path d="M44.9 388.7 c0.5 -1.2 1.8 -2.3 3 -2.5 3 -0.5 2.6 1 -0.8 3 -2.9 1.6 -3 1.6 -2.2 -0.5z"/>
  <path d="M525.7 385.9 c0.3 -1 1.2 -1.9 1.9 -1.9 2 0 1.7 1.3 -0.5 2.7 -1.6 1 -1.8 0.9 -1.4 -0.8z"/>
  <path d="M139.4 385.6 c-1 -0.8 -1.6 -1.8 -1.1 -2.2 0.4 -0.4 0.7 -0.2 0.7 0.5 0 0.7 0.4 1 0.9 0.7 0.5 -0.3 1.1 0.1 1.5 0.9 0.7 1.9 0.5 1.9 -2 0.1z"/>
  <path d="M283.6 383.2 c-0.7 -1.1 4.7 -3.7 11.6 -5.6 6.5 -1.8 6.8 -1.9 6.8 -0.8 0 0.4 -3.2 1.9 -7.1 3.2 -3.9 1.4 -7.3 2.8 -7.6 3.2 -0.6 1 -3.1 1 -3.7 0z"/>
  <path d="M1602.1 382.1 c-0.9 -0.6 -1 -1.1 -0.2 -1.5 0.6 -0.4 1.1 -0.2 1.1 0.4 0 0.6 0.5 0.8 1 0.5 0.6 -0.3 1 -0.1 1 0.4 0 1.3 -1 1.4 -2.9 0.2z"/>
  <path d="M1774.3 378 c0 -2.5 0.2 -3.5 0.4 -2.2 0.2 1.2 0.2 3.2 0 4.5 -0.2 1.2 -0.4 0.2 -0.4 -2.3z"/>
  <path d="M1536 379.5 c0 -0.6 1.7 -1.7 3.9 -2.3 4.6 -1.4 5.1 -1.5 5.1 -0.3 0 0.5 -2 1.5 -4.5 2.3 -3.4 1.1 -4.5 1.2 -4.5 0.3z"/>
  <path d="M68 378.4 c0 -1.5 2.6 -1.9 3.4 -0.5 0.3 0.5 -0.3 1.1 -1.4 1.4 -1.3 0.3 -2 0 -2 -0.9z"/>
  <path d="M541 379 c0 -0.5 0.7 -1 1.5 -1 0.8 0 1.5 0.5 1.5 1 0 0.6 -0.7 1 -1.5 1 -0.8 0 -1.5 -0.4 -1.5 -1z"/>
  <path d="M547.7 377.4 c0.3 -0.8 1.1 -1.4 1.9 -1.4 2.1 0 1.7 1.7 -0.5 2.3 -1.4 0.3 -1.8 0.1 -1.4 -0.9z"/>
  <path d="M73 377 c0 -0.5 0.7 -1 1.5 -1 0.8 0 1.5 0.5 1.5 1 0 0.6 -0.7 1 -1.5 1 -0.8 0 -1.5 -0.4 -1.5 -1z"/>
  <path d="M77 376 c0 -0.5 0.9 -1 2 -1 1.1 0 2 0.5 2 1 0 0.6 -0.9 1 -2 1 -1.1 0 -2 -0.4 -2 -1z"/>
  <path d="M111 376 c1.9 -1.3 3 -1.3 3 0 0 0.6 -1 1 -2.2 1 -1.9 0 -2 -0.2 -0.8 -1z"/>
  <path d="M304 376 c0 -0.5 0.7 -1 1.5 -1 0.8 0 1.5 0.5 1.5 1 0 0.6 -0.7 1 -1.5 1 -0.8 0 -1.5 -0.4 -1.5 -1z"/>
  <path d="M553 376 c0 -0.5 0.9 -1 2 -1 1.1 0 2 0.5 2 1 0 0.6 -0.9 1 -2 1 -1.1 0 -2 -0.4 -2 -1z"/>
  <path d="M1547 376 c0 -0.5 0.7 -1 1.5 -1 0.8 0 1.5 0.5 1.5 1 0 0.6 -0.7 1 -1.5 1 -0.8 0 -1.5 -0.4 -1.5 -1z"/>
  <path d="M85.2 374.8 c0.8 -2.4 19.8 -2.2 19.8 0.2 0 0.6 -4.3 1 -10.1 1 -7.6 0 -10 -0.3 -9.7 -1.2z"/>
  <path d="M309 375 c0 -0.5 0.9 -1 2 -1 1.1 0 2 0.5 2 1 0 0.6 -0.9 1 -2 1 -1.1 0 -2 -0.4 -2 -1z"/>
  <path d="M560.3 374.8 c0.3 -0.9 3.4 -1.3 11.2 -1.3 7.8 0 11 0.4 11.3 1.3 0.3 0.9 -2.4 1.2 -11.3 1.2 -8.9 0 -11.6 -0.3 -11.2 -1.2z"/>
  <path d="M1552 374.6 c0 -0.9 0.7 -1.2 2 -0.9 1.1 0.3 2 0.9 2 1.4 0 0.5 -0.9 0.9 -2 0.9 -1.1 0 -2 -0.6 -2 -1.4z"/>
  <path d="M319 374 c0 -0.5 1.8 -1 4 -1 2.2 0 4 0.5 4 1 0 0.6 -1.8 1 -4 1 -2.2 0 -4 -0.4 -4 -1z"/>
  <path d="M1568 374 c0 -0.5 1.1 -1 2.5 -1 1.4 0 2.5 0.5 2.5 1 0 0.6 -1.1 1 -2.5 1 -1.4 0 -2.5 -0.4 -2.5 -1z"/>
  <path d="M1242.3 372.8 c0.3 -1 6.1 -1.3 24.7 -1.3 18.6 0 24.4 0.3 24.8 1.3 0.3 0.9 -5.1 1.2 -24.8 1.2 -19.7 0 -25.1 -0.3 -24.7 -1.2z"/>
  <path d="M1723.2 372.8 c0.4 -1 5.3 -1.4 18.9 -1.6 19.4 -0.4 30.9 0.3 30.9 1.9 0 0.5 -10.5 0.9 -25.1 0.9 -19.6 0 -25 -0.3 -24.7 -1.2z"/>
  <path d="M1129.5 371.9 c-0.4 -0.6 -0.5 -1.3 -0.2 -1.6 0.7 -0.7 2.7 0.6 2.7 1.8 0 1.2 -1.7 1.2 -2.5 -0.2z"/>
  <path d="M1034 289 c0 -0.5 0.9 -1 1.9 -1 1.1 0 2.3 0.5 2.6 1 0.4 0.6 -0.5 1 -1.9 1 -1.4 0 -2.6 -0.4 -2.6 -1z"/>
 </g>
</svg>