<?xml version="1.0" encoding="UTF-8"?>
<svg width="975px" height="256px" viewBox="0 0 975 256" version="1.1" xmlns="http://www.w3.org/2000/svg" xmlns:xlink="http://www.w3.org/1999/xlink">
    <!-- Generator: Sketch 55.2 (78181) - https://sketchapp.com -->
    <title>Group 2</title>
    <desc>Created with Sketch.</desc>
    <g id="Page-1" stroke="none" stroke-width="1" fill="none" fill-rule="evenodd">
        <g id="Group-2">
            <g id="pancakeswap">
                <path d="M45.443,40.014 C43.0898978,27.4075147 48.0720893,14.5549347 58.3072032,6.82816254 C68.542317,-0.898609616 82.2680838,-2.1691879 93.7476415,3.54748236 C105.227199,9.26415262 112.484012,20.9837822 112.485,33.808 L112.485,75.488 C117.155667,75.1586667 121.896333,74.992 126.707,74.988 C131.324333,74.988 135.881333,75.1416667 140.378,75.449 L140.378,33.808 C140.378988,20.9837822 147.635801,9.26415262 159.115359,3.54748236 C170.594916,-2.1691879 184.320683,-0.898609616 194.555797,6.82816254 C204.790911,14.5549347 209.773102,27.4075147 207.42,40.014 L198.271,89.007 C229.671,102.716 253.413,126.525 253.413,156.444 L253.413,174.544 C253.413,199.144 237.136,219.744 214.381,233.653 C191.449,247.668 160.427,256 126.707,256 C92.987,256 61.964,247.668 39.032,233.654 C16.277,219.749 0,199.149 0,174.545 L0,156.445 C0,126.685 23.5,102.967 54.634,89.231 L45.443,40.014 Z M186.543,95.444 L197.248,38.116 C198.882571,29.3657916 195.425166,20.4441008 188.321052,15.0803769 C181.216938,9.71665297 171.689497,8.83456967 163.721393,12.8028558 C155.75329,16.771142 150.716692,24.9064288 150.717,33.808 L150.717,86.849 C147.321667,86.4136667 143.874,86.0703333 140.374,85.819 C135.89,85.4983333 131.333,85.3363333 126.703,85.333 C121.888333,85.333 117.147667,85.5083333 112.481,85.859 C108.983,86.1196667 105.535333,86.4736667 102.138,86.921 L102.138,33.808 C102.138308,24.9064288 97.1017102,16.771142 89.1336067,12.8028558 C81.1655031,8.83456967 71.6380616,9.71665297 64.5339476,15.0803769 C57.4298337,20.4441008 53.9724292,29.3657916 55.607,38.116 L66.352,95.634 C32.773,108.107 10.343,130.675 10.343,156.444 L10.343,174.544 C10.343,213.818 62.443,245.655 126.707,245.655 C190.971,245.655 243.071,213.818 243.071,174.544 L243.071,156.444 C243.071,130.543 220.412,107.877 186.548,95.444 L186.543,95.444 Z" id="Path_20" fill="#633001"></path>
                <path d="M243.07,174.544 C243.07,213.818 190.97,245.655 126.706,245.655 C62.442,245.655 10.343,213.819 10.343,174.544 L10.343,156.444 L243.07,156.444 L243.07,174.544 Z" id="Path_21" fill="#FEDC90" fill-rule="nonzero"></path>
                <path d="M55.61,38.115 C53.9799535,29.3664696 57.4391115,20.4486853 64.5421683,15.0876762 C71.6452251,9.72666703 81.1696932,8.8451016 89.1360589,12.8113156 C97.1024246,16.7775296 102.139618,24.9089088 102.143,33.808 L102.143,86.92 C118.267518,84.8271725 134.593349,84.8029766 150.724,86.848 L150.724,33.808 C150.723692,24.9064288 155.76029,16.771142 163.728393,12.8028558 C171.696497,8.83456967 181.223938,9.71665297 188.328052,15.0803769 C195.432166,20.4441008 198.889571,29.3657916 197.255,38.116 L186.543,95.443 C220.407,107.876 243.066,130.543 243.066,156.443 C243.066,195.717 190.966,227.554 126.702,227.554 C62.438,227.554 10.343,195.718 10.343,156.443 C10.343,130.674 32.772,108.106 66.352,95.633 L55.61,38.115 Z" id="Path_22" fill="#D1884F"></path>
                <path d="M94.384,151.273 C94.384,161.984 88.595,170.667 81.455,170.667 C74.315,170.667 68.525,161.979 68.525,151.273 C68.525,140.567 74.314,131.879 81.454,131.879 C88.594,131.879 94.384,140.562 94.384,151.273 Z" id="Path_23" fill="#633001" fill-rule="nonzero"></path>
                <path d="M183.596,151.273 C183.596,161.984 177.808,170.667 170.667,170.667 C163.526,170.667 157.737,161.979 157.737,151.273 C157.737,140.567 163.525,131.879 170.666,131.879 C177.807,131.879 183.596,140.562 183.596,151.273 Z" id="Path_24" fill="#633001" fill-rule="nonzero"></path>
            </g>
            <g id="w6lzkF01" transform="translate(304.000000, 82.000000)" fill="#FFFFFF" fill-rule="nonzero">
                <g id="Group" transform="translate(335.600000, 46.000000) scale(-1, 1) rotate(-180.000000) translate(-335.600000, -46.000000) translate(0.100000, 0.500000)">
                    <path d="M428.18555,87.6067867 C408.938302,77.857645 412.990354,58.0270044 436.177098,48.1670769 C455.987132,39.6365779 453.285764,32.4355073 432.35016,37.6424353 C422.445143,40.0797207 421.43213,39.968935 417.717748,35.4267212 C410.739214,27.0070079 416.592178,22.0216513 436.739883,19.1412231 C475.684609,13.4911523 487.052867,46.6160771 451.484851,62.1260753 C439.10358,67.443789 437.190111,73.2046455 447.657913,73.2046455 C451.484851,73.2046455 456.43736,72.2075742 458.801057,70.9889315 C466.004706,67.2222176 473.996253,79.0762877 468.143289,84.9479299 C462.06521,90.9303578 437.865453,92.4813576 428.18555,87.6067867 Z" id="Shape"></path>
                    <path d="M1.60193916,85.6238248 C0.941631665,84.0705806 0.721529166,68.8709766 1.05168291,51.7852903 L1.71199041,20.8313522 L12.1668591,20.1656761 L22.6217277,19.5 L22.6217277,29.5960873 C22.6217277,39.6921747 22.6217277,39.6921747 30.4353664,39.6921747 C52.2255138,39.6921747 64.3311512,57.7763751 56.5175125,78.4123338 C52.9958725,87.6208531 4.79342539,93.9447759 1.60193916,85.6238248 Z M20.9,65.5 C20.9,74.9505495 21.2223953,75.5 26.8105796,75.5 C41.5332962,75.3901099 43.4676677,57.3681319 28.9598813,56.1593407 L20.9,55.5 L20.9,65.5 Z" id="Combined-Shape"></path>
                    <path d="M317.701354,68.5638622 C317.701354,47.2435475 319.732957,45.1002355 328.310835,57.0576607 C333.728442,64.8412676 336.211512,66.0821325 343.660722,66.1949384 L351.9,66.1949384 L347.27246,59.7650022 C344.789391,56.2680194 341.177652,52.0942011 339.258916,50.5149186 C334.292777,46.3411004 334.857111,44.0849824 343.660722,33.3684221 C353.367269,21.5238028 353.367269,18.8384177 343.660722,18.5 C336.888713,18.2743882 334.857111,22.5390559 328.197968,31.22511 C319.845824,42.1672821 317.701354,42.1672821 317.701354,30.9994982 C317.701354,22.3134441 317.701354,18.5 309.800677,18.5 L301.9,18.5 L301.9,55.1399604 L301.9,86.5 L309.800677,86.5 L317.701354,86.5 L317.701354,68.5638622 Z" id="Shape"></path>
                    <path d="M71.2380325,65.2907794 C51.2467234,52.1161502 56.8124856,17.8397846 78.8483605,18.509681 C82.9374919,18.6213304 93.1603204,18.8446292 101.565757,18.9562786 L116.9,19.067928 L116.9,42.2910031 L116.9,65.5140782 L109.74402,67.970365 C97.3630388,72.2130421 79.8706433,70.9848987 71.2380325,65.2907794 Z M82.0389312,53.3645816 C84.1255832,55.7117109 88.8785128,57.5 92.4721913,57.5 C101.05065,57.5 102.789526,37.158212 94.5588433,33.0227936 C81.9230061,26.4284777 71.9534464,42.7466153 82.0389312,53.3645816 Z" id="Combined-Shape"></path>
                    <path d="M123.46397,45.4212278 L124.140735,20.5 L134.292201,20.5 L144.443667,20.5 L145.120431,36.5603468 C145.458814,45.4212278 146.699548,52.6206936 147.940283,52.6206936 C149.068224,52.6206936 150.872929,52.8422156 151.775281,53.1744987 C152.677634,53.5067817 154.031163,46.3073159 154.595133,37.1141519 L155.723074,20.5 L165.87454,20.5 L176.026006,20.5 L176.70277,40.8800263 C177.266741,58.9340713 176.815564,61.8138577 172.754978,65.8012541 C167.566451,70.8962607 148.391459,72.2253928 143.992491,67.9057133 C142.30058,66.2442982 141.172639,66.2442982 140.044698,67.9057133 C139.25514,69.2348455 134.968965,70.3424556 130.682791,70.3424556 L122.9,70.3424556 L123.46397,45.4212278 Z" id="Shape"></path>
                    <path d="M192.002797,67.4106645 C182.826416,61.0528831 180.9,57.0792698 180.9,43.796048 C180.78722,21.3167497 199.593136,12.2342049 228.934897,20.522027 C233.126577,21.6573451 234.146175,29.3775082 230.860804,34.7135032 C229.388052,36.8706076 226.555836,37.3247348 220.551537,36.3029486 C208.429651,33.9187806 203.444951,36.3029486 203.444951,44.1366434 C203.444951,52.8785928 209.562538,56.1710153 219.41865,52.765061 C227.462145,49.9267657 232.9,53.9003791 232.9,62.6423284 C232.9,71.3842778 202.878507,74.9037639 192.002797,67.4106645 Z" id="Shape"></path>
                    <path d="M251.017146,68.2432988 C228.441252,56.1769689 232.071546,17.7225904 255.781907,18.5119765 C259.865989,18.7375153 270.189639,18.8502848 278.584695,18.9630542 L293.9,19.0758237 L293.9,41.4041725 C293.9,59.1089743 293.105873,64.2963685 290.269705,66.6645267 C285.164604,70.8369959 257.937395,71.9646903 251.017146,68.2432988 Z M259.185092,52.5961737 C261.313981,55.7167905 264.720203,57.5 268.765093,57.5 C277.493538,57.5 278.557983,36.770189 270.042426,32.7579675 C258.652869,27.2968882 251.308202,40.6709599 259.185092,52.5961737 Z" id="Combined-Shape"></path>
                    <path d="M564.017146,68.2432988 C541.441252,56.1769689 545.071546,17.7225904 568.781907,18.5119765 C572.865989,18.7375153 583.189639,18.8502848 591.584695,18.9630542 L606.9,19.0758237 L606.9,41.4041725 C606.9,59.1089743 606.105873,64.2963685 603.269705,66.6645267 C598.164604,70.8369959 570.937395,71.9646903 564.017146,68.2432988 Z M572.185092,52.5961737 C574.313981,55.7167905 577.720203,57.5 581.765093,57.5 C590.493538,57.5 591.557983,36.770189 583.042426,32.7579675 C571.652869,27.2968882 564.308202,40.6709599 572.185092,52.5961737 Z" id="Combined-Shape"></path>
                    <path d="M362.752554,63.9089679 C351.333073,52.4953294 352.576779,31.5891598 365.126901,23.3396983 C375.41574,16.559319 403.794845,17.0113443 408.091284,24.0177363 C410.578695,27.8599512 404.247102,37.9175139 400.40292,36.3354254 C392.488429,32.8322294 382.991039,32.8322294 380.051371,36.3354254 C377.450895,39.6126087 378.807665,39.9516277 394.071327,39.9516277 C413.292235,39.9516277 414.988198,41.4207098 411.370144,54.4164369 C406.169193,73.2884927 377.790087,78.9388088 362.752554,63.9089679 Z M376.481321,56.7617049 C382.677227,63.2009748 393.9,60.8925573 393.9,53.1168351 C393.9,49.3504696 392.146442,48.5 384.664593,48.5 C374.02634,48.5 371.220646,51.2944002 376.481321,56.7617049 Z" id="Shape"></path>
                    <path d="M475.164395,68.098184 C474.385446,66.7822868 475.386951,60.0931426 477.389962,53.1846821 C479.281695,46.1665636 482.174933,36.0780182 483.73283,30.5951131 C487.738852,16.2299017 504.541889,15.2429787 508.436633,29.1695577 L510.884757,37.7228897 L513.889274,28.6212672 C517.005069,19.3003285 532.70995,11.4151024 537.925405,30.5951131 C550.81735,78.0056673 549.9,69.6333975 537.925405,69.6333975 C528.97568,69.6333975 528.355464,68.5368165 526.352453,60.7510912 C523.904329,50.7722039 522.45771,50.4432296 519.119358,59.1062197 C515.113336,69.5237394 505.432116,67.7692097 501.203537,55.8164766 C499.756918,51.4301525 498.532856,50.3335715 497.865186,52.5267335 C497.308794,54.3909213 495.862175,58.7772454 494.749391,62.3959627 C492.635102,69.3044232 478.502746,73.361773 475.164395,68.098184 Z" id="Shape"></path>
                    <path d="M620.052442,66.5536537 L612.9,62.9024468 L613.450188,31.7012234 L614.110413,0.5 L624.013795,0.5 L633.917177,0.5 L634.577402,9.46205352 L635.237628,18.424107 L646.461461,18.424107 C665.718036,18.424107 676.611756,38.3397815 667.80875,57.5916002 C662.306872,69.6516476 636.338004,74.6305662 620.052442,66.5536537 Z M632.9,44.8873779 C632.9,57.1560194 633.007904,57.5 638.942616,57.5 C649.517193,57.5 655.236097,39.6130086 646.9275,32.2747557 C639.374231,25.6244641 632.9,31.3574741 632.9,44.8873779 Z" id="Shape"></path>
                </g>
            </g>
        </g>
    </g>
</svg>