<?xml version="1.0" encoding="utf-8"?>
<!-- Generator: Adobe Illustrator 25.1.0, SVG Export Plug-In . SVG Version: 6.00 Build 0)  -->
<svg version="1.1" id="Laag_1" xmlns="http://www.w3.org/2000/svg" xmlns:xlink="http://www.w3.org/1999/xlink" x="0px" y="0px"
	 viewBox="0 0 269.5 120" style="enable-background:new 0 0 269.5 120;" xml:space="preserve">
<style type="text/css">
	.st0{fill:none;}
	.st1{fill:#FFFFFF;}
</style>
<rect class="st0" width="269.5" height="120"/>
<g>
	<path class="st1" d="M129.7,68.6v10h-6.3v-27h5.2c0.3,0.7,0.6,1.5,1,2.5c0.4-0.4,0.6-0.6,0.8-0.9c2.1-2.5,5.9-2.7,8.4-0.6
		c0.4,0.4,0.8,0.8,1.1,1.3c1.7,2.6,2,5.5,1.6,8.4c-0.2,1.8-0.7,3.6-1.5,5.2c-2,3.7-6.5,4.3-9.7,1.6C130.2,69,130,68.8,129.7,68.6z
		 M135.2,60.9c-0.2-1.1-0.3-2.1-0.6-3.2c-0.2-0.8-1-1.4-1.9-1.4c-1,0-1.9,0.1-2.3,1.1c-0.9,2.2-0.9,4.7,0,7c0.4,0.9,1.3,1.2,2.2,1.2
		c0.9,0,1.7-0.6,1.9-1.5C134.9,63.1,135,61.9,135.2,60.9L135.2,60.9z"/>
	<path class="st1" d="M208.6,70.4h-7.4l-4.2-6.8l-2.2,1.6v5.1h-6.5V44.5h6.3v15c2-2.6,4.1-5.3,6.2-8h7.3l-6.5,8
		C203.9,63.1,206.2,66.7,208.6,70.4z"/>
	<path class="st1" d="M88.4,70.4c-0.4,0-0.6,0.1-0.8,0.1c-1.8,0-3.6,0-5.5,0V51.6h4.8l0.9,2.4c0.3-0.2,0.5-0.2,0.6-0.4
		c1.8-2.8,7.2-2.9,9.6-1.2c1.5,1,2.4,2.6,2.4,4.3c0.1,4.5,0,9.1,0,13.7H94c0-0.4-0.1-0.8-0.1-1.3c0-3.4,0-6.8-0.2-10.3
		c-0.1-1.8-0.8-2.5-2-2.6c-1.5-0.1-2.6,0.6-3,2.3c-0.3,1.2-0.4,2.5-0.4,3.7C88.3,65,88.4,67.7,88.4,70.4z"/>
	<path class="st1" d="M167.6,52.7c1.9-0.5,3.7-1,5.5-1.3c2.1-0.3,4.3-0.4,6.4,0.3c2.4,0.8,4,2.6,4.1,5.1c0.2,4.5,0.1,9,0.1,13.5
		h-4.4l-1.3-2.6c-0.4,0.4-0.6,0.7-0.9,1c-2,2-5.8,2.7-8.3,1.3c-0.9-0.5-1.7-1.2-2.1-2.1c-1.7-3.7-1-8.3,5.1-9.2
		c1.3-0.2,2.6-0.2,4-0.3c0.5,0,1-0.1,1.6-0.1c0.1-1.8-0.7-2.7-2.3-2.6c-1.8,0.2-3.5,0.7-5.4,1.1L167.6,52.7z M177.1,61.8
		c-1.3,0.3-2.5,0.4-3.6,0.8c-1,0.4-1.4,1.6-1,2.6c0.3,0.8,1.2,1.2,2.3,1C176.7,65.9,177.4,64.6,177.1,61.8L177.1,61.8z"/>
	<path class="st1" d="M44.2,69.5c-5,1.6-9.9,2.2-14.5-1.1c-1.7-1.3-2.7-3-3.2-5c-0.9-3.1-0.9-6.4-0.1-9.5c1.3-4.7,5.1-7.8,10-8.1
		c3-0.2,6.1,0.3,8.8,1.7l-2,5c-1.1-0.4-2.1-0.8-3.1-1.1c-4.1-1.2-6.7,0.4-7.4,4.6c-0.3,1.8-0.2,3.6,0.1,5.3c0.6,3.3,3.2,4.8,6.8,4.1
		c1.5-0.3,3-0.8,4.5-1.3c0,0.2,0,0.5,0,0.7C44.2,66.3,44.2,67.9,44.2,69.5z"/>
	<path class="st1" d="M161.7,64.9v4.8c-1.3,0.3-2.5,0.8-3.8,0.9c-2,0.2-4,0.2-6-0.1c-4-0.6-6.7-3.4-7-7.4c-0.2-2,0-4,0.4-5.9
		c0.7-2.9,2.7-4.8,5.6-5.6c2.1-0.6,4.4-0.6,6.5,0c3.3,0.9,5.3,3.4,5.6,7.1c0.1,1.3,0,2.6,0,4h-11.6c-0.1,1.7,0.9,3,2.7,3.3
		c2.1,0.3,4.3,0.1,6.3-0.7L161.7,64.9z M157,58.7c0-1.9-1.1-3.1-2.8-3.1c-1.7,0.1-2.8,1.3-2.7,3.1H157z"/>
	<path class="st1" d="M228.6,62.8h-11.6c-0.2,1.5,0.8,3,2.4,3.2c0.1,0,0.2,0,0.3,0c1.7,0,3.5-0.1,5.2-0.4c0.8-0.1,1.5-0.5,2.3-0.8
		v4.8c-1.3,0.3-2.6,0.9-4,0.9c-2.3,0.1-4.6,0.1-6.8-0.3c-3.2-0.7-5.2-2.9-5.9-6.1c-0.6-2.4-0.5-4.9,0.3-7.2c1-3,3-4.9,6.2-5.5
		c2.2-0.5,4.5-0.4,6.7,0.4c2.5,0.9,4.1,2.7,4.6,5.2C228.5,58.9,228.4,60.8,228.6,62.8z M222.5,58.6c-0.1-1.9-1.1-3-2.7-3
		c-1.5,0-2.7,1.2-2.8,2.7c0,0.1,0,0.2,0,0.4H222.5z"/>
	<path class="st1" d="M47.9,60.9c0-3.5,0.9-6.5,4.1-8.4c6.7-4,14.7,0.5,14.7,8.2c0,2.7-0.4,5.2-2.3,7.3c-2.4,2.7-7.1,3.6-11,2.2
		C50.2,69,48.1,65.8,48,62C47.9,61.6,47.9,61.2,47.9,60.9z M54.4,60.6c0.1,1.1,0.1,1.8,0.2,2.6c0.1,0.4,0.2,0.8,0.3,1.2
		c0.3,1.1,1.4,1.8,2.5,1.7c1.1,0,2-0.7,2.3-1.8c0.7-2.1,0.7-4.3,0-6.4c-0.3-1.1-1.3-1.9-2.4-1.9c-1.1-0.1-2.1,0.7-2.4,1.7
		C54.7,58.7,54.6,59.6,54.4,60.6z"/>
	<path class="st1" d="M104.8,69.7v-4.9c1.6,0.4,3.1,0.9,4.7,1.2c1,0.1,2,0.1,3,0c0.4-0.1,0.7-0.4,0.9-0.7c0-0.4-0.2-0.8-0.5-1
		c-1-0.5-2-0.9-3-1.4c-0.8-0.4-1.6-0.7-2.4-1.2c-2.3-1.3-3-3.4-2.6-5.8c0.3-2.3,1.9-3.5,4-4.1c3.2-1,8-0.4,10.6,1.2
		c-0.5,1.3-1.1,2.6-1.7,3.9c-2.2-0.5-4.3-1.8-6.6-1c-0.4,1,0.2,1.3,0.8,1.6c1.3,0.6,2.7,1.1,4,1.7c2.5,1.1,3.8,2.9,3.7,5.7
		c-0.1,2.6-1.4,4.4-3.9,5.3C112.9,71.2,107.6,70.9,104.8,69.7z"/>
	<path class="st1" d="M232.3,51.6h4.7l1,2.9c1.1-0.9,2.2-1.8,3.3-2.7c1.3-0.8,2.7-0.7,4.3-0.4c-0.2,2-0.4,4-0.6,6c-1,0-2-0.1-2.9,0
		c-2.4,0.2-3.5,1.4-3.5,3.8c0,2.8,0,5.6,0,8.3v0.9h-6.4V51.6z"/>
	<path class="st1" d="M77.1,70.4h-6.3V51.6h6.3V70.4z"/>
	<path class="st1" d="M74,44c2.6,0,3.8,1.3,3.4,3.6c0,0.2-0.1,0.3-0.1,0.5c-0.6,1.5-3.4,2.1-5.2,1.3c-1.4-0.7-1.9-2.6-1.1-4.1
		C71.6,44,72.8,44,74,44z"/>
</g>
</svg>
