<?xml version="1.0" encoding="utf-8"?>
<!-- Generator: Adobe Illustrator 25.3.1, SVG Export Plug-In . SVG Version: 6.00 Build 0)  -->
<svg version="1.1" id="Laag_1" xmlns="http://www.w3.org/2000/svg" xmlns:xlink="http://www.w3.org/1999/xlink" x="0px" y="0px"
	 viewBox="0 0 269.5 120" style="enable-background:new 0 0 269.5 120;" xml:space="preserve">
<style type="text/css">
	.st0{fill:none;}
	.st1{fill:#D6A742;}
</style>
<rect class="st0" width="269.5" height="120"/>
<g>
	<path class="st1" d="M71.7,50.2h8.5c4.9,0,8.2,2.6,8.2,6.9v0.1c0,4.7-3.6,7.1-8.4,7.1h-2.7v5.6h-5.5L71.7,50.2L71.7,50.2z M79.8,60
		c1.9,0,3.1-1,3.1-2.6v-0.1c0-1.7-1.2-2.6-3.2-2.6h-2.6V60C77.1,60,79.8,60,79.8,60z"/>
	<path class="st1" d="M90.6,50.2h9.3c3,0,5.1,0.8,6.4,2.1c1.1,1.1,1.7,2.6,1.7,4.6v0.1c0,3-1.6,5-4,6.1l4.7,6.9h-6.3l-4-6h-2.4v6
		h-5.5L90.6,50.2L90.6,50.2z M99.7,59.6c1.8,0,2.9-0.9,2.9-2.3v-0.1c0-1.6-1.1-2.4-3-2.4h-3.6v4.8H99.7z"/>
	<path class="st1" d="M110.5,50.2h15.8v4.6h-10.4v3h6v4.3h-6v3.1h10.6v4.6h-16V50.2z"/>
	<path class="st1" d="M226.2,50.2H242v4.6h-10.4v3h6v4.3h-6v3.1h10.6v4.6h-16V50.2z"/>
	<path class="st1" d="M128.2,66.9l3-3.6c2,1.6,4.1,2.4,6.4,2.4c1.5,0,2.3-0.5,2.3-1.3v-0.1c0-0.8-0.6-1.3-3.3-1.9
		c-4.2-1-7.4-2.1-7.4-6.2v-0.1c0-3.7,2.9-6.3,7.6-6.3c3.3,0,6,0.9,8.1,2.6l-2.7,3.8c-1.8-1.3-3.8-1.9-5.5-1.9c-1.3,0-2,0.5-2,1.3
		v0.1c0,0.9,0.7,1.3,3.4,1.9c4.5,1,7.3,2.4,7.3,6.1v0.1c0,4-3.2,6.4-8,6.4C133.9,70.2,130.6,69.1,128.2,66.9z"/>
	<path class="st1" d="M146.2,66.9l3-3.6c2,1.6,4.1,2.4,6.4,2.4c1.5,0,2.3-0.5,2.3-1.3v-0.1c0-0.8-0.6-1.3-3.3-1.9
		c-4.2-1-7.4-2.1-7.4-6.2v-0.1c0-3.7,2.9-6.3,7.6-6.3c3.3,0,6,0.9,8.1,2.6l-2.7,3.8c-1.8-1.3-3.8-1.9-5.5-1.9c-1.3,0-2,0.5-2,1.3
		v0.1c0,0.9,0.7,1.3,3.4,1.9c4.5,1,7.3,2.4,7.3,6.1v0.1c0,4-3.2,6.4-8,6.4C152,70.2,148.7,69.1,146.2,66.9z"/>
	<path class="st1" d="M164,50.2h5.8l3.4,11.4l3.8-11.4h4.7l3.8,11.4l3.4-11.4h5.7L188,70h-4.8l-3.9-11.3l-4,11.3h-4.8L164,50.2z"/>
	<path class="st1" d="M196.9,50.2h5.5v19.7h-5.5V50.2z"/>
	<path class="st1" d="M206,50.2h9.3c3,0,5.1,0.8,6.4,2.1c1.1,1.1,1.7,2.6,1.7,4.6v0.1c0,3-1.6,5-4,6.1l4.7,6.9h-6.3l-4-6h-2.4v6H206
		L206,50.2L206,50.2z M215.1,59.6c1.8,0,2.9-0.9,2.9-2.3v-0.1c0-1.6-1.1-2.4-3-2.4h-3.6v4.8H215.1z"/>
	<circle class="st1" cx="199.7" cy="44.7" r="3.6"/>
	<path class="st1" d="M71.7,69.9h-4.7l-8.4-10.8v10.8h-5.4V50.2h5.1l8.1,10.4V50.2h5.4c-3.8-8.5-12.3-14.4-22.2-14.4
		c-9.9,0-18.4,5.9-22.2,14.4H41v4.6H30.5v3h5.9v4.3h-5.9v3.1h10.6v4.6H27.4c3.8,8.5,12.3,14.4,22.1,14.4
		C59.4,84.2,67.9,78.3,71.7,69.9L71.7,69.9L71.7,69.9z M49.5,69.9h-5.4V50.2h5.4V69.9z"/>
	<polygon class="st1" points="71.7,69.9 71.7,69.9 71.7,69.9 71.7,69.9 	"/>
</g>
</svg>
