<?xml version="1.0" encoding="utf-8"?>
<!-- Generator: Adobe Illustrator 25.3.1, SVG Export Plug-In . SVG Version: 6.00 Build 0)  -->
<svg version="1.1" id="Laag_1" xmlns="http://www.w3.org/2000/svg" xmlns:xlink="http://www.w3.org/1999/xlink" x="0px" y="0px"
	 viewBox="0 0 269.5 120" style="enable-background:new 0 0 269.5 120;" xml:space="preserve">
<style type="text/css">
	.st0{fill:#D6A742;}
	.st1{fill:none;}
</style>
<path id="path2995" class="st0" d="M102.6,76.6c-2.2-0.3-4.2-1.3-5.7-2.7c-1.2-1.2-2-2.6-2.6-4.4c-0.9-2.9-0.9-6.6,0-9.4
	c0.9-2.7,2.9-5.1,5.4-6.4c3.4-1.7,8.2-1.6,11.4,0.3c2.9,1.7,4.6,4.7,5.1,8.7c0.1,1.2,0.1,3.9-0.2,5c-0.9,4.4-3.7,7.5-7.7,8.7
	c-0.4,0.1-1.1,0.3-1.5,0.3C105.9,76.7,103.4,76.7,102.6,76.6L102.6,76.6z M106,74.8c0.7-0.2,1.5-0.9,1.9-1.8
	c0.9-1.7,1.3-4.2,1.3-8.1c0-5-0.8-8.1-2.4-9.8c-0.7-0.7-1.2-0.9-2.1-0.9c-2,0-3.2,2-3.7,6.1c-0.2,1.9-0.2,6.3,0,7.9
	C101.7,73.2,103.5,75.6,106,74.8L106,74.8z M142.1,76.6c-0.9-0.1-3.7-0.6-4.7-0.8l-0.7-0.2l0.1-3.6c0.1-8.6,0.1-13.4,0.1-18
	c-0.1-4.5-0.1-5-0.3-5.6c-0.2-0.8-0.5-1.4-0.9-1.7c-0.1-0.1-0.6-0.3-0.9-0.3c-1.1-0.3-1.1-0.2-1.1-0.7c0-0.3,0-0.5,0.1-0.6
	c0.1-0.1,9.5-1.9,9.8-1.9c0.1,0,0.1,1.2,0.1,5.3c0,2.9,0,5.3,0,5.3s0.4-0.1,0.8-0.3c1.2-0.5,2.3-0.8,3.9-0.8c1.1,0,1.5,0,2.1,0.1
	c3.5,0.7,6.2,3.6,7.1,7.8c0.2,1.1,0.3,3.8,0.2,5.2c-0.1,1.2-0.5,2.7-0.9,3.7c-1.5,3.8-4.8,6.3-9.1,7
	C146.5,76.7,143.4,76.7,142.1,76.6L142.1,76.6z M145.7,74.8c0.7-0.1,1.2-0.4,1.7-0.9c1.4-1.3,2.4-3.8,2.9-7c0.2-1.3,0.1-4.3,0-5.4
	c-0.5-2.9-1.6-4.9-3.2-5.7c-0.7-0.3-0.8-0.3-1.5-0.3c-0.6,0-1,0.1-1.4,0.2l-0.6,0.2l0,3.4c-0.1,4.3,0.1,15.1,0.2,15.4
	c0.1,0.2,0.2,0.2,0.5,0.3C145.1,74.9,145.3,74.9,145.7,74.8L145.7,74.8z M168.5,76.6c-4.6-0.8-7.8-4.1-8.9-8.8
	c-0.1-0.6-0.2-1.3-0.2-2.6c-0.1-2.1,0.1-3.4,0.7-5c1-3.1,2.9-5.3,5.6-6.6c2.8-1.4,6.7-1.5,9.3-0.2c2.8,1.4,4.5,4.3,4.9,8.4
	c0.1,0.6,0.1,1.2,0.1,1.5l0,0.5l-6.8,0l-6.8,0l0,0.8c0.1,1.9,0.5,3.5,1.2,4.9c0.3,0.6,0.6,1,1.3,1.7c1.5,1.5,2.9,2.1,5.2,2.1
	c1.7,0,2.9-0.3,4.1-1.1c0.4-0.2,0.7-0.4,0.8-0.4c0.2,0,0.6,0.6,0.6,0.8c0,0.4-1.3,1.7-2.6,2.6c-1.1,0.7-2.7,1.4-4.2,1.6
	C171.7,76.8,169.5,76.7,168.5,76.6L168.5,76.6z M171.3,61.6l1.6-0.1l-0.1-1.1c-0.2-4-1.2-6.2-2.8-6.2c-1.7,0-3.1,2.2-3.7,5.9
	c-0.1,0.5-0.1,1-0.1,1.2l0,0.4l1.7,0C169,61.7,170.5,61.6,171.3,61.6L171.3,61.6z M186.8,76.7c-1.6-0.2-4.2-0.7-5.1-1.1l-0.4-0.2
	l-0.1-2.1c0-1.2-0.1-2.7-0.1-3.4l0-1.3l0.3-0.1c0.1-0.1,0.4-0.1,0.6-0.1l0.4,0l0.3,0.8c1.2,3,2.7,4.7,4.6,5.2c0.7,0.2,2.1,0.2,2.6,0
	c1.5-0.5,2.3-1.7,2.3-3.2c0-1.8-1-2.7-4.8-4.2c-2.4-0.9-3.2-1.4-4.2-2.4c-1.1-1.1-1.6-2.3-1.7-4c-0.1-2.1,0.5-3.8,2-5.3
	c1.4-1.5,3.3-2.3,5.9-2.5c2.3-0.2,5.7,0.3,7.5,1l0.3,0.1l0.1,1.9c0,1,0.1,2.4,0.1,3.1l0,1.2l-0.4,0.2c-0.7,0.3-0.7,0.2-1.1-0.8
	c-1.1-2.9-2.4-4.3-4.4-4.7c-1.2-0.3-2.2,0-3,0.8c-0.6,0.6-0.8,1.2-0.9,2.1c-0.1,1,0.1,1.5,0.7,2.2c0.7,0.8,2,1.5,4.4,2.5
	c3,1.2,4.4,2.3,5.2,3.8c0.5,1,0.6,1.8,0.6,3.3c0,1.2-0.1,1.4-0.3,2.2c-0.9,2.5-2.8,4.2-5.8,5c-1,0.3-1.2,0.3-3.2,0.3
	C188.1,76.7,187,76.7,186.8,76.7z M71,76.1c-0.1,0-0.1-0.3-0.1-0.7c0-0.8,0-0.7,1.4-1c1.1-0.2,1.5-0.4,2-1.1c1-1.3,1.2-3.7,1.2-13.8
	c0-9.4-0.2-11.4-1.2-12.9c-0.4-0.6-1.2-1-2.4-1.1l-1-0.1l0-0.8l0-0.8l0.3-0.1c0.2,0,6,0,13,0l12.7,0l0.1,0.4c0,0.2,0.1,2.3,0.1,4.6
	l0.1,4.2l-0.7,0.2c-1,0.3-1,0.3-1.4-0.9c-1.1-2.9-2.3-4.5-4-5.4c-1.2-0.6-1.7-0.6-5-0.6H83l0,0.5c-0.1,0.9-0.2,6.7-0.2,9.5l0,2.7
	l0.8,0c0.5,0,1.4,0,2-0.1c1-0.1,1.3-0.1,1.7-0.3c1-0.5,1.7-1.5,2.1-3.2l0.2-0.9l0.7,0l0.7,0v5.5v5.5l-0.7,0l-0.7,0l-0.2-0.9
	c-0.4-1.6-1.2-2.8-2.1-3.2c-0.4-0.2-1.5-0.3-3.6-0.4l-1,0v2.1c0,2.3,0.1,5.3,0.3,7c0.2,2.3,0.8,3.6,1.9,4.1c0.2,0.1,0.8,0.2,1.4,0.3
	c0.6,0.1,1.1,0.2,1.2,0.2c0.2,0.1,0.2,1.3,0,1.4C87.4,76.2,71.2,76.2,71,76.1L71,76.1z M116.3,76.1c-0.1-0.1-0.1-0.3-0.1-0.7l0-0.6
	l0.3-0.1c0.2,0,0.6-0.1,0.8-0.2c0.9-0.2,1.4-0.6,1.7-1.6c0.2-0.8,0.3-3.2,0.3-8.2c0-6-0.1-7.5-0.7-8.3c-0.3-0.4-0.6-0.6-1.4-0.7
	c-0.4-0.1-0.8-0.2-0.9-0.2c-0.2,0-0.2-0.1-0.2-0.5c0-0.4,0-0.5,0.2-0.6c0.3-0.1,9.4-1.9,9.7-1.9h0.2l0,1.4c0,0.7-0.1,1.8-0.1,2.4
	l0,1.1l0.3-0.6c1.1-1.9,2.2-3.1,3.8-3.8c0.9-0.4,1.4-0.5,2.5-0.5c1.3,0,2.5,0.4,2.5,0.8c0,0.3-2.2,6.2-2.4,6.2c-0.1,0-0.5-0.1-1-0.4
	c-1-0.5-1.9-0.7-2.8-0.7c-1.1,0-2.4,0.4-2.9,0.9c-0.2,0.2-0.2,0.2-0.3,3.6c-0.1,3.3,0.1,7.4,0.2,9.1c0.2,1.4,0.5,2.1,1.3,2.4
	c0.3,0.1,1.9,0.3,2.4,0.3c0,0,0.1,0.3,0,0.7l0,0.7l-6.8,0C119.5,76.2,116.4,76.1,116.3,76.1L116.3,76.1z"/>
<rect class="st1" width="269.5" height="120"/>
</svg>
