<?xml version="1.0" encoding="utf-8"?>
<!-- Generator: Adobe Illustrator 25.3.1, SVG Export Plug-In . SVG Version: 6.00 Build 0)  -->
<svg version="1.1" id="Laag_1" xmlns="http://www.w3.org/2000/svg" xmlns:xlink="http://www.w3.org/1999/xlink" x="0px" y="0px"
	 viewBox="0 0 269.5 120" style="enable-background:new 0 0 269.5 120;" xml:space="preserve">
<style type="text/css">
	.st0{fill:none;}
	.st1{fill:#D6A742;}
</style>
<rect class="st0" width="269.5" height="120"/>
<g>
	<path class="st1" d="M52,74.5c0-5.4,0.1-10.8-0.4-16.2c0.1,0.3,0.2,0.6,0.3,0.9c1.6,5.1,3.6,10.1,5.5,15.1c0.1,0.3,0.3,0.2,0.4,0.2
		c2.3,0,4.5,0,6.8,0c0.1,0,0.2,0,0.3,0c0-9.7,0-19.3,0-29c-2.5,0-5,0-7.4,0c-0.1,5.7-0.1,11.3,0.7,16.9c-0.1-0.1-0.1-0.2-0.2-0.3
		c-0.5-1.7-1-3.4-1.6-5c-1.4-3.8-2.9-7.6-4.3-11.3c-0.1-0.3-0.3-0.3-0.5-0.3c-2.2,0-4.5,0-6.7,0c-0.1,0-0.2,0-0.4,0
		c0,9.7,0,19.3,0,29C47,74.5,49.5,74.5,52,74.5z M150.9,58.3c0,0,0.1,0,0.1,0c0.1,0.3,0.2,0.6,0.3,1c1.6,5.1,3.6,10,5.4,15
		c0.1,0.3,0.2,0.2,0.4,0.2c2.3,0,4.5,0,6.8,0c0.1,0,0.2,0,0.3,0c0-9.7,0-19.3,0-29c-2.5,0-5,0-7.4,0c-0.1,5.7-0.1,11.3,0.7,16.9
		c-0.1-0.1-0.1-0.2-0.2-0.3c-0.5-1.6-1-3.3-1.6-4.9c-1.4-3.8-2.9-7.7-4.4-11.5c-0.1-0.3-0.3-0.2-0.5-0.2c-2.2,0-4.5,0-6.7,0
		c-0.1,0-0.2,0-0.4,0c0,9.7,0,19.3,0,29c2.5,0,5,0,7.5,0C151.4,69.1,151.5,63.7,150.9,58.3z M102.1,45.5c0,0.2,0,0.4,0,0.6
		c0,6.1,0,12.2,0,18.3c0,0.9,0,1.8,0.1,2.6c0.3,3,1.8,5.3,4.4,6.7c2.3,1.2,4.8,1.5,7.4,1.2c2.5-0.3,4.6-1.5,6.2-3.5
		c1.3-1.5,1.6-3.3,1.6-5.2c0-6.8,0-13.5,0-20.3c0-0.1,0-0.3,0-0.4c-2.6,0-5.2,0-7.8,0c0,0.2,0,0.4,0,0.6c0,6.1,0,12.2,0,18.3
		c0,0.7-0.1,1.5-0.3,2.2c-0.2,0.8-0.9,1.1-1.8,1.1c-0.8,0-1.5-0.4-1.7-1.2c-0.2-0.6-0.3-1.2-0.3-1.8c0-6.2,0-12.4,0-18.7
		c0-0.2,0-0.3,0-0.5C107.3,45.5,104.7,45.5,102.1,45.5z M204.4,74.5c0.1,0,0.1,0,0.2,0c2.5,0,5,0,7.6,0c0.3,0,0.3-0.2,0.4-0.4
		c2.4-8.8,4.8-17.6,7.2-26.5c0.2-0.7,0.4-1.5,0.6-2.2c-2.9,0-5.7,0-8.6,0c-1,6.2-2.6,12.2-3,18.5c-0.6-6.2-1.7-12.4-2.8-18.5
		c-2.8,0-5.5,0-8.3,0C199.9,55.2,202.1,64.8,204.4,74.5z M139.7,56.5c-2,0-4,0-6,0c0-1.4,0-2.8,0-4.2c2.2,0,4.5,0,6.7,0
		c0-2.3,0-4.6,0-6.8c-4.9,0-9.7,0-14.5,0c0,9.7,0,19.3,0,29c4.9,0,9.7,0,14.5,0c0-2.3,0-4.6,0-7c-2.2,0-4.5,0-6.7,0c0-1.5,0-3,0-4.5
		c2,0,4,0,6,0C139.7,60.9,139.7,58.7,139.7,56.5z M236.9,45.5c-4.9,0-9.7,0-14.5,0c0,9.7,0,19.3,0,29c4.9,0,9.7,0,14.5,0
		c0-2.3,0-4.6,0-7c-2.2,0-4.5,0-6.7,0c0-1.5,0-3,0-4.5c2,0,4,0,6,0c0-2.2,0-4.4,0-6.6c-2,0-4,0-6,0c0-1.4,0-2.8,0-4.2
		c2.2,0,4.4,0,6.7,0C236.9,50,236.9,47.8,236.9,45.5z M184.8,65.6c-0.4,0.3-0.7,0.6-1,0.8c-1.2,0.9-2.6,1.3-4.1,0.9
		c-1.7-0.4-2.7-1.6-3.2-3.1c-0.5-1.3-0.7-2.6-0.7-3.9c0-1.8,0.2-3.6,0.9-5.3c1.4-3.2,5.3-3.5,7.3-1.5c0.1,0.1,0.3,0.3,0.5,0.4
		c0-0.1,0-0.2,0-0.3c0-2.5,0-5.1,0-7.6c0-0.3-0.1-0.4-0.3-0.4c-1.6-0.7-3.3-0.7-5-0.5c-4.5,0.4-7.7,2.8-9.7,6.8
		c-1.1,2.2-1.6,4.6-1.7,7.1c-0.2,3.2,0.3,6.4,1.6,9.3c3.1,6.9,10.1,7.8,14.6,5.9c0.3-0.1,0.4-0.3,0.4-0.5c0.1-1.2,0.1-2.4,0.2-3.6
		C184.6,68.6,184.7,67.1,184.8,65.6z M69,45.5c0,9.7,0,19.3,0,29c2.6,0,5.2,0,7.9,0c0-3.8,0-7.6,0-11.4c1.9,0,3.7,0,5.5,0
		c0-2.2,0-4.4,0-6.6c-1.9,0-3.7,0-5.5,0c0-1.4,0-2.8,0-4.2c2,0,4,0,6,0c0-2.3,0-4.6,0-6.8C78.2,45.5,73.6,45.5,69,45.5z M86,74.5
		c4.6,0,9.2,0,13.7,0c0-2.3,0-4.6,0-7c-2,0-3.9,0-5.9,0c0-7.4,0-14.7,0-22c-2.6,0-5.2,0-7.8,0C86,55.2,86,64.8,86,74.5z M32.6,74.5
		c2.6,0,5.2,0,7.8,0c0-9.7,0-19.3,0-29c-2.6,0-5.2,0-7.8,0C32.6,55.2,32.6,64.8,32.6,74.5z M187.9,45.5c0,9.7,0,19.3,0,29
		c2.6,0,5.2,0,7.8,0c0-9.7,0-19.3,0-29C193,45.5,190.5,45.5,187.9,45.5z"/>
	<path class="st1" d="M52,74.5c-2.5,0-5,0-7.5,0c0-9.7,0-19.3,0-29c0.1,0,0.2,0,0.4,0c2.2,0,4.5,0,6.7,0c0.2,0,0.4,0,0.5,0.3
		c1.4,3.8,2.9,7.5,4.3,11.3c0.6,1.6,1.1,3.3,1.6,5c0,0.1,0.1,0.2,0.2,0.3c-0.9-5.6-0.8-11.2-0.7-16.9c2.5,0,4.9,0,7.4,0
		c0,9.7,0,19.3,0,29c-0.1,0-0.2,0-0.3,0c-2.3,0-4.5,0-6.8,0c-0.2,0-0.4,0-0.4-0.2c-1.9-5-3.9-10-5.5-15.1c-0.1-0.3-0.2-0.6-0.3-0.9
		C52.1,63.7,52,69.1,52,74.5z"/>
	<path class="st1" d="M150.9,58.3c0.6,5.4,0.5,10.8,0.5,16.2c-2.5,0-5,0-7.5,0c0-9.7,0-19.3,0-29c0.1,0,0.3,0,0.4,0
		c2.2,0,4.5,0,6.7,0c0.2,0,0.4,0,0.5,0.2c1.5,3.8,3,7.6,4.4,11.5c0.6,1.6,1.1,3.3,1.6,4.9c0,0.1,0.1,0.2,0.2,0.3
		c-0.9-5.6-0.8-11.2-0.7-16.9c2.5,0,4.9,0,7.4,0c0,9.6,0,19.3,0,29c-0.1,0-0.2,0-0.3,0c-2.3,0-4.5,0-6.8,0c-0.2,0-0.4,0-0.4-0.2
		c-1.9-5-3.9-9.9-5.4-15c-0.1-0.3-0.2-0.6-0.3-1C151,58.3,150.9,58.3,150.9,58.3z"/>
	<path class="st1" d="M102.1,45.5c2.6,0,5.2,0,7.9,0c0,0.2,0,0.3,0,0.5c0,6.2,0,12.4,0,18.7c0,0.6,0.1,1.2,0.3,1.8
		c0.2,0.8,0.8,1.2,1.7,1.2c0.9,0,1.6-0.3,1.8-1.1c0.2-0.7,0.3-1.4,0.3-2.2c0-6.1,0-12.2,0-18.3c0-0.2,0-0.4,0-0.6c2.6,0,5.2,0,7.8,0
		c0,0.1,0,0.3,0,0.4c0,6.8,0,13.5,0,20.3c0,1.9-0.3,3.7-1.6,5.2c-1.6,2-3.7,3.2-6.2,3.5c-2.6,0.3-5.1,0-7.4-1.2
		c-2.7-1.4-4.1-3.7-4.4-6.7c-0.1-0.9-0.1-1.8-0.1-2.6c0-6.1,0-12.2,0-18.3C102.1,45.9,102.1,45.7,102.1,45.5z"/>
	<path class="st1" d="M204.4,74.5c-2.2-9.7-4.4-19.3-6.7-29c2.8,0,5.5,0,8.3,0c1.1,6.1,2.2,12.3,2.8,18.5c0.4-6.3,2-12.4,3-18.5
		c2.9,0,5.7,0,8.6,0c-0.2,0.7-0.4,1.5-0.6,2.2c-2.4,8.8-4.8,17.6-7.2,26.5c-0.1,0.2-0.1,0.4-0.4,0.4c-2.5,0-5,0-7.6,0
		C204.5,74.5,204.4,74.5,204.4,74.5z"/>
	<path class="st1" d="M139.7,56.5c0,2.2,0,4.4,0,6.6c-2,0-4,0-6,0c0,1.5,0,3,0,4.5c2.2,0,4.4,0,6.7,0c0,2.3,0,4.6,0,7
		c-4.8,0-9.7,0-14.5,0c0-9.7,0-19.3,0-29c4.8,0,9.7,0,14.5,0c0,2.3,0,4.5,0,6.8c-2.2,0-4.4,0-6.7,0c0,1.4,0,2.8,0,4.2
		C135.7,56.5,137.7,56.5,139.7,56.5z"/>
	<path class="st1" d="M236.9,45.5c0,2.3,0,4.5,0,6.8c-2.2,0-4.4,0-6.7,0c0,1.4,0,2.8,0,4.2c2,0,4,0,6,0c0,2.2,0,4.4,0,6.6
		c-2,0-4,0-6,0c0,1.5,0,3,0,4.5c2.2,0,4.4,0,6.7,0c0,2.3,0,4.6,0,7c-4.8,0-9.7,0-14.5,0c0-9.7,0-19.3,0-29
		C227.2,45.5,232,45.5,236.9,45.5z"/>
	<path class="st1" d="M184.8,65.6c-0.1,1.5-0.2,3-0.2,4.4c-0.1,1.2-0.2,2.4-0.2,3.6c0,0.3-0.1,0.4-0.4,0.5c-4.5,2-11.5,1.1-14.6-5.9
		c-1.3-3-1.8-6.1-1.6-9.3c0.1-2.5,0.6-4.9,1.7-7.1c2-4,5.2-6.3,9.7-6.8c1.7-0.2,3.4-0.1,5,0.5c0.2,0.1,0.3,0.2,0.3,0.4
		c0,2.5,0,5.1,0,7.6c0,0.1,0,0.2,0,0.3c-0.2-0.2-0.3-0.3-0.5-0.4c-2-2-5.8-1.8-7.3,1.5c-0.8,1.7-1,3.5-0.9,5.3
		c0,1.3,0.2,2.7,0.7,3.9c0.6,1.5,1.5,2.7,3.2,3.1c1.5,0.3,2.9,0,4.1-0.9C184.1,66.2,184.4,65.9,184.8,65.6z"/>
	<path class="st1" d="M69,45.5c4.6,0,9.2,0,13.8,0c0,2.3,0,4.5,0,6.8c-2,0-4,0-6,0c0,1.4,0,2.8,0,4.2c1.8,0,3.7,0,5.5,0
		c0,2.2,0,4.4,0,6.6c-1.8,0-3.7,0-5.5,0c0,3.8,0,7.6,0,11.4c-2.6,0-5.2,0-7.9,0C69,64.8,69,55.2,69,45.5z"/>
	<path class="st1" d="M86,74.5c0-9.7,0-19.3,0-29c2.6,0,5.2,0,7.8,0c0,7.3,0,14.7,0,22c2,0,3.9,0,5.9,0c0,2.3,0,4.6,0,7
		C95.1,74.5,90.6,74.5,86,74.5z"/>
	<path class="st1" d="M32.6,74.5c0-9.7,0-19.3,0-29c2.6,0,5.2,0,7.8,0c0,9.7,0,19.3,0,29C37.8,74.5,35.2,74.5,32.6,74.5z"/>
	<path class="st1" d="M187.9,45.5c2.6,0,5.2,0,7.8,0c0,9.7,0,19.3,0,29c-2.6,0-5.2,0-7.8,0C187.9,64.8,187.9,55.2,187.9,45.5z"/>
</g>
</svg>
