<?xml version="1.0" encoding="utf-8"?>
<!-- Generator: Adobe Illustrator 25.3.1, SVG Export Plug-In . SVG Version: 6.00 Build 0)  -->
<svg version="1.1" id="Laag_1" xmlns="http://www.w3.org/2000/svg" xmlns:xlink="http://www.w3.org/1999/xlink" x="0px" y="0px"
	 viewBox="0 0 269.5 120" style="enable-background:new 0 0 269.5 120;" xml:space="preserve">
<style type="text/css">
	.st0{fill:none;}
	.st1{fill:#D6A742;}
</style>
<rect class="st0" width="269.5" height="120"/>
<g>
	<path class="st1" d="M237.2,52.1h10.2v1.4h-8.7v5.6h7.8v1.4h-7.8v5.9h9v1.4h-10.5V52.1z M230.1,53.9c-0.8-0.4-1.7-0.5-2.5-0.5
		c-1.2,0-2.3,0.3-3.3,0.9c-1,0.6-1.8,1.3-2.4,2.4c-0.6,1-0.9,2.1-0.9,3.3c0,1.2,0.3,2.3,0.9,3.3c0.6,1,1.4,1.8,2.4,2.4
		c1,0.6,2.1,0.9,3.3,0.9c0.8,0,1.7-0.1,2.5-0.5c0.8-0.4,1.5-0.8,2.1-1.4l0.9,1c-0.8,0.7-1.7,1.3-2.6,1.7c-1,0.4-2,0.6-3,0.6
		c-1.4,0-2.8-0.4-4-1.1c-1.2-0.7-2.1-1.7-2.9-2.9c-0.7-1.2-1-2.5-1-4s0.3-2.8,1.1-4c0.7-1.2,1.7-2.2,2.9-2.9c1.2-0.7,2.6-1.1,4-1.1
		c1,0,2,0.2,3,0.6c1,0.4,1.8,0.9,2.6,1.6l-0.9,1.1C231.6,54.7,230.9,54.2,230.1,53.9 M206.8,62.2h7.3l-3.7-8.5L206.8,62.2z
		 M216.5,67.8l-1.8-4.2h-8.5l-1.8,4.2h-1.6l6.9-15.6h1.6l6.9,15.6H216.5z M192.9,52.1h1.5v14.3h6.8v1.4h-8.2L192.9,52.1L192.9,52.1z
		 M186.4,60.3c0.8-0.7,1.2-1.6,1.2-3c0-1.3-0.4-2.2-1.2-2.9c-0.8-0.7-1.9-1-3.4-1h-4.1v7.9h4.1C184.4,61.3,185.6,61,186.4,60.3
		 M187.5,53.4c1,0.9,1.5,2.2,1.5,3.8c0,1.7-0.6,3-1.5,4c-1,0.9-2.5,1.4-4.4,1.4h-4.1v5.1h-1.5V52.1h5.7
		C184.9,52.1,186.4,52.6,187.5,53.4 M162.7,60.6h3.5c1.1,0,1.9-0.2,2.6-0.7c0.6-0.5,0.9-1.2,0.9-2.2s-0.3-1.7-0.9-2.1
		c-0.6-0.5-1.4-0.7-2.6-0.7h-3.5V60.6z M169.4,67.9l-2.6-4.7h-4v4.6h-2.9V52.2h6.4c2,0,3.5,0.5,4.6,1.4c1.1,0.9,1.6,2.3,1.6,4
		c0,1.2-0.3,2.3-0.8,3.1c-0.6,0.9-1.2,1.5-2.3,2l3.4,5.2L169.4,67.9L169.4,67.9z M145.7,55.4c-0.8,0.5-1.4,1.1-1.9,1.9
		c-0.5,0.9-0.7,1.7-0.7,2.7c0,1,0.2,1.9,0.7,2.7c0.5,0.9,1.1,1.5,1.9,2c0.8,0.5,1.7,0.7,2.6,0.7c0.9,0,1.8-0.2,2.6-0.7
		c0.8-0.5,1.4-1.1,1.9-2c0.5-0.9,0.7-1.7,0.7-2.7c0-1-0.2-1.9-0.7-2.7c-0.5-0.8-1.1-1.5-1.9-1.9c-0.8-0.5-1.7-0.7-2.6-0.7
		C147.4,54.7,146.5,54.9,145.7,55.4 M152.4,53.1c1.2,0.7,2.2,1.7,3,2.9c0.7,1.2,1.1,2.6,1.1,4.1c0,1.5-0.3,2.8-1.1,4.1
		c-0.7,1.2-1.7,2.2-3,2.9c-1.2,0.7-2.6,1.1-4.1,1.1c-1.5,0-2.9-0.4-4.1-1.1c-1.2-0.7-2.2-1.7-3-2.9c-0.7-1.2-1.1-2.6-1.1-4.1
		c0-1.5,0.3-2.8,1.1-4.1c0.7-1.2,1.7-2.2,3-2.9c1.3-0.7,2.6-1.1,4.1-1.1C149.8,52,151.2,52.4,152.4,53.1 M126.8,52.2h12.5v2.7h-4.8
		v13h-3v-13h-4.8L126.8,52.2L126.8,52.2z M121.2,55.1c-0.8-0.3-1.5-0.4-2.2-0.4c-0.7,0-1.2,0.1-1.7,0.4c-0.4,0.3-0.6,0.6-0.6,1.1
		c0,0.4,0.1,0.8,0.4,1.1c0.3,0.3,0.6,0.5,1.1,0.7c0.4,0.2,1,0.4,1.7,0.6c1,0.3,1.9,0.6,2.6,0.9c0.7,0.3,1.2,0.8,1.7,1.4
		c0.5,0.6,0.7,1.4,0.7,2.4c0,1-0.3,1.8-0.8,2.5c-0.5,0.7-1.2,1.3-2.1,1.6c-0.9,0.4-1.9,0.6-3,0.6c-1.2,0-2.4-0.2-3.5-0.7
		c-1.1-0.4-2.1-1.1-3-1.8l1.2-2.5c0.8,0.7,1.7,1.3,2.6,1.7c1,0.4,1.9,0.6,2.7,0.6c0.8,0,1.4-0.1,1.9-0.5c0.5-0.4,0.7-0.8,0.7-1.3
		c0-0.4-0.1-0.9-0.4-1.1c-0.3-0.3-0.6-0.5-1.1-0.7c-0.4-0.2-1-0.4-1.8-0.6c-1-0.3-1.9-0.6-2.6-0.9c-0.7-0.3-1.2-0.8-1.7-1.3
		c-0.5-0.6-0.7-1.4-0.7-2.4c0-0.9,0.2-1.7,0.7-2.4c0.5-0.7,1.2-1.2,2-1.6c0.9-0.4,1.9-0.6,3-0.6c1,0,2,0.1,3,0.4
		c1,0.3,1.9,0.7,2.6,1.2l-1.2,2.8C122.8,55.8,122,55.5,121.2,55.1 M98.7,52.2h11.2v2.6h-8.3v3.9h7.5v2.6h-7.5v4h8.6v2.6H98.7V52.2z
		 M80.7,52.2h3.2l4.5,12.4l4.6-12.4h3l-6.2,15.7h-3L80.7,52.2z M75.1,52.2h2.8v15.7h-2.8l-7.9-10.8v10.8h-2.8V52.2h2.8L75.1,63V52.2
		z M56.9,52.2h2.9v15.7h-2.9V52.2z"/>
	<path class="st1" d="M50.2,58.8c0,0.2,0,0.6-0.1,0.7c-0.2,0-0.3-1.4-0.2-1.5h0C50.1,58.1,50.1,58.6,50.2,58.8"/>
	<path class="st1" d="M37.9,57.8c-0.2,2-2.7,2.7-3.8,1.1c-1-1.3-0.2-3.3,1.7-3.4C37.4,55.6,38,56.9,37.9,57.8"/>
	<path class="st1" d="M35.5,61.9c-0.1,0.6-0.5,1.8-2,1.9c-2-0.1-2.7-2.6-1.4-3.8c0.5-0.4,1-0.5,1.3-0.5C35,59.7,35.6,61,35.5,61.9"
		/>
	<path class="st1" d="M41.8,60.2c-0.1,0.7-0.5,1.9-2,1.9c-2.2-0.1-2.7-2.6-1.3-3.8c0.5-0.4,1-0.5,1.3-0.5
		C41.4,57.9,41.8,59.4,41.8,60.2"/>
	<path class="st1" d="M39.5,64.2c-0.3,1.8-2.6,2.3-3.7,0.9c-0.8-1.1-0.3-3,1.7-3.1C39.1,62,39.6,63.3,39.5,64.2"/>
	<path class="st1" d="M33.8,55.6c-0.1,0.6-0.6,1.6-1.8,1.6c-1.8-0.1-1.8-2.1-0.7-3.1c0.5-0.4,0.9-0.5,1.2-0.5
		C33.7,53.8,34,54.9,33.8,55.6"/>
	<path class="st1" d="M39.7,54.1c0,1.4-1.8,2.1-2.9,1c-1-0.9-0.5-2.7,1.2-2.8C39.2,52.4,39.6,53.4,39.7,54.1"/>
	<path class="st1" d="M43.3,56.2c0.1,1.5-1.4,2.2-2.6,1.2c-1.2-1-0.9-3,0.6-3.2c0,0,0.1,0,0.2,0C42.7,54.4,43.3,55.5,43.3,56.2"/>
	<path class="st1" d="M31.5,59.5c-0.1,0.6-0.5,1.7-1.6,1.8c-1.7-0.1-2-2.6-0.8-3.5c0.4-0.3,0.7-0.3,0.9-0.3
		C31.1,57.5,31.6,58.6,31.5,59.5"/>
	<path class="st1" d="M44.8,62.5c-0.3,1.6-2,2.2-2.8,1c-0.7-1.1-0.1-3,1.4-3.1C44.6,60.5,45,61.7,44.8,62.5"/>
	<path class="st1" d="M33.4,65.7c0,1.2-1.2,2-2.4,1c-1.1-1-0.9-2.7,0.4-2.9c0,0,0.1,0,0.2,0C32.6,63.9,33.3,64.8,33.4,65.7"/>
	<path class="st1" d="M37,67.6c0,0.4-0.4,1.2-1.4,1.3c-1.4-0.1-2.2-1.7-1.3-2.6c0.4-0.4,0.8-0.4,1-0.4C36.4,65.9,37.1,66.8,37,67.6"
		/>
	<path class="st1" d="M42.3,66.2c-0.5,1.3-2.2,1.9-2.9,0.7c-0.5-1,0.2-2.5,1.7-2.6C42.1,64.4,42.7,65.3,42.3,66.2"/>
	<path class="st1" d="M36,52.2c-0.1,0.4-0.5,1.2-1.6,1.3c-1.4-0.1-1.6-1.5-0.7-2.3c0.5-0.4,0.9-0.4,1.1-0.5
		C35.8,50.8,36.1,51.6,36,52.2"/>
	<path class="st1" d="M29.6,63.6c0,0.1,0.1,1.4-0.9,1.4c-1.4-0.1-2-2.4-1.1-3.1c0.2-0.2,0.4-0.2,0.6-0.2
		C29.1,61.8,29.6,62.8,29.6,63.6"/>
	<path class="st1" d="M46.5,58.4c0,1.3-1,2-1.9,1.3c-1-0.9-0.9-3.1,0.5-3.1C45.9,56.6,46.4,57.6,46.5,58.4"/>
	<path class="st1" d="M39.7,69.4c0,0-0.4,0.9-1.4,1c-1-0.1-1.4-1.3-0.6-2c0.4-0.4,0.8-0.4,1-0.4C39.7,68.1,39.9,68.8,39.7,69.4"/>
	<path class="st1" d="M40.6,50.8c0.1,0.3,0,1-0.9,1.1c-1.2-0.1-1.8-1.4-1.1-2c0.2-0.2,0.5-0.2,0.6-0.2
		C39.9,49.7,40.5,50.4,40.6,50.8"/>
	<path class="st1" d="M30.6,53.5c-0.2,0.4-0.7,1.2-1.5,1.3c-1.1-0.1-0.9-1.5,0.1-2.3c0.4-0.4,0.7-0.4,0.9-0.4
		C30.8,52.1,30.8,53,30.6,53.5"/>
	<path class="st1" d="M28.1,57.2c-0.1,0.5-0.5,1.4-1.2,1.4c-1.1-0.1-1-2.1-0.1-2.9c0.3-0.2,0.5-0.2,0.6-0.2
		C28.1,55.6,28.3,56.4,28.1,57.2"/>
	<path class="st1" d="M44,52.5c0.3,0.9-0.4,1.5-1.3,1c-1-0.5-1.4-2.1-0.5-2.4c0.1,0,0.1,0,0.2,0C43.3,51.2,43.9,51.9,44,52.5"/>
	<path class="st1" d="M32.1,69c0,0,0.3,0.9-0.5,1c-1-0.1-2.1-1.6-1.5-2.1c0.1-0.1,0.3-0.2,0.4-0.2C31.3,67.7,31.9,68.5,32.1,69"/>
	<path class="st1" d="M46.8,64.8c-0.4,1.1-1.5,1.7-1.9,0.8c-0.4-0.9,0.3-2.4,1.3-2.5C47,63.2,47,64.1,46.8,64.8"/>
	<path class="st1" d="M44.1,68.1c-0.5,0.9-1.7,1.4-2,0.6c-0.2-0.7,0.6-2,1.6-2C44.4,66.8,44.5,67.5,44.1,68.1"/>
	<path class="st1" d="M35.2,70.5c0.1,0.7-0.6,1.1-1.4,0.5c-0.8-0.6-0.7-1.5,0-1.6H34C34.7,69.5,35.2,70,35.2,70.5"/>
	<path class="st1" d="M37.5,49.4c-0.1,0.8-1.2,1.1-1.7,0.5c-0.4-0.5,0-1.4,0.8-1.4C37.1,48.5,37.5,48.9,37.5,49.4"/>
	<path class="st1" d="M33.2,50.4c-0.4,1-1.6,1.3-1.9,0.7c-0.3-0.6,0.6-1.7,1.5-1.7C33.3,49.4,33.4,49.9,33.2,50.4"/>
	<path class="st1" d="M26.4,61.2c0,1-0.5,1.6-1,1.1c-0.7-0.7-0.7-2.7,0.2-2.8C26.1,59.7,26.4,60.6,26.4,61.2"/>
	<path class="st1" d="M47,54.5c0.3,0.9-0.2,1.4-0.9,1.1c-0.9-0.5-1.3-2.2-0.6-2.4c0,0,0.1,0,0.2,0C46.4,53.2,46.9,53.9,47,54.5"/>
	<path class="st1" d="M48.6,60.8c-0.1,1.1-0.8,1.7-1.3,1.1c-0.6-0.7-0.3-2.6,0.5-2.7C48.5,59.2,48.7,60.1,48.6,60.8"/>
	<path class="st1" d="M28.6,67.2c0,0,0.4,1-0.2,1c-0.9-0.1-1.9-1.7-1.4-2.3c0.1-0.1,0.2-0.1,0.3-0.1C27.9,65.9,28.4,66.6,28.6,67.2"
		/>
	<path class="st1" d="M37.5,71.7c-0.2,0.6-1,0.8-1.4,0.1c-0.2-0.4,0-0.9,0.7-1C37.4,70.9,37.7,71.3,37.5,71.7"/>
	<path class="st1" d="M41.2,70.8c-0.2,0.3-0.7,0.7-1.2,0.7c-0.6,0-0.4-0.9,0.2-1.3c0.4-0.3,0.7-0.3,0.8-0.3
		C41.5,69.9,41.5,70.4,41.2,70.8"/>
	<path class="st1" d="M40.4,48.5c0.2,0.2,0.3,0.6-0.2,0.6c-0.7,0-1.3-0.9-1-1.2c0,0,0.1,0,0.2,0C39.7,47.9,40.2,48.2,40.4,48.5"/>
	<path class="st1" d="M35.3,48.1c-0.3,0.5-1,0.7-1.2,0.4c-0.1-0.3,0.5-0.9,1-0.9C35.4,47.5,35.4,47.8,35.3,48.1"/>
	<path class="st1" d="M28.7,51.6c-0.5,0.7-1.2,1-1.2,0.6c-0.1-0.4,0.8-1.6,1.4-1.6C29.3,50.7,28.9,51.3,28.7,51.6"/>
	<path class="st1" d="M43.3,49.8c0.2,0.2,0.4,0.7-0.1,0.7c-0.8-0.1-1.5-1.2-1.3-1.4c0,0,0.1,0,0.2-0.1C42.5,49,43,49.4,43.3,49.8"/>
	<path class="st1" d="M26,55c0,0.1-0.4,0.9-0.8,1c-0.6-0.1,0-1.7,0.6-2.1c0.1-0.1,0.2-0.1,0.2-0.1C26.4,53.9,26.2,54.6,26,55"/>
	<path class="st1" d="M49.3,56.6c0.1,0.3,0.1,1-0.2,1c-0.6-0.1-1-1.9-0.6-2.2c0,0,0.1,0,0.1,0C48.9,55.4,49.2,56.1,49.3,56.6"/>
	<path class="st1" d="M25.6,65.1c0.2,0.5,0.1,1.1-0.2,0.9c-0.6-0.2-1.2-2-0.7-2.1h0C25.1,64,25.5,64.7,25.6,65.1"/>
	<path class="st1" d="M47.6,66.9c-0.4,0.6-0.9,1.1-1,0.7c-0.2-0.5,0.6-1.8,1.1-1.8C48,65.8,47.9,66.4,47.6,66.9"/>
	<path class="st1" d="M32.2,71.7c0.2,0.2,0.4,0.5,0.1,0.5c-0.5,0-1.7-0.8-1.4-1.1c0,0,0.1-0.1,0.1-0.1
		C31.4,71.1,31.9,71.5,32.2,71.7"/>
	<path class="st1" d="M44.7,69.9c-0.2,0.2-0.7,0.6-1,0.6c-0.4,0,0.1-0.8,0.6-1.2c0.3-0.3,0.5-0.3,0.6-0.3
		C45.3,69.1,45.1,69.5,44.7,69.9"/>
	<path class="st1" d="M34.7,72.7c0.1,0.1,0.3,0.3,0.1,0.4c-0.5,0-1.3-0.5-1.1-0.8c0,0,0.1-0.1,0.2-0.1
		C34.2,72.2,34.6,72.5,34.7,72.7"/>
	<path class="st1" d="M38.6,72.8c-0.1,0.1-0.4,0.3-0.6,0.3c-0.3,0-0.1-0.4,0.1-0.6c0.2-0.1,0.3-0.2,0.5-0.2
		C38.9,72.3,38.8,72.6,38.6,72.8"/>
	<path class="st1" d="M31.7,49c-0.1,0.1-0.5,0.5-0.9,0.5c-0.3,0-0.1-0.4,0.2-0.7c0.2-0.2,0.6-0.5,0.9-0.5
		C32.3,48.4,31.7,48.9,31.7,49"/>
	<path class="st1" d="M37.9,47.4c0.1,0.3-0.2,0.4-0.5,0.3c-0.4-0.2-0.4-0.6-0.2-0.7c0,0,0.1,0,0.1,0C37.6,47,37.8,47.2,37.9,47.4"/>
	<path class="st1" d="M46.1,51.3c0.3,0.4,0.3,0.8,0,0.7c-0.5-0.1-1.4-1.3-1.2-1.5c0,0,0.1,0,0.1,0C45.4,50.5,45.9,51,46.1,51.3"/>
	<path class="st1" d="M24.1,58.7c0,0.3-0.2,0.9-0.4,1c-0.4-0.1-0.2-1.9,0.1-2.1l0.1,0C24.1,57.6,24.2,58.3,24.1,58.7"/>
	<path class="st1" d="M49.7,63.2c-0.2,0.6-0.5,1.1-0.6,0.8c-0.2-0.4,0.1-1.8,0.5-1.9C49.8,62.1,49.8,62.7,49.7,63.2"/>
	<path class="st1" d="M29.2,70.1c0.3,0.3,0.4,0.6,0.2,0.6c-0.5-0.1-1.5-1.1-1.3-1.3l0.1,0C28.5,69.4,29,69.9,29.2,70.1"/>
	<path class="st1" d="M41.4,72c-0.4,0.3-0.9,0.5-0.9,0.3c0-0.2,0.8-0.8,1.2-0.9c0.2,0,0,0.3-0.1,0.4C41.6,71.9,41.5,71.9,41.4,72"/>
	<path class="st1" d="M36.5,73.1c0.1,0.1,0,0.2-0.3,0.2C36,73.2,35.8,73,36,72.9l0.1,0C36.3,72.8,36.4,73,36.5,73.1"/>
	<path class="st1" d="M34.4,47c-0.4,0.2-0.6,0.3-0.6,0.2c0-0.2,0.7-0.4,0.9-0.5c0,0,0.1,0,0,0.1C34.6,46.9,34.5,47,34.4,47"/>
	<path class="st1" d="M36.5,46.8c0,0.1-0.1,0.2-0.3,0.2c-0.1,0-0.1-0.1,0-0.2c0.1-0.1,0.2-0.1,0.3-0.1
		C36.6,46.7,36.5,46.8,36.5,46.8"/>
	<path class="st1" d="M24,62.7c0.1,0.5,0.1,0.8,0,0.7c-0.2-0.1-0.5-1.6-0.3-1.6C23.8,61.8,23.9,62.3,24,62.7"/>
	<path class="st1" d="M48.5,53.3c0.2,0.3,0.3,0.6,0.1,0.5c-0.2-0.1-0.9-1.1-0.7-1.2h0C48,52.7,48.3,53.1,48.5,53.3"/>
	<path class="st1" d="M26.6,68.2c0,0.1,0.4,0.5,0.3,0.5c-0.2,0-1.1-1.1-0.9-1.2h0C26.1,67.5,26.4,67.9,26.6,68.2"/>
	<path class="st1" d="M38.9,46.9c0.2,0.1,0.3,0.1,0.2,0.1c-0.1,0.1-0.8-0.2-0.8-0.3l0,0C38.5,46.7,38.7,46.8,38.9,46.9"/>
	<path class="st1" d="M25.6,53c-0.1,0.1-0.3,0.4-0.4,0.5c-0.1,0,0.5-1,0.6-1h0C25.9,52.5,25.6,52.9,25.6,53"/>
	<path class="st1" d="M28.3,49.9c-0.3,0.3-0.5,0.4-0.5,0.3c0-0.1,0.6-0.7,0.8-0.8C28.8,49.4,28.5,49.7,28.3,49.9"/>
	<path class="st1" d="M41.4,47.5c0.2,0.1,0.3,0.2,0.3,0.2c-0.1,0-1-0.5-1-0.5h0C40.8,47.3,41.2,47.4,41.4,47.5"/>
	<path class="st1" d="M44.4,49c0.2,0.2,0.4,0.3,0.3,0.3c-0.2,0-1.2-0.8-1.1-0.8h0C43.8,48.6,44.2,48.8,44.4,49"/>
	<path class="st1" d="M31.8,47.8c-0.1,0.1-0.4,0.2-0.4,0.2c0-0.1,0.6-0.4,0.8-0.4C32.1,47.6,31.8,47.7,31.8,47.8"/>
</g>
</svg>
