<?xml version="1.0" encoding="utf-8"?>
<!-- Generator: Adobe Illustrator 25.3.1, SVG Export Plug-In . SVG Version: 6.00 Build 0)  -->
<svg version="1.1" id="Laag_1" xmlns="http://www.w3.org/2000/svg" xmlns:xlink="http://www.w3.org/1999/xlink" x="0px" y="0px"
	 viewBox="0 0 269.5 120" style="enable-background:new 0 0 269.5 120;" xml:space="preserve">
<style type="text/css">
	.st0{fill:none;}
	.st1{fill-rule:evenodd;clip-rule:evenodd;fill:#D6A742;}
</style>
<rect class="st0" width="269.5" height="120"/>
<g>
	<path class="st1" d="M62.4,88.4H66V65.9h-3.6V88.4z M76.8,88.1h3.7V73.9l15.5,14.5V66.3h-3.7v14L76.8,65.9V88.1z M105.6,82.6
		c2.1,1.6,4.6,2.5,7.2,2.5c2.6,0,4.4-0.9,4.4-2.8c0-1.7-1.1-2.4-3.2-3.1l-3.3-1.1c-3-1.1-5.3-2.6-5.3-6.2c0-3.8,3.5-5.9,7.7-5.9
		c2.6,0,4.9,0.6,6.7,1.8v3.8c-1.9-1.4-4-2.3-6.6-2.3c-2.3,0-4,0.9-4,2.6c0,1.6,1.1,2.2,3,2.9l3.7,1.3c3.6,1.2,5.2,3.2,5.2,6.3
		c0,4-3.5,6.2-8.1,6.2c-3,0-5.6-0.9-7.2-1.9C105.6,86.5,105.6,82.6,105.6,82.6z M129.4,88.4h3.6V65.9h-3.6V88.4z M153.2,85
		c4.6,0,7.1-3,7.1-7.8c0-4.8-2.5-7.9-7.1-7.9h-4.6V85H153.2z M144.9,65.9h8.4c6.5,0,10.7,4.4,10.7,11.3s-4.2,11.3-10.7,11.3h-8.4
		L144.9,65.9L144.9,65.9z M185.6,65.9v3.4H176v5.4h8.6V78H176v7h9.6v3.4h-13.2V65.9H185.6z M198.8,76.1h4.1c2.4,0,3.8-1.4,3.8-3.4
		c0-2.1-1.4-3.4-3.8-3.4h-4.1V76.1L198.8,76.1z M198.8,79.3v9.1h-3.7V65.9h7.8c4.5,0,7.4,2.3,7.4,6.7c0,3.8-1.6,5.9-5,6.5l7.8,9.3
		h-4.2l-7.5-9.1H198.8L198.8,79.3z M207.1,37.5c0,3.6,2.3,5.1,5.3,6.2l3.3,1.1c2,0.7,3.2,1.4,3.2,3.1c0,2-1.8,2.8-4.4,2.8
		c-2.7,0-5.1-0.9-7.2-2.5v3.9c1.6,1.1,4.2,1.9,7.2,1.9c4.6,0,8.1-2.2,8.1-6.2c0-3.2-1.6-5.1-5.2-6.3l-3.7-1.3c-1.9-0.6-3-1.3-3-2.9
		c0-1.8,1.7-2.6,4-2.6c2.7,0,4.7,1,6.6,2.3v-3.8c-1.8-1.1-4.1-1.8-6.7-1.8C210.6,31.6,207.1,33.7,207.1,37.5 M160.5,31.6v22.5h13.2
		v-3.4h-9.5v-7h8.6v-3.3h-8.6v-5.4h9.5v-3.4H160.5z M109.4,41.8h4.4c2.6,0,4.1-1.4,4.1-3.4c0-2.1-1.5-3.4-4.1-3.4h-4.4L109.4,41.8
		L109.4,41.8z M109.4,44.9v9.1h-3.9V31.6h8.4c4.8,0,7.8,2.3,7.8,6.7c0,3.8-1.7,5.9-5.4,6.5l8.3,9.3h-4.4l-8-9.1
		C112.1,44.9,109.4,44.9,109.4,44.9z M136.8,41.4l9-9.8h4.7l-10.2,10.8l10.5,11.7H146l-9.3-10.3v10.3H133V31.6h3.8V41.4z M182,31.6
		h19.1v3.4h-7.6v19.1h-3.9V34.9H182V31.6z M83.2,48l3.8-8.6l3.8,8.6C90.7,48,83.2,48,83.2,48z M93.3,54.1h3.8L86.9,31.6L76.8,54.1
		h3.7l1.3-2.9h10.3L93.3,54.1z M65.9,41.3v12.8h3.7V31.6l-11.4,12l-11.4-12v22.5h3.7V41.3l7.7,8.1L65.9,41.3z"/>
</g>
</svg>
