<?xml version="1.0" encoding="utf-8"?>
<!-- Generator: Adobe Illustrator 25.3.1, SVG Export Plug-In . SVG Version: 6.00 Build 0)  -->
<svg version="1.1" id="Laag_1" xmlns="http://www.w3.org/2000/svg" xmlns:xlink="http://www.w3.org/1999/xlink" x="0px" y="0px"
	 viewBox="0 0 269.5 120" style="enable-background:new 0 0 269.5 120;" xml:space="preserve">
<style type="text/css">
	.st0{fill:#D6A742;}
	.st1{fill:none;}
</style>
<path class="st0" d="M48.1,70.2c-2.2-2.1-3.3-5.1-3.3-8.9V47h8.7v14c0,1.9,0.3,3.3,1,4.1s1.7,1.2,2.9,1.2c1.3,0,2.3-0.4,2.9-1.2
	c0.7-0.8,1-2.3,1-4.1V47h8.6v14.2c0,3.8-1.1,6.8-3.3,9c-2.3,2.2-5.3,3.2-9.3,3.2C53.3,73.4,50.2,72.4,48.1,70.2z M77.1,49.7
	c0.9,0,1.4,0.3,1.7,0.6c0.3,0.3,0.6,0.6,0.6,1.6c0,0.9-0.3,1.3-0.6,1.6c-0.3,0.3-0.7,0.6-1.7,0.6s-1.3-0.3-1.7-0.6
	c-0.3-0.3-0.6-0.7-0.6-1.6c0-0.8,0.3-1.2,0.6-1.6C75.8,50.1,76.2,49.7,77.1,49.7z M77.1,47.1c-1.3,0-2.5,0.5-3.4,1.3s-1.3,2-1.3,3.4
	c0,1.4,0.4,2.6,1.3,3.4c0.9,0.9,2.1,1.4,3.5,1.4s2.6-0.4,3.5-1.4c0.9-0.9,1.4-2.1,1.4-3.4c0-1.3-0.4-2.6-1.4-3.4
	C79.7,47.6,78.6,47.1,77.1,47.1z M92.2,53.9h-7.6v-6.8h23.8v6.7h-7.6v19h-8.7C92.2,72.8,92.2,53.9,92.2,53.9z M116.5,71.8
	c-2.1-1.1-3.9-2.7-5.2-4.8c-1.2-2.1-1.9-4.4-1.9-6.9s0.6-4.9,1.9-6.9c1.2-2.1,3-3.6,5.2-4.8c2.2-1.3,4.7-1.9,7.4-1.9
	c2.8,0,5.3,0.6,7.4,1.8c2.1,1.1,3.9,2.7,5.2,4.8c1.2,2,1.9,4.4,1.9,6.9s-0.6,4.9-1.9,6.9c-1.2,2.1-3,3.6-5.2,4.8
	c-2.2,1.1-4.6,1.8-7.4,1.8C121.1,73.4,118.6,72.9,116.5,71.8z M126.8,65.7c0.9-0.5,1.6-1.4,2.1-2.3c0.5-0.9,0.7-2.1,0.7-3.4
	c0-1.3-0.2-2.5-0.7-3.4c-0.5-0.9-1.2-1.8-2.1-2.3c-0.8-0.5-1.9-0.8-2.9-0.8c-2.1,0-4,1.2-5,3.1c-0.5,0.9-0.7,2.1-0.7,3.4
	c0,1.3,0.3,2.5,0.7,3.4c0.5,0.9,1.2,1.8,2.1,2.3s1.9,0.8,2.9,0.8C124.9,66.4,126,66.2,126.8,65.7z M141.6,47.1h12.7
	c2.9,0,5.4,0.5,7.6,1.6c2.1,1,3.9,2.5,5.2,4.4c1.2,2,1.9,4.2,1.9,6.8c0,2.6-0.6,4.9-1.9,6.8s-2.9,3.4-5.2,4.4
	c-2.2,1-4.8,1.6-7.6,1.6h-12.7V47.1z M154,66.1c1.9,0,3.3-0.5,4.4-1.6c1.1-1,1.6-2.6,1.6-4.6c0-2-0.5-3.4-1.6-4.6
	c-1.1-1-2.6-1.6-4.4-1.6h-3.7v12.2L154,66.1L154,66.1z M189.3,68.4h-9.8l-1.8,4.4h-8.8L180.2,47h8.6l11.2,25.9h-9
	C190.9,72.9,189.3,68.4,189.3,68.4z M186.9,62.2l-2.5-6.5l-2.5,6.5H186.9z M215,63.5v9.3h-8.7v-9.5L196.6,47h9.2l5.3,8.9l5.3-8.9
	h8.4C224.8,47,215,63.5,215,63.5z"/>
<rect class="st1" width="269.5" height="120"/>
</svg>
