<?xml version="1.0" encoding="utf-8"?>
<!-- Generator: Adobe Illustrator 25.3.1, SVG Export Plug-In . SVG Version: 6.00 Build 0)  -->
<svg version="1.1" id="Laag_1" xmlns="http://www.w3.org/2000/svg" xmlns:xlink="http://www.w3.org/1999/xlink" x="0px" y="0px"
	 viewBox="0 0 269.5 120" style="enable-background:new 0 0 269.5 120;" xml:space="preserve">
<style type="text/css">
	.st0{fill:none;}
	.st1{fill-rule:evenodd;clip-rule:evenodd;fill:#FFFFFF;}
</style>
<rect class="st0" width="269.5" height="120"/>
<path class="st1" d="M114.1,47.4v16.1h4h4v-6.1c0-4,0-6.3,0.1-6.6c0.1-0.6,0.3-1.2,0.6-1.7c0.5-0.8,1.3-1.2,2.4-1.1
	c1.4,0.1,2.2,0.9,2.4,2.4c0,0.2,0.1,2.7,0.1,6.7l0,6.3h4h4V56c0-6.2,0-7.5-0.1-8.1c-0.3-2.2-1-3.9-2.3-5.2c-1.1-1.1-2.5-1.8-4.1-2
	c-0.7-0.1-2.3,0-2.9,0.1c-1.4,0.3-2.6,0.9-3.6,1.9l-0.6,0.6v-6v-6h-3.9h-3.9V47.4z M198.2,31.6c-0.2,0.5-8.2,19.9-8.2,19.9
	c0,0,2.1,0,4.7,0l4.7,0l4.2-10.1c2.3-5.5,4.2-10.1,4.2-10.1c0,0-2.1,0-4.7,0h-4.7L198.2,31.6z M96.8,40.7c-1.7,0.3-3.1,0.7-4.4,1.6
	c-2.7,1.8-4.5,4.7-5,8.2c-0.2,1.6-0.1,3.6,0.3,5.1c1,3.8,3.6,6.8,7,7.9c1.2,0.4,1.7,0.5,3.2,0.5c1.1,0,1.4,0,1.8-0.1
	c1.6-0.3,2.8-1,3.7-1.9l0.5-0.5v1v1h3.8h3.8V52.3V41.2h-3.8h-3.8v1v1l-0.4-0.4c-0.9-1-2.2-1.6-3.7-2c-0.5-0.1-0.8-0.1-1.7-0.2
	C97.5,40.7,96.9,40.7,96.8,40.7z M147.3,40.7c-2.2,0.3-4.3,1.2-6,2.5c-3.1,2.6-4.7,6.7-4.1,10.9c0.7,4.7,4,8.3,8.6,9.5
	c1,0.3,2,0.4,3.2,0.4c2.2,0,3.8-0.4,5.6-1.3c3.4-1.7,5.7-4.8,6.2-8.7c0.1-0.9,0.1-2.6,0-3.5c-0.3-1.9-1-3.7-2.1-5.2
	c-0.4-0.6-1.5-1.7-2.1-2.2c-1.7-1.3-3.7-2.2-5.9-2.5C149.9,40.6,148.1,40.6,147.3,40.7z M172.4,40.7c-2.1,0.3-4.2,1.1-5.8,2.5
	c-0.6,0.5-1.7,1.6-2.1,2.2c-1.1,1.5-1.8,3.3-2.1,5.2c-0.1,0.9-0.1,2.6,0,3.5c0.7,5,4.3,8.7,9.2,9.7c0.9,0.2,1.5,0.2,2.6,0.2
	c2.1,0,4-0.4,5.7-1.3c4.6-2.4,7-7.5,5.9-12.8c-1-4.9-4.9-8.5-10-9.1C175,40.6,173.3,40.6,172.4,40.7z M61.9,41.2
	c0,0,2.1,5.1,4.7,11.2c2.6,6.1,4.7,11.2,4.7,11.2c0,0-0.8,1.9-1.7,4.1c-0.9,2.2-1.7,4-1.7,4c0,0,1.9,0,4.2,0l4.2,0l6.3-15.2
	c3.5-8.4,6.3-15.2,6.3-15.3c0-0.1-0.8-0.1-4.2-0.1l-4.2,0l-2.6,6.5c-1.4,3.6-2.6,6.5-2.6,6.5c0,0-1.2-2.9-2.6-6.5l-2.5-6.5l-4.3,0
	C63.8,41.2,61.9,41.2,61.9,41.2z M100.7,47.9c1.6,0.4,2.8,1.6,3.3,3.2c0.2,0.6,0.2,1.7,0,2.3c-0.4,1.6-1.6,2.8-3.2,3.2
	c-0.6,0.2-1.7,0.2-2.3,0c-1.4-0.4-2.6-1.4-3.1-2.7c-0.6-1.4-0.4-3.1,0.4-4.3C96.8,48.2,98.7,47.5,100.7,47.9z M149.9,47.9
	c1.7,0.3,3,1.6,3.5,3.3c0.1,0.6,0.1,1.6,0,2.2c-0.4,1.6-1.6,2.7-3.1,3.2c-0.5,0.1-1.8,0.1-2.3,0c-1.3-0.3-2.3-1.2-2.8-2.4
	c-0.3-0.7-0.4-1.1-0.4-2c0-0.8,0.1-1.1,0.3-1.8c0.3-0.8,0.9-1.5,1.6-2C147.5,48,148.7,47.7,149.9,47.9z M175,47.9
	c1.5,0.3,2.7,1.2,3.2,2.6c0.3,0.6,0.3,1,0.3,1.8c0,0.8-0.1,1.3-0.4,2c-0.5,1.2-1.5,2-2.8,2.4c-0.5,0.1-1.8,0.1-2.3,0
	c-1.5-0.4-2.7-1.6-3.1-3.2c-0.2-0.6-0.2-1.7,0-2.3c0.5-2,2.2-3.3,4.2-3.3C174.4,47.9,174.8,47.9,175,47.9z M191.8,53.5
	c-2.3,0.3-4.1,1.9-4.6,4.2c-0.1,0.6-0.1,1.7,0,2.3c0.5,1.9,2,3.4,3.9,3.8c0.2,0.1,0.7,0.1,1.1,0.1c1.5,0,2.7-0.5,3.7-1.5
	c1.1-1.1,1.5-2.2,1.5-3.8c0-1.9-0.9-3.4-2.4-4.4C194.2,53.6,192.8,53.3,191.8,53.5z M126.7,65.6c-1.6,0.5-2.3,2.3-1.5,3.7
	c0.2,0.4,0.7,0.8,1.2,1c0.4,0.2,0.4,0.2,1.1,0.2c0.7,0,0.7,0,1.1-0.2c0.5-0.2,1-0.8,1.3-1.2c0.6-1.3,0.1-2.8-1.3-3.4
	c-0.4-0.2-0.5-0.2-1-0.2C127.1,65.5,126.9,65.5,126.7,65.6z M120.1,65.7c-2.1,0.4-3.5,1.8-4,3.9c-0.1,0.3-0.1,0.8-0.2,1.3l0,0.8H115
	h-0.9l0,1.9l0,1.9l0.8,0l0.8,0v4.4v4.4h2.3h2.3v-4.4v-4.4l1.6,0l1.6,0l0-1.9l0-1.9H122h-1.6l0-0.4c0.1-0.9,0.5-1.4,1.2-1.7
	c0.5-0.1,1.2-0.1,1.7,0.1c0.2,0.1,0.3,0.1,0.4,0.1c0,0,0-0.9,0-1.9V66l-0.3-0.1c-0.6-0.2-1.1-0.3-2-0.3
	C120.9,65.6,120.4,65.6,120.1,65.7z M138.8,71.4c-1,0.2-1.8,0.7-2.3,1.4l-0.3,0.3v-0.7v-0.7H134h-2.3V78v6.3h2.3h2.3l0-3.5
	c0-2,0-3.6,0.1-3.8c0.1-0.5,0.4-1,0.6-1.2c0.7-0.5,1.7-0.4,2.2,0.2c0.3,0.5,0.3,0.4,0.4,4.5l0,3.7h2.3h2.3v-4.2c0-4.4,0-4.9-0.3-5.7
	c-0.2-0.8-0.5-1.3-1.1-1.9c-0.5-0.5-1-0.8-1.7-1C140.5,71.4,139.4,71.3,138.8,71.4z M150.5,71.4c-0.7,0.1-1.9,0.5-2.5,1
	c-1.3,1-2.3,2.5-2.6,4.3c-0.1,0.7-0.1,2.1,0,2.8c0.2,1.2,0.7,2.2,1.3,3c0.8,1.1,2,1.9,3.4,2.1c0.7,0.1,1.9,0.1,2.6-0.1
	c0.7-0.2,1.3-0.5,1.8-1l0.5-0.4v0.6v0.6h2.3h2.3V78v-6.3h-2.3H155v0.7V73l-0.3-0.3c-0.6-0.6-1.5-1.1-2.4-1.2
	C151.8,71.4,150.9,71.3,150.5,71.4z M168.5,71.4c-0.8,0.2-1.8,0.7-2.2,1.4l-0.2,0.3v-0.7v-0.7l-2.3,0l-2.3,0l0,6.3l0,6.3h2.3h2.3
	l0-3.6c0-3.8,0-3.9,0.3-4.4c0.2-0.5,0.7-0.8,1.3-0.8c0.5,0,0.8,0.1,1.1,0.4c0.5,0.5,0.5,0.3,0.5,4.6l0,3.8h2.3h2.3l0-4.6
	c0-4.5,0-4.6-0.1-5.1c-0.1-0.3-0.3-0.8-0.4-1.1c-0.2-0.5-0.4-0.7-0.7-1c-0.5-0.5-0.9-0.8-1.4-0.9C170.4,71.3,169.3,71.3,168.5,71.4z
	 M180.8,71.4c-2,0.3-3.7,1.4-4.7,3.1c-0.3,0.5-0.5,1.1-0.7,1.8c-0.1,0.6-0.2,0.7-0.2,1.7c0,1.1,0.1,1.5,0.3,2.4
	c0.7,2.2,2.5,3.7,4.8,4.2c0.4,0.1,0.7,0.1,1.6,0.1c1.2,0,1.7-0.1,2.6-0.4l0.5-0.2l0-2.1l0-2.1l-0.4,0.2c-0.6,0.3-1,0.5-1.7,0.5
	c-0.7,0-1.1,0-1.7-0.3c-0.5-0.2-0.9-0.6-1.1-1.2c-0.2-0.4-0.2-0.4-0.2-1c0-0.5,0-0.7,0.1-0.9c0.4-0.9,1.3-1.5,2.5-1.6
	c0.9,0,1.2,0.1,2.4,0.7c0,0,0-0.9,0-2.1V72l-0.4-0.1C183.5,71.4,182,71.2,180.8,71.4z M191.3,71.4c-3.5,0.6-5.8,3.7-5.5,7.3
	c0.1,1.3,0.5,2.3,1.1,3.2c0.9,1.3,2.2,2.2,4,2.6c0.8,0.2,2.7,0.2,3.6,0c1.3-0.3,2.4-0.9,3.2-1.7c0.4-0.4,1-1.2,0.9-1.3
	c0,0-0.9-0.4-2-0.8l-1.9-0.7l-0.3,0.3c-0.4,0.4-0.6,0.5-1.1,0.6c-1.4,0.4-2.7-0.4-2.9-1.5l0-0.3l4.4,0l4.4,0l0-1.1
	c0-0.8,0-1.2-0.1-1.5c-0.3-1.4-0.9-2.5-1.8-3.4c-0.9-0.9-1.8-1.4-3.2-1.7C193.4,71.4,191.9,71.3,191.3,71.4z M125.1,78v6.3h2.3h2.3
	V78v-6.3h-2.3h-2.3V78z M193.2,75c0.3,0.1,0.5,0.2,0.8,0.5c0.3,0.3,0.4,0.5,0.5,0.9l0.1,0.2h-2.1c-2.4,0-2.2,0-2-0.5
	C190.8,75.1,192,74.7,193.2,75z M153.2,75.6c0.6,0.2,1.3,0.7,1.6,1.3c0.7,1.4,0,3-1.4,3.5c-0.4,0.2-1.2,0.2-1.7,0
	c-0.8-0.2-1.4-0.9-1.7-1.7c-0.1-0.3-0.1-0.5-0.1-0.9c0-0.4,0.1-0.6,0.2-0.9C150.7,75.8,152,75.3,153.2,75.6z"/>
</svg>
