<?xml version="1.0" encoding="utf-8"?>
<!-- Generator: Adobe Illustrator 25.3.0, SVG Export Plug-In . SVG Version: 6.00 Build 0)  -->
<svg version="1.1" id="Laag_1" xmlns="http://www.w3.org/2000/svg" xmlns:xlink="http://www.w3.org/1999/xlink" x="0px" y="0px"
	 viewBox="0 0 70 70" style="enable-background:new 0 0 70 70;" xml:space="preserve">
<style type="text/css">
	.st0{fill:#E17726;stroke:#E17726;stroke-width:0.5131;stroke-linecap:round;stroke-linejoin:round;}
	.st1{fill:#E27625;stroke:#E27625;stroke-width:0.5131;stroke-linecap:round;stroke-linejoin:round;}
	.st2{fill:#D5BFB2;stroke:#D5BFB2;stroke-width:0.5131;stroke-linecap:round;stroke-linejoin:round;}
	.st3{fill:#233447;stroke:#233447;stroke-width:0.5131;stroke-linecap:round;stroke-linejoin:round;}
	.st4{fill:#CC6228;stroke:#CC6228;stroke-width:0.5131;stroke-linecap:round;stroke-linejoin:round;}
	.st5{fill:#E27525;stroke:#E27525;stroke-width:0.5131;stroke-linecap:round;stroke-linejoin:round;}
	.st6{fill:#F5841F;stroke:#F5841F;stroke-width:0.5131;stroke-linecap:round;stroke-linejoin:round;}
	.st7{fill:#C0AC9D;stroke:#C0AC9D;stroke-width:0.5131;stroke-linecap:round;stroke-linejoin:round;}
	.st8{fill:#161616;stroke:#161616;stroke-width:0.5131;stroke-linecap:round;stroke-linejoin:round;}
	.st9{fill:#763E1A;stroke:#763E1A;stroke-width:0.5131;stroke-linecap:round;stroke-linejoin:round;}
</style>
<path class="st0" d="M66.1,3.1L39.1,23l5-11.8L66.1,3.1z"/>
<path class="st1" d="M3.9,3.1l26.7,20.1l-4.8-11.9L3.9,3.1z"/>
<path class="st1" d="M56.4,49.3l-7.2,11l15.4,4.2L69,49.6L56.4,49.3z"/>
<path class="st1" d="M1.1,49.6l4.4,14.9l15.3-4.2l-7.1-11L1.1,49.6z"/>
<path class="st1" d="M19.9,30.8l-4.3,6.4L30.9,38l-0.5-16.4L19.9,30.8z"/>
<path class="st1" d="M50.1,30.8l-10.6-9.4L39.1,38l15.2-0.7L50.1,30.8z"/>
<path class="st1" d="M20.8,60.3l9.2-4.4L22,49.7L20.8,60.3z"/>
<path class="st1" d="M40,55.8l9.2,4.4L48,49.7L40,55.8z"/>
<path class="st2" d="M49.2,60.3L40,55.8l0.7,6l-0.1,2.5L49.2,60.3z"/>
<path class="st2" d="M20.8,60.3l8.5,4l-0.1-2.5l0.7-6L20.8,60.3z"/>
<path class="st3" d="M29.5,45.7l-7.6-2.2l5.4-2.5L29.5,45.7z"/>
<path class="st3" d="M40.5,45.7l2.2-4.7l5.4,2.5L40.5,45.7z"/>
<path class="st4" d="M20.8,60.3l1.3-11l-8.5,0.2L20.8,60.3z"/>
<path class="st4" d="M47.9,49.3l1.3,11l7.2-10.7L47.9,49.3z"/>
<path class="st4" d="M54.3,37.3L39.1,38l1.4,7.8l2.2-4.7l5.4,2.5L54.3,37.3z"/>
<path class="st4" d="M21.8,43.5l5.4-2.5l2.2,4.7l1.4-7.8l-15.2-0.7L21.8,43.5z"/>
<path class="st5" d="M15.7,37.3L22,49.7l-0.2-6.2L15.7,37.3z"/>
<path class="st5" d="M48.2,43.5L48,49.7l6.4-12.4L48.2,43.5z"/>
<path class="st5" d="M30.9,38l-1.4,7.8l1.8,9.2l0.4-12.1L30.9,38z"/>
<path class="st5" d="M39.1,38l-0.7,4.8l0.4,12.2l1.8-9.2L39.1,38z"/>
<path class="st6" d="M40.5,45.7l-1.8,9.2l1.3,0.9l7.9-6.2l0.2-6.2L40.5,45.7z"/>
<path class="st6" d="M21.8,43.5l0.2,6.2l7.9,6.2l1.3-0.9l-1.8-9.2L21.8,43.5z"/>
<path class="st7" d="M40.7,64.3l0.1-2.5l-0.7-0.6H29.9l-0.7,0.6l0.1,2.5l-8.5-4l3,2.4l6.1,4.2h10.4l6.1-4.2l3-2.4L40.7,64.3z"/>
<path class="st8" d="M40,55.8l-1.3-0.9h-7.5L30,55.8l-0.7,6l0.7-0.6h10.2l0.7,0.6L40,55.8z"/>
<path class="st9" d="M67.2,24.3l2.3-11L66.1,3.1L40,22.4l10,8.5l14.2,4.1l3.1-3.6l-1.4-1l2.2-2l-1.7-1.3l2.2-1.6L67.2,24.3z"/>
<path class="st9" d="M0.5,13.3l2.3,11l-1.5,1.1l2.2,1.6l-1.7,1.3l2.2,2l-1.4,1l3.1,3.6l14.2-4.1l10-8.5L3.9,3.1L0.5,13.3z"/>
<path class="st6" d="M64.2,34.9l-14.2-4.1l4.3,6.4L48,49.7l8.4-0.1H69L64.2,34.9z"/>
<path class="st6" d="M19.9,30.8L5.8,34.9L1.1,49.6h12.6l8.4,0.1l-6.4-12.4L19.9,30.8z"/>
<path class="st6" d="M39.1,38L40,22.4l4.1-11.1H25.9L30,22.4L30.9,38l0.3,4.9l0,12.1h7.5l0-12.1L39.1,38z"/>
</svg>
