<svg xmlns="http://www.w3.org/2000/svg" viewBox="0 0 154.62 314.49"><defs><style>.cls-1{isolation:isolate;}.cls-2{fill:#232323;}.cls-3{fill:#a37c34;}.cls-4{fill:#d5a642;}.cls-5{fill:#333;}.cls-6{fill:#455860;}.cls-7,.cls-8{fill:#fff;opacity:0.5;}.cls-7{mix-blend-mode:color-dodge;}.cls-9{fill:#5e5f5e;}</style></defs><g class="cls-1"><g id="Layer_2" data-name="Layer 2"><g id="Design"><path class="cls-2" d="M36.28,225.64,0,245V220.5a19,19,0,0,1,1.91-8.83l15.67-29.82c3.37-6.41,10.67-7.55,18.7-2.91h0Z"/><path class="cls-2" d="M118.34,225.64,154.62,245V220.5a19.07,19.07,0,0,0-1.9-8.83L137,181.85c-3.37-6.41-10.67-7.55-18.7-2.91h0Z"/><path class="cls-2" d="M60,275.27H94.59v4.88h0s0,.09,0,.14c0,5.55-7.74,10.06-17.28,10.06S60,285.84,60,280.29c0-.05,0-.1,0-.14h0Z"/><path class="cls-2" d="M36.05,232.06h82.53v24.52h0c0,.11,0,.22,0,.33,0,13.27-18.48,24-41.27,24s-41.26-10.76-41.26-24c0-.11,0-.22,0-.33h0Z"/><path class="cls-3" d="M117.91,55.75c-.64-.92-1.29-1.83-1.94-2.74-6.59,8.61-21.43,14.61-38.67,14.61s-32-6-38.64-14.62c-.65.91-1.31,1.82-1.95,2.75-20,29-28.1,64.57-23.92,99.54l9.71,81.23h0c0,.14,0,.29,0,.44,0,17.62,24.54,31.91,54.81,31.91s54.81-14.29,54.81-31.91c0-.15,0-.3,0-.44h0l9.71-81.23C146,120.32,137.91,84.74,117.91,55.75Z"/><path class="cls-4" d="M85.57,140.74c1.93-48.29-.77-97.26-8-140.32l37.75,51.71q1.3,1.78,2.57,3.62c20,29,28.1,64.57,23.92,99.54l-9.71,81.23h0c0,.14,0,.29,0,.44,0,17-22.87,30.91-51.68,31.86Z"/><path class="cls-2" d="M85.61,176.87c0,7.58,2.62,12.94,6.87,15.54.12.08,4.08,2.59,4.21,2.66,4.42,2.47,1.6-3.14,8.31-7,13.52-7.81,24.47-26.7,24.47-42.21,0-7.67,7.09-7.73,2.75-10.3l-5-2.78c-4.41-2.39-10.44-2-17.08,1.89C96.57,142.46,85.61,161.36,85.61,176.87Z"/><ellipse class="cls-5" cx="114.91" cy="165.6" rx="34.5" ry="19.92" transform="translate(-86.04 181.23) rotate(-59.69)"/><path class="cls-6" d="M95,177.07c0,12.6,8.9,17.67,19.87,11.33s19.88-21.68,19.88-34.27-8.9-17.67-19.88-11.33S95,164.48,95,177.07Z"/><path class="cls-2" d="M111,186.76c11-6.33,19.87-21.68,19.87-34.27,0-5.81-1.9-10-5-12.24,5.37,1,8.92,5.93,8.92,13.88,0,12.59-8.9,27.94-19.88,34.27-5.91,3.42-11.22,3.51-14.86.91C103.19,189.88,107,189.1,111,186.76Z"/><path class="cls-7" d="M114.2,136.9c6.47-3.74,13.18-3.49,16.28-2-4.08-1.15-9.85-.46-15.33,2.71-13.52,7.8-24.47,26.7-24.47,42.21,0,8.08,3.68,13.79,8.43,16.17-5-1.84-9.39-7.65-9.39-16.86C89.72,163.6,100.68,144.7,114.2,136.9Z"/><path class="cls-5" d="M117.94,259.18l28.88,55.31,5.84-3.45V287.62a34.11,34.11,0,0,0-1.83-10.55l-15-45.85c-3.23-9.87-10.22-19-17.9-23.47h0l-5.62,3.4Z"/><path class="cls-2" d="M112.1,262.63l34.72,51.86V291.07A34.52,34.52,0,0,0,145,280.51l-15-45.84c-3.23-9.87-10.22-19-17.9-23.47h0Z"/><path class="cls-8" d="M146.31,291.71a34.47,34.47,0,0,0-1.83-10.56l-15-45.85c-3.08-9.43-9.6-18.19-16.87-22.83v-1.39h0c7.68,4.43,14.67,13.59,17.9,23.46l15,45.85a34.11,34.11,0,0,1,1.83,10.55v23.42l-1-1.52Z"/><path class="cls-2" d="M36.69,259.18,7.81,314.49,2,311V287.62a34.41,34.41,0,0,1,1.83-10.55l15-45.85c3.22-9.87,10.21-19,17.9-23.46h0l5.61,3.39Z"/><path class="cls-5" d="M42.53,262.63,7.81,314.49V291.07a34.49,34.49,0,0,1,1.82-10.56l15-45.84c3.23-9.87,10.21-19,17.9-23.47h0Z"/><path class="cls-8" d="M8.86,280.51l15-45.85c3.23-9.86,10.22-19,17.9-23.46h0v.3c-6.95,4.75-13.11,13.22-16.08,22.3l-15,45.85a34.49,34.49,0,0,0-1.82,10.56v21.56L7,314.49V291.07A34.49,34.49,0,0,1,8.86,280.51Z"/><path class="cls-5" d="M77.3,0,116,53c-6.58,8.62-21.44,14.63-38.69,14.63S45.23,61.61,38.65,53C38.86,52.69,77.3,0,77.3,0Z"/><path class="cls-9" d="M116,53c-5.59,7.32-17.15,12.77-31.07,14.25A633.79,633.79,0,0,0,77.3,0Z"/></g></g></g></svg>