<?xml version="1.0" encoding="utf-8"?>
<!-- Generator: Adobe Illustrator 25.3.1, SVG Export Plug-In . SVG Version: 6.00 Build 0)  -->
<svg version="1.1" id="Laag_1" xmlns="http://www.w3.org/2000/svg" xmlns:xlink="http://www.w3.org/1999/xlink" x="0px" y="0px"
	 viewBox="0 0 38 38" style="enable-background:new 0 0 38 38;" xml:space="preserve">
<style type="text/css">
	.st0{fill:#D5A642;}
</style>
<g>
	<path class="st0" d="M31.4,19c0.9,0,1.7,0.3,2.4,1s1,1.5,1,2.4v11.2c0,0.9-0.3,1.7-1,2.4s-1.5,1-2.4,1H6.6c-0.9,0-1.7-0.3-2.4-1
		s-1-1.5-1-2.4V22.4c0-0.9,0.3-1.7,1-2.4s1.5-1,2.4-1h1.7v-7.2c0-1.9,0.5-3.7,1.4-5.3s2.2-3,3.9-3.9S17,1,19,1s3.7,0.5,5.4,1.4
		s2.9,2.3,3.9,3.9s1.4,3.4,1.4,5.3v1.1c0,0.5-0.2,0.9-0.5,1.2s-0.7,0.5-1.2,0.5h-2.2c-0.5,0-0.9-0.2-1.2-0.5s-0.5-0.7-0.5-1.2v-1.1
		c0-1.4-0.5-2.6-1.5-3.6S20.3,6.6,19,6.6s-2.6,0.5-3.6,1.5s-1.5,2.2-1.5,3.6V19H31.4z"/>
</g>
</svg>
