<?xml version="1.0" encoding="utf-8"?>
<!-- Generator: Adobe Illustrator 25.3.1, SVG Export Plug-In . SVG Version: 6.00 Build 0)  -->
<svg version="1.1" id="Laag_1" xmlns="http://www.w3.org/2000/svg" xmlns:xlink="http://www.w3.org/1999/xlink" x="0px" y="0px"
	 viewBox="0 0 45 38" style="enable-background:new 0 0 45 38;" xml:space="preserve">
<g transform="translate(0,-952.36218)">
	<g>
		<path d="M8.9,954L1,964.9c-0.3,0.4-0.2,0.9,0.1,1.2l20.7,22.7c0.4,0.4,1.1,0.4,1.4,0L44,966.1c0.3-0.3,0.3-0.9,0.1-1.2L36.1,954
			c-0.2-0.2-0.5-0.4-0.8-0.4H9.7C9.3,953.6,9,953.8,8.9,954z M11.1,955.6h9.3l-6.3,7.7L11.1,955.6z M24.6,955.6h9.3l-3,7.7
			L24.6,955.6z M22.5,956.2l6.8,8.3H15.7L22.5,956.2z M35.6,956.6l5.7,7.8h-8.7L35.6,956.6z M9.4,956.6l3.1,7.8H3.7L9.4,956.6z
			 M4,966.4h9.2L20,984L4,966.4z M15.3,966.4h14.3l-7.2,18.5L15.3,966.4z M31.8,966.4H41l-16,17.5L31.8,966.4z"/>
		<path d="M22.5,989.4c-0.4,0-0.7-0.1-0.9-0.4L0.9,966.3c-0.4-0.4-0.4-1.1-0.1-1.6l7.9-10.9c0.2-0.3,0.6-0.5,1-0.5h25.7
			c0.4,0,0.8,0.2,1,0.5l7.9,10.9c0.3,0.5,0.3,1.1-0.1,1.6L23.4,989C23.2,989.2,22.9,989.4,22.5,989.4z M9.1,954.2L1.2,965
			c-0.2,0.3-0.2,0.7,0.1,0.9L22,988.6c0.3,0.3,0.8,0.3,1.1,0L43.8,966c0.2-0.2,0.3-0.7,0.1-0.9l-7.9-10.9c-0.1-0.2-0.4-0.3-0.6-0.3
			H9.7C9.4,953.8,9.2,954,9.1,954.2z M22.5,985.6L15,966.2H30L22.5,985.6z M15.7,966.7l6.8,17.5l6.8-17.5H15.7z M20.7,985.1
			L3.5,966.2h9.9L20.7,985.1z M4.6,966.7l14.7,16.1L13,966.7H4.6z M24.3,985.1l7.3-18.9h9.9L24.3,985.1z M32,966.7l-6.2,16.1
			l14.7-16.1H32z M41.8,964.7h-9.6l3.3-8.6L41.8,964.7z M32.9,964.2h7.9l-5.1-7.1L32.9,964.2z M29.8,964.7H15.2l7.3-8.9L29.8,964.7z
			 M16.2,964.2h12.6l-6.3-7.7L16.2,964.2z M12.8,964.7H3.2l6.2-8.6L12.8,964.7z M4.2,964.2h7.9l-2.8-7.1L4.2,964.2z M31,963.8
			l-6.9-8.4h10.2L31,963.8z M25.1,955.8l5.7,7l2.7-7H25.1z M14,963.8l-3.3-8.4h10.2L14,963.8z M11.5,955.8l2.7,7l5.7-7H11.5z"/>
	</g>
</g>
</svg>
