<?xml version="1.0" encoding="utf-8"?>
<!-- Generator: Adobe Illustrator 25.3.1, SVG Export Plug-In . SVG Version: 6.00 Build 0)  -->
<svg version="1.1" id="Laag_1" xmlns="http://www.w3.org/2000/svg" xmlns:xlink="http://www.w3.org/1999/xlink" x="0px" y="0px"
	 viewBox="0 0 38 38" style="enable-background:new 0 0 38 38;" xml:space="preserve">
<g>
	<g>
		<path d="M30.6,16H28v-5.5c0-5-4-9-9-9s-9,4-9,9V16H7.4c-1.4,0-2.5,1.1-2.5,2.5v15.6c0,1.4,1.1,2.5,2.5,2.5h23.3
			c1.4,0,2.5-1.1,2.5-2.5V18.5C33.1,17.1,32,16,30.6,16z M11.6,10.5c0-4.1,3.3-7.4,7.4-7.4s7.4,3.3,7.4,7.4V16H11.6V10.5z
			 M31.5,34.1c0,0.5-0.4,0.8-0.8,0.8H7.4c-0.5,0-0.8-0.4-0.8-0.8V18.5c0-0.5,0.4-0.8,0.8-0.8h23.3c0.5,0,0.8,0.4,0.8,0.8L31.5,34.1
			L31.5,34.1z"/>
		<path d="M30.6,37H7.4c-1.6,0-2.9-1.3-2.9-2.9V18.5c0-1.6,1.3-2.9,2.9-2.9h2.2v-5.1C9.5,5.3,13.8,1,19,1c5.2,0,9.5,4.3,9.5,9.5v5.1
			h2.2c1.6,0,2.9,1.3,2.9,2.9v15.6C33.6,35.7,32.3,37,30.6,37z M7.4,16.5c-1.1,0-2,0.9-2,2v15.6c0,1.1,0.9,2,2,2h23.3
			c1.1,0,2-0.9,2-2V18.5c0-1.1-0.9-2-2-2h-3.1v-6C27.5,5.8,23.7,2,19,2c-4.7,0-8.5,3.8-8.5,8.5v6H7.4z M30.6,35.4H7.4
			c-0.7,0-1.3-0.6-1.3-1.3V18.5c0-0.7,0.6-1.3,1.3-1.3h23.3c0.7,0,1.3,0.6,1.3,1.3l0,15.6C31.9,34.8,31.4,35.4,30.6,35.4z M7.4,18.2
			c-0.2,0-0.3,0.1-0.3,0.3v15.6c0,0.2,0.1,0.3,0.3,0.3h23.3c0.2,0,0.3-0.1,0.3-0.3l0-15.6c0-0.2-0.1-0.3-0.3-0.3H7.4z M26.9,16.5
			H11.1v-6c0-4.3,3.5-7.9,7.9-7.9c4.3,0,7.9,3.5,7.9,7.9V16.5z M12.1,15.6h13.8v-5.1c0-3.8-3.1-6.9-6.9-6.9s-6.9,3.1-6.9,6.9V15.6z"
			/>
	</g>
	<g>
		<path d="M21.5,21c-1-0.8-2.3-1.1-3.5-0.8c-1.5,0.3-2.6,1.5-3,3c-0.4,1.6,0.2,3.3,1.5,4.3V30c0,1.4,1.1,2.5,2.5,2.5
			s2.5-1.1,2.5-2.5v-2.5c1-0.8,1.6-2,1.6-3.3C23.1,23,22.5,21.8,21.5,21z M20.2,26.3c-0.3,0.1-0.4,0.4-0.4,0.7V30
			c0,0.5-0.4,0.8-0.8,0.8s-0.8-0.4-0.8-0.8v-2.9c0-0.3-0.2-0.6-0.4-0.7c-1-0.6-1.4-1.6-1.2-2.7c0.2-0.9,0.9-1.6,1.8-1.8
			c0.8-0.2,1.5,0,2.1,0.5c0.6,0.5,0.9,1.2,0.9,1.9C21.5,25.1,21,25.9,20.2,26.3z"/>
		<path d="M19,32.9c-1.6,0-2.9-1.3-2.9-2.9v-2.2c-1.3-1.1-1.9-2.9-1.5-4.6c0.4-1.6,1.7-2.9,3.4-3.3c1.4-0.3,2.8,0,3.9,0.9l0,0
			c1.1,0.9,1.7,2.2,1.7,3.6c0,1.3-0.6,2.6-1.6,3.5V30C21.9,31.6,20.6,32.9,19,32.9z M19,20.6c-0.3,0-0.6,0-0.9,0.1
			c-1.3,0.3-2.3,1.3-2.6,2.6c-0.3,1.4,0.2,2.9,1.3,3.8l0.2,0.1V30c0,1.1,0.9,2,2,2c1.1,0,2-0.9,2-2v-2.7l0.2-0.1
			c0.9-0.7,1.4-1.8,1.4-2.9c0-1.1-0.5-2.1-1.4-2.8h0C20.6,20.9,19.8,20.6,19,20.6z M19,31.3c-0.7,0-1.3-0.6-1.3-1.3v-2.9
			c0-0.1-0.1-0.2-0.2-0.3c-1.2-0.7-1.7-2-1.4-3.3c0.3-1,1.1-1.9,2.1-2.1c0.9-0.2,1.8,0,2.5,0.6c0.7,0.6,1.1,1.4,1.1,2.3
			c0,1-0.5,2-1.5,2.5l0,0c-0.1,0.1-0.2,0.2-0.2,0.3V30C20.3,30.7,19.7,31.3,19,31.3z M19,22.3c-0.2,0-0.3,0-0.5,0.1
			c-0.7,0.2-1.2,0.7-1.4,1.4c-0.2,0.9,0.1,1.8,0.9,2.2c0.4,0.2,0.6,0.7,0.6,1.1V30c0,0.2,0.1,0.3,0.3,0.3s0.3-0.1,0.3-0.3v-2.9
			c0-0.5,0.2-0.9,0.6-1.1l0,0c0.6-0.4,1-1,1-1.7c0-0.6-0.3-1.2-0.7-1.5C19.9,22.4,19.4,22.3,19,22.3z"/>
	</g>
</g>
</svg>
