<?xml version="1.0" encoding="utf-8"?>
<!-- Generator: Adobe Illustrator 25.3.1, SVG Export Plug-In . SVG Version: 6.00 Build 0)  -->
<svg version="1.1" id="Laag_1" xmlns="http://www.w3.org/2000/svg" xmlns:xlink="http://www.w3.org/1999/xlink" x="0px" y="0px"
	 viewBox="0 0 44 38" style="enable-background:new 0 0 44 38;" xml:space="preserve">
<g>
	<path d="M4.7,1c-2,0-3.6,1.6-3.6,3.6v26.8c0,3.1,2.5,5.7,5.7,5.7h30.5c3.1,0,5.7-2.5,5.7-5.7V12.4c0-3.1-2.5-5.7-5.7-5.7H23.9
		l-2.4-4C20.9,1.7,19.7,1,18.4,1H4.7z M37.2,34.1H6.8c-1.5,0-2.8-1.2-2.8-2.8V9.7h33.2c1.5,0,2.8,1.2,2.8,2.8v18.9
		C40,32.9,38.8,34.1,37.2,34.1z M20.5,6.8H4V4.6c0-0.4,0.3-0.7,0.7-0.7h13.8c0.2,0,0.4,0.1,0.6,0.3L20.5,6.8z"/>
</g>
</svg>
