<?xml version="1.0" encoding="utf-8"?>
<!-- Generator: Adobe Illustrator 25.3.1, SVG Export Plug-In . SVG Version: 6.00 Build 0)  -->
<svg version="1.1" id="Laag_1" xmlns="http://www.w3.org/2000/svg" xmlns:xlink="http://www.w3.org/1999/xlink" x="0px" y="0px"
	 viewBox="0 0 38 38" style="enable-background:new 0 0 38 38;" xml:space="preserve">
<g>
	<g>
		<g>
			<path d="M19,9.2c-1.3,0-2.4,1.1-2.4,2.4S17.7,14,19,14s2.4-1.1,2.4-2.4S20.3,9.2,19,9.2z"/>
		</g>
		<g>
			<path d="M19,16.6c-1.1,0-2,0.9-2,2v8.3c0,1.1,0.9,2,2,2s2-0.9,2-2v-8.3C21,17.4,20.1,16.6,19,16.6z"/>
		</g>
		<g>
			<path d="M19,1C9.1,1,1,9.1,1,19s8.1,18,18,18s18-8.1,18-18S28.9,1,19,1z M18.9,34.1c-3.8,0-7.6-1.4-10.5-4.3
				C5.5,27,3.9,23.2,3.9,19.2c0-4,1.5-7.8,4.3-10.7c0.1-0.1,0.1-0.1,0.2-0.2c5.8-5.9,15.3-6,21.3-0.2c2.9,2.8,4.5,6.6,4.5,10.6
				c0,4-1.5,7.8-4.3,10.7c-0.1,0.1-0.1,0.1-0.2,0.2C26.7,32.6,22.8,34.1,18.9,34.1z"/>
		</g>
		<g>
			<path d="M19,1C9.1,1,1,9.1,1,19s8.1,18,18,18s18-8.1,18-18S28.9,1,19,1z M18.9,34.1c-3.8,0-7.6-1.4-10.5-4.3
				C5.5,27,3.9,23.2,3.9,19.2c0-4,1.5-7.8,4.3-10.7c0.1-0.1,0.1-0.1,0.2-0.2c5.8-5.9,15.3-6,21.3-0.2c2.9,2.8,4.5,6.6,4.5,10.6
				c0,4-1.5,7.8-4.3,10.7c-0.1,0.1-0.1,0.1-0.2,0.2C26.7,32.6,22.8,34.1,18.9,34.1z"/>
		</g>
	</g>
</g>
</svg>
