<?xml version="1.0" encoding="utf-8"?>
<!-- Generator: Adobe Illustrator 25.3.1, SVG Export Plug-In . SVG Version: 6.00 Build 0)  -->
<svg version="1.1" id="Laag_1" xmlns="http://www.w3.org/2000/svg" xmlns:xlink="http://www.w3.org/1999/xlink" x="0px" y="0px"
	 viewBox="0 0 38 38" style="enable-background:new 0 0 38 38;" xml:space="preserve">
<g>
	<path d="M2,37c0,0,4.2-0.4,6.1-2.4c1.9-2,1.9-3.7,0.9-4.7c-0.4-0.4-1-0.7-1.6-0.7c-0.9,0-2,0.5-3.1,1.7C2.3,32.9,2,37,2,37"/>
	<path d="M35.8,1.4c0-0.2-0.1-0.3-0.4-0.3c-0.6-0.1-2.6-0.2-4.8,0.1c-2.2,0.3-2.2,0.4-3.3,0.8c-1.2,0.4-2.4,0.9-3.5,1.5
		c-1.1,0.6-2.1,1.4-3.1,2.2c-0.6,0.5-1.1,1-1.7,1.6c-0.8,0.9-1.6,1.8-2.3,2.8c-0.7,0.9-1.3,1.9-1.9,2.9c-0.1,0.2-0.3,0.5-0.4,0.8
		c-0.3,0.6-0.7,0.9-1.3,1c-0.9,0.2-1.7,0.3-2.6,0.7c-1.1,0.5-2.1,1.1-3,1.9C4.3,20.1,3,23.5,3,23.5c0,0,0,0,0.1,0
		c1.7,0.5,3.4,1,5,1.6c0.3,0.1,0.6,0.2,0.8,0.3C9,25.5,9.1,25.6,9,25.8c-0.1,0.5-0.3,1-0.4,1.6c-0.1,0.3-0.1,0.3,0.2,0.5
		c0.4,0.2,0.9,0.4,1.1,0.6c0.3,0.3,0.5,0.6,0.7,1.1c0.1,0.3,0.1,0.3,0.5,0.2c0.5-0.2,1-0.3,1.5-0.5c0.2-0.1,0.2,0,0.3,0.1
		c0.1,0.3,0.3,0.5,0.4,0.8c0.6,1.6,1.3,3.3,1.9,4.9c0,0,0,0.1,0.1,0.1c0,0,3.3-1.5,5.9-4.8c0.7-1,1.3-2,1.7-3.1
		c0.3-0.9,0.4-1.7,0.5-2.6c0.1-0.6,0.4-1.1,1-1.4c0.3-0.1,0.5-0.3,0.7-0.4c1-0.6,1.9-1.3,2.8-2.1c0.9-0.8,1.8-1.6,2.6-2.5
		c0.5-0.6,1-1.2,1.5-1.8c0.8-1,1.4-2.1,2-3.2c0.6-1.1,1-2.3,1.3-3.6c0.3-1.1,0.4-1.2,0.5-3.4C36.1,4.1,35.9,2,35.8,1.4z M24.7,14.9
		c-2.5,2.6-5.4,4-5.4,4c0,0,1.1-3,3.6-5.6c2.5-2.6,4.9-4.4,5.4-4C28.8,9.8,27.2,12.3,24.7,14.9z"/>
</g>
</svg>
