<?xml version="1.0" encoding="utf-8"?>
<!-- Generator: Adobe Illustrator 25.2.3, SVG Export Plug-In . SVG Version: 6.00 Build 0)  -->
<svg version="1.1" id="Laag_1" xmlns="http://www.w3.org/2000/svg" xmlns:xlink="http://www.w3.org/1999/xlink" x="0px" y="0px"
	 viewBox="0 0 64 64" style="enable-background:new 0 0 64 64;" xml:space="preserve">
<g>
	<path d="M18.7,12.8c-3.3,0-5.9,2.7-5.9,5.9v26.7c0,3.3,2.7,5.9,5.9,5.9h26.7c1.4,0,2.6-1.2,2.6-2.6v-6.8h3.3V31.4h-3.3v-6.8
		c0-1.4-1.2-2.6-2.6-2.6h-4.1v-6.8c0-1.4-1.2-2.6-2.6-2.6H18.7z M45.4,48.8H18.7c-1.9,0-3.4-1.5-3.4-3.4V23.6l1.1,0.5
		c0.7,0.3,1.5,0.5,2.4,0.5h26.7v6.8h-6.1c-2.9,0-5.2,2.4-5.2,5.3c0,2.9,2.4,5.2,5.2,5.2h6.1V48.8z M48.8,39.4h-9.4
		c-1.5,0-2.8-1.2-2.8-2.8s1.2-2.8,2.8-2.8h9.4V39.4z M38.8,22.1H18.7c-1.9,0-3.4-1.5-3.4-3.4c0-1.9,1.5-3.4,3.4-3.4h20.1V22.1z"/>
</g>
</svg>
