<?xml version="1.0" encoding="utf-8"?>
<!-- Generator: Adobe Illustrator 25.2.3, SVG Export Plug-In . SVG Version: 6.00 Build 0)  -->
<svg version="1.1" id="Laag_1" xmlns="http://www.w3.org/2000/svg" xmlns:xlink="http://www.w3.org/1999/xlink" x="0px" y="0px"
	 viewBox="0 0 70 70" style="enable-background:new 0 0 70 70;" xml:space="preserve">
<style type="text/css">
	.st0{fill:#D5A642;}
</style>
<path class="st0" d="M58.6,0H11.3c-4,0-7.2,3.2-7.2,7.2v47.3c0,4,3.2,7.2,7.2,7.2h40l-1.9-6.5l4.5,4.2l4.3,3.9l7.6,6.6V7.2
	C65.9,3.2,62.6,0,58.6,0z M45,45.7c0,0-1.3-1.5-2.3-2.8c4.6-1.3,6.4-4.2,6.4-4.2c-1.4,1-2.8,1.6-4.1,2.1c-1.8,0.7-3.5,1.2-5.1,1.5
	c-3.4,0.6-6.5,0.5-9.1,0c-2-0.4-3.7-0.9-5.2-1.5c-0.8-0.3-1.7-0.7-2.6-1.2c-0.1-0.1-0.2-0.1-0.3-0.2c-0.1,0-0.1-0.1-0.1-0.1
	c-0.6-0.4-1-0.6-1-0.6s1.7,2.8,6.2,4.1c-1.1,1.3-2.4,2.9-2.4,2.9c-7.8-0.2-10.8-5.3-10.8-5.3c0-11.3,5.1-20.4,5.1-20.4
	c5.1-3.8,9.9-3.7,9.9-3.7l0.4,0.4c-6.4,1.8-9.2,4.6-9.2,4.6s0.8-0.4,2.1-1c3.8-1.7,6.8-2.1,8-2.2c0.2,0,0.4-0.1,0.6-0.1
	c2.2-0.3,4.6-0.4,7.1-0.1c3.4,0.4,7,1.4,10.6,3.4c0,0-2.8-2.6-8.8-4.4l0.5-0.6c0,0,4.8-0.1,9.9,3.7c0,0,5.1,9.1,5.1,20.4
	C55.8,40.4,52.8,45.5,45,45.7z"/>
<path class="st0" d="M41.5,29.4c-2,0-3.6,1.7-3.6,3.9s1.6,3.9,3.6,3.9c2,0,3.6-1.7,3.6-3.9S43.5,29.4,41.5,29.4z M28.6,29.4
	c-2,0-3.6,1.7-3.6,3.9s1.6,3.9,3.6,3.9c2,0,3.6-1.7,3.6-3.9C32.2,31.1,30.6,29.4,28.6,29.4z"/>
</svg>
