<?xml version="1.0" encoding="utf-8"?>
<!-- Generator: Adobe Illustrator 25.2.3, SVG Export Plug-In . SVG Version: 6.00 Build 0)  -->
<svg version="1.1" id="Laag_1" xmlns="http://www.w3.org/2000/svg" xmlns:xlink="http://www.w3.org/1999/xlink" x="0px" y="0px"
	 viewBox="0 0 70 70" style="enable-background:new 0 0 70 70;" xml:space="preserve">
<style type="text/css">
	.st0{fill:#D5A642;}
</style>
<g>
	<path class="st0" d="M42.4,46.9c-1.6,1.6-4.9,2.1-7.3,2.1c-2.4,0-5.8-0.6-7.3-2.1c-0.4-0.4-1-0.4-1.4,0s-0.4,1,0,1.4
		c2.5,2.5,7.2,2.7,8.6,2.7c1.4,0,6.1-0.2,8.6-2.7c0.4-0.4,0.4-0.9,0.1-1.4C43.4,46.5,42.8,46.5,42.4,46.9z"/>
	<path class="st0" d="M43,35c-2,0-3.6,1.6-3.6,3.6c0,2,1.6,3.6,3.6,3.6s3.6-1.6,3.6-3.6C46.7,36.6,45,35,43,35z"/>
	<path class="st0" d="M30.6,38.6c0-2-1.6-3.6-3.6-3.6c-2,0-3.6,1.6-3.6,3.6c0,2,1.6,3.6,3.6,3.6C29,42.3,30.6,40.6,30.6,38.6z"/>
	<path class="st0" d="M35,0C15.7,0,0,15.7,0,35s15.7,35,35,35s35-15.7,35-35S54.3,0,35,0z M55.4,39.7c0.1,0.5,0.1,1,0.1,1.5
		c0,7.9-9.1,14.2-20.4,14.2c-11.3,0-20.4-6.3-20.4-14.2c0-0.5,0-1.1,0.1-1.6c-1.8-0.8-3-2.6-3-4.7c0-2.8,2.3-5.1,5.1-5.1
		c1.4,0,2.6,0.6,3.5,1.4c3.5-2.6,8.4-4.2,13.8-4.3l2.6-12.2c0.1-0.2,0.2-0.5,0.4-0.6c0.2-0.1,0.5-0.2,0.7-0.1l8.5,1.8
		c0.6-1.2,1.8-2,3.2-2c2,0,3.6,1.6,3.6,3.6c0,2-1.6,3.6-3.6,3.6c-2,0-3.6-1.6-3.6-3.5L38.4,16L36.1,27c5.3,0.2,10.2,1.8,13.6,4.3
		c0.9-0.9,2.1-1.4,3.5-1.4c2.8,0,5.1,2.3,5.1,5.1C58.3,37.1,57.1,38.9,55.4,39.7z"/>
</g>
</svg>
