<?xml version="1.0" encoding="utf-8"?>
<!-- Generator: Adobe Illustrator 25.1.0, SVG Export Plug-In . SVG Version: 6.00 Build 0)  -->
<svg version="1.1" id="Layer_1" xmlns="http://www.w3.org/2000/svg" xmlns:xlink="http://www.w3.org/1999/xlink" x="0px" y="0px"
	 viewBox="0 0 49 49" style="enable-background:new 0 0 49 49;" xml:space="preserve">
<style type="text/css">
	.st0{fill:#d5a642;}
</style>
<g>
	<path class="st0" d="M30.7,17.9c1.4,0,2.6-1.2,2.6-2.6s-1.2-2.6-2.6-2.6c-1.4,0-2.6,1.2-2.6,2.6S29.2,17.9,30.7,17.9z"/>
	<path class="st0" d="M14.2,22c-1.4,0-2.6,1.2-2.6,2.6c0,1.4,1.2,2.6,2.6,2.6s2.6-1.2,2.6-2.6C16.8,23.1,15.6,22,14.2,22z"/>
	<path class="st0" d="M24.5,0C11,0,0,11,0,24.5C0,38,11,49,24.5,49S49,38,49,24.5C49,11,38,0,24.5,0z M19.7,25.9l7,3.9
		c1.1-1.1,2.5-1.6,4-1.6c3.1,0,5.7,2.5,5.7,5.7c0,3.1-2.5,5.7-5.7,5.7c-0.4,0-0.9-0.1-1.3-0.2c-3-0.7-4.9-3.8-4.2-6.8l-7-3.9
		c-2.2,2.2-5.8,2.2-8,0c-2.2-2.2-2.2-5.8,0-8c2.2-2.2,5.8-2.2,8,0l7-3.9c-0.5-1.9,0.1-4,1.5-5.4c2.2-2.2,5.9-2.2,8.1,0
		s2.2,5.9,0,8.1s-5.9,2.2-8.1,0l-7,3.9C19.9,24.1,19.9,25,19.7,25.9z"/>
	<path class="st0" d="M30.7,36.4c1.4,0,2.6-1.2,2.6-2.6c0-1.4-1.2-2.6-2.6-2.6c-1.4,0-2.6,1.2-2.6,2.6
		C28.1,35.2,29.2,36.4,30.7,36.4z"/>
</g>
</svg>