<?xml version="1.0" encoding="utf-8"?>
<!-- Generator: Adobe Illustrator 25.2.3, SVG Export Plug-In . SVG Version: 6.00 Build 0)  -->
<svg version="1.1" id="Laag_1" xmlns="http://www.w3.org/2000/svg" xmlns:xlink="http://www.w3.org/1999/xlink" x="0px" y="0px"
	 viewBox="0 0 70 70" style="enable-background:new 0 0 70 70;" xml:space="preserve">
<style type="text/css">
	.st0{fill:#00ACEE;}
</style>
<g>
	<path class="st0" d="M62.8,22.6c0,19-14.4,40.8-40.8,40.8c-8.1,0-15.7-2.4-22-6.4c1.2,0.1,2.3,0.2,3.5,0.2c6.7,0,12.9-2.3,17.8-6.1
		C15,50.9,9.7,46.8,7.9,41.1c0.9,0.1,1.8,0.2,2.7,0.2c1.3,0,2.6-0.2,3.8-0.5C7.8,39.5,2.8,33.7,2.8,26.7v-0.2
		c1.9,1.1,4.1,1.7,6.5,1.8c-3.9-2.6-6.4-7-6.4-11.9c0-2.7,0.7-5.1,2-7.2c7.1,8.7,17.7,14.4,29.6,15c-0.2-1.1-0.4-2.2-0.4-3.3
		c0-7.9,6.4-14.3,14.3-14.3c4.1,0,7.9,1.7,10.5,4.5c3.2-0.6,6.4-1.8,9.1-3.5c-1.1,3.3-3.3,6.1-6.3,7.9c2.9-0.3,5.7-1.1,8.3-2.2
		c-2,2.8-4.4,5.4-7.2,7.4C62.8,21.4,62.8,22,62.8,22.6z"/>
</g>
</svg>
