<?xml version="1.0" encoding="UTF-8"?>
<svg width="70px" height="70px" viewBox="0 0 70 70" version="1.1" xmlns="http://www.w3.org/2000/svg" xmlns:xlink="http://www.w3.org/1999/xlink">
    <!-- Generator: Sketch 55.2 (78181) - https://sketchapp.com -->
    <title>Combined Shape</title>
    <desc>Created with Sketch.</desc>
    <g id="Page-1" stroke="none" stroke-width="1" fill="none" fill-rule="evenodd">
        <path d="M14.9230894,33.444065 L14.9253659,33.444065 L14.9253659,51.7453659 C14.9240655,52.9859741 13.992574,54.0283632 12.7599187,54.1686179 C11.3917886,54.3291057 10.2410569,54.444065 9.31682927,54.5254472 C7.62777294,54.6765244 6.00413938,53.835413 5.15325203,52.3685366 C-1.37110967,41.0091957 -0.901096442,26.9351282 6.36658948,16.0363823 C13.6342754,5.13763644 26.4463258,-0.706305313 39.440851,0.950267913 C52.4353762,2.60684114 63.3714779,11.4782543 67.6723577,23.8517886 C68.2085232,25.4117963 67.9273103,27.1366824 66.9234146,28.4456098 C63.516748,32.8852033 59.2239837,36.577561 54.9881301,39.6473171 L54.9881301,18.808374 C54.9881308,17.190482 53.6774034,15.878481 52.0595122,15.8769106 L47.1737398,15.8769106 C45.5549596,15.8772248 44.2428455,17.1895937 44.2428455,18.808374 L44.2428455,44.1147967 C44.2420799,45.0972725 43.6538151,45.9840396 42.7489431,46.366748 C41.5578049,46.8698374 40.3342276,47.3649593 40.3342276,47.3649593 L40.3342276,26.1373171 C40.3342277,24.5182224 39.0218588,23.2055988 37.4027642,23.2052846 L32.5118699,23.2052846 C30.8927753,23.2055988 29.5804065,24.5182224 29.5804065,26.1373171 L29.5804065,49.0079675 C29.5801649,50.1412738 28.8004179,51.12556 27.6972358,51.385122 C26.9238211,51.5672358 26.2209756,51.740813 25.6717886,51.9035772 L25.6717886,33.4645528 C25.6717886,31.8455503 24.3593277,30.5330894 22.7403252,30.5330894 L17.8642276,30.5171545 C17.0855466,30.5135214 16.3375035,30.8202686 15.7855534,31.3695486 C15.2336033,31.9188287 14.9232323,32.6653755 14.9230894,33.444065 Z M14.8189431,63.0153659 C33.654065,60.3377236 56.9430081,51.5433333 69.5560976,32.7315447 C69.6090244,33.5134959 69.6460169,34.2977236 69.6460169,35.0944715 C69.6484339,48.0802037 62.3629555,59.9686302 50.7913118,65.8615335 C39.2196681,71.7544368 25.3199054,70.6546745 14.8189431,63.0153659 Z" id="Combined-Shape" fill="#D5A642" fill-rule="nonzero"></path>
    </g>
</svg>