<?xml version="1.0" encoding="utf-8"?>
<!-- Generator: Adobe Illustrator 25.2.3, SVG Export Plug-In . SVG Version: 6.00 Build 0)  -->
<svg version="1.1" id="Laag_1" xmlns="http://www.w3.org/2000/svg" xmlns:xlink="http://www.w3.org/1999/xlink" x="0px" y="0px"
	 viewBox="0 0 70 70" style="enable-background:new 0 0 70 70;" xml:space="preserve">
<style type="text/css">
	.st0{fill-rule:evenodd;clip-rule:evenodd;fill:#D5A642;}
	.st1{fill:#D5A642;}
</style>
<g>
	<path class="st0" d="M35,0C15.7,0,0,15.7,0,35c0,15.5,10,28.6,23.9,33.2c1.7,0.3,2.4-0.8,2.4-1.7c0-0.8,0-3.6,0-6.5
		c-9.7,2.1-11.8-4.1-11.8-4.1c-1.6-4-3.9-5.1-3.9-5.1c-3.2-2.2,0.2-2.1,0.2-2.1c3.5,0.2,5.4,3.6,5.4,3.6c3.1,5.4,8.2,3.8,10.2,2.9
		c0.3-2.3,1.2-3.8,2.2-4.7c-7.8-0.9-15.9-3.9-15.9-17.3c0-3.8,1.4-6.9,3.6-9.4c-0.4-0.9-1.6-4.4,0.3-9.3c0,0,2.9-0.9,9.6,3.6
		c2.8-0.8,5.8-1.2,8.8-1.2c3,0,6,0.4,8.8,1.2c6.7-4.5,9.6-3.6,9.6-3.6c1.9,4.8,0.7,8.4,0.3,9.3c2.2,2.5,3.6,5.6,3.6,9.4
		c0,13.4-8.2,16.4-16,17.3c1.3,1.1,2.4,3.2,2.4,6.5c0,4.7,0,8.5,0,9.6c0,0.9,0.6,2,2.4,1.7C60,63.6,70,50.5,70,35
		C70,15.7,54.3,0,35,0"/>
	<path class="st1" d="M13.3,50.3c-0.1,0.2-0.4,0.2-0.6,0.1c-0.3-0.1-0.4-0.4-0.3-0.5c0.1-0.2,0.3-0.2,0.6-0.1
		C13.2,49.8,13.3,50.1,13.3,50.3 M14.7,51.8c-0.2,0.2-0.5,0.1-0.7-0.2c-0.2-0.2-0.3-0.6-0.1-0.7c0.2-0.2,0.5-0.1,0.7,0.2
		C14.8,51.4,14.8,51.7,14.7,51.8 M16.1,53.8c-0.2,0.1-0.6,0-0.8-0.3c-0.2-0.3-0.2-0.7,0-0.8c0.2-0.1,0.6,0,0.8,0.3
		C16.3,53.3,16.3,53.7,16.1,53.8 M17.9,55.8C17.8,56,17.3,56,17,55.7c-0.3-0.3-0.4-0.7-0.2-0.9c0.2-0.2,0.6-0.2,0.9,0.1
		C18.1,55.2,18.1,55.6,17.9,55.8 M20.6,56.9c-0.1,0.3-0.5,0.4-0.9,0.3c-0.4-0.1-0.7-0.4-0.6-0.7c0.1-0.3,0.5-0.4,0.9-0.3
		C20.4,56.3,20.6,56.6,20.6,56.9 M23.4,57.1c0,0.3-0.3,0.5-0.7,0.5c-0.4,0-0.8-0.2-0.8-0.5c0-0.3,0.3-0.5,0.7-0.5
		C23.1,56.6,23.4,56.9,23.4,57.1 M26.1,56.7c0,0.3-0.2,0.6-0.7,0.6c-0.4,0.1-0.8-0.1-0.8-0.4c-0.1-0.3,0.2-0.6,0.6-0.7
		C25.7,56.2,26,56.4,26.1,56.7"/>
</g>
</svg>
