<?xml version="1.0" encoding="utf-8"?>
<!-- Generator: Adobe Illustrator 25.1.0, SVG Export Plug-In . SVG Version: 6.00 Build 0)  -->
<svg version="1.1" id="Logo" xmlns="http://www.w3.org/2000/svg" xmlns:xlink="http://www.w3.org/1999/xlink" x="0px" y="0px"
	 viewBox="0 0 150 150" style="enable-background:new 0 0 150 150;" xml:space="preserve">
<style type="text/css">
	.st0{fill:#D5A642;}
</style>
<g>
	<path class="st0" d="M75,13.51c20.03,0,22.4,0.08,30.31,0.44c7.31,0.33,11.28,1.56,13.93,2.58c3.5,1.36,6,2.99,8.62,5.61
		c2.62,2.62,4.25,5.12,5.61,8.62c1.03,2.64,2.25,6.61,2.58,13.93c0.36,7.91,0.44,10.28,0.44,30.31s-0.08,22.4-0.44,30.31
		c-0.33,7.31-1.56,11.28-2.58,13.93c-1.36,3.5-2.99,6-5.61,8.62c-2.62,2.62-5.12,4.25-8.62,5.61c-2.64,1.03-6.61,2.25-13.93,2.58
		c-7.91,0.36-10.28,0.44-30.31,0.44s-22.4-0.08-30.31-0.44c-7.31-0.33-11.28-1.56-13.93-2.58c-3.5-1.36-6-2.99-8.62-5.61
		c-2.62-2.62-4.25-5.12-5.61-8.62c-1.03-2.64-2.25-6.61-2.58-13.93C13.59,97.4,13.51,95.03,13.51,75s0.08-22.4,0.44-30.31
		c0.33-7.31,1.56-11.28,2.58-13.93c1.36-3.5,2.99-6,5.61-8.62c2.62-2.62,5.12-4.25,8.62-5.61c2.64-1.03,6.61-2.25,13.93-2.58
		C52.6,13.59,54.97,13.51,75,13.51 M75,0C54.63,0,52.08,0.09,44.08,0.45c-7.98,0.36-13.43,1.63-18.21,3.49
		c-4.93,1.92-9.11,4.48-13.28,8.65c-4.17,4.17-6.73,8.35-8.65,13.28c-1.85,4.77-3.12,10.22-3.49,18.21C0.09,52.08,0,54.63,0,75
		c0,20.37,0.09,22.92,0.45,30.92c0.36,7.98,1.63,13.43,3.49,18.21c1.92,4.93,4.48,9.11,8.65,13.28c4.17,4.17,8.35,6.73,13.28,8.65
		c4.77,1.85,10.22,3.12,18.21,3.49c8,0.37,10.55,0.45,30.92,0.45s22.92-0.09,30.92-0.45c7.98-0.36,13.43-1.63,18.21-3.49
		c4.93-1.92,9.11-4.48,13.28-8.65c4.17-4.17,6.73-8.35,8.65-13.28c1.85-4.77,3.12-10.22,3.49-18.21c0.36-8,0.45-10.55,0.45-30.92
		s-0.09-22.92-0.45-30.92c-0.36-7.98-1.63-13.43-3.49-18.21c-1.92-4.93-4.48-9.11-8.65-13.28c-4.17-4.17-8.35-6.73-13.28-8.65
		c-4.77-1.85-10.22-3.12-18.21-3.49C97.92,0.09,95.37,0,75,0L75,0z"/>
	<path class="st0" d="M75,36.49c-21.27,0-38.51,17.24-38.51,38.51S53.73,113.51,75,113.51S113.51,96.27,113.51,75
		S96.27,36.49,75,36.49z M75,100c-13.81,0-25-11.19-25-25c0-13.81,11.19-25,25-25c13.81,0,25,11.19,25,25
		C100,88.81,88.81,100,75,100z"/>
	<circle class="st0" cx="115.04" cy="34.96" r="9"/>
</g>
</svg>
