<?xml version="1.0" encoding="UTF-8"?>
<svg width="48px" height="50px" viewBox="0 0 48 50" version="1.1" xmlns="http://www.w3.org/2000/svg" xmlns:xlink="http://www.w3.org/1999/xlink">
    <!-- Generator: Sketch 55.2 (78181) - https://sketchapp.com -->
    <title>pancakeswap</title>
    <desc>Created with Sketch.</desc>
    <g id="Page-1" stroke="none" stroke-width="1" fill="none" fill-rule="evenodd">
        <g id="pancakeswap" fill="#D5A642" fill-rule="nonzero">
            <path d="M0.1125,34.5875 C0.1125,42.55 10.675,49.05 23.675,49.05 C36.675,49.05 47.2375045,42.55 47.2375045,34.5875 L47.2375045,30.85 C47.2375045,30.85 47.2375045,30.6875 47.2375045,30.6875 C44.6298311,40.4375 36.7485796,45.3125 23.59375,45.3125 C10.4389204,45.3125 2.61183706,40.4375 0.1125,30.6875 C0.1125,30.6875 0.1125,30.85 0.1125,30.85 L0.1125,34.5875 Z" id="Path" fill-opacity="0.8"></path>
            <path d="M35.8625,18.3375 C42.85,20.9375 47.4,25.4875 47.2375,30.85 L47.2375,32.15 C46.5875,35.725 42.85,45.3125 23.8375,45.3125 C0.4375,45.3125 0.1125,30.85 0.1125,30.85 C0.1125,25.65 4.6625,21.1 11.4875,18.5 L9.375,6.8 C8.725,3.875 11,1.1125 13.925,1.1125 C16.525,1.1125 18.6375,3.225 18.6375,5.825 L18.6375,16.3875 C19.2875,16.3875 20.1,16.225 20.75,16.225 C21.725,16.0625 22.7,16.0625 23.675,16.0625 C24.65,16.0625 25.4625,16.225 26.4375,16.225 C27.0875,16.225 27.9,16.225 28.55,16.3875 L28.55,5.6625 C28.55,3.0625 30.6625,0.95 33.2625,0.95 C36.35,0.95 38.4625,3.7125 37.975,6.6375 L35.8625,18.3375 Z M17.175,29.7125 C17.175,27.6 16.0375,25.8125 14.575,25.8125 C13.1125,25.8125 11.975,27.6 11.975,29.7125 C11.975,31.825 13.1125,33.6125 14.575,33.6125 C16.0375,33.6125 17.175,31.825 17.175,29.7125 Z M35.2125,29.7125 C35.2125,27.6 34.075,25.8125 32.6125,25.8125 C31.15,25.8125 30.0125,27.6 30.0125,29.7125 C30.0125,31.825 31.15,33.6125 32.6125,33.6125 C34.075,33.6125 35.2125,31.825 35.2125,29.7125 Z" id="Combined-Shape"></path>
        </g>
    </g>
</svg>