<?xml version="1.0" encoding="utf-8"?>
<!-- Generator: Adobe Illustrator 25.2.3, SVG Export Plug-In . SVG Version: 6.00 Build 0)  -->
<svg version="1.1" id="Laag_1" xmlns="http://www.w3.org/2000/svg" xmlns:xlink="http://www.w3.org/1999/xlink" x="0px" y="0px"
	 viewBox="0 0 70 70" style="enable-background:new 0 0 70 70;" xml:space="preserve">
<style type="text/css">
	.st0{fill:#D5A642;}
</style>
<path class="st0" d="M35,0C15.7,0,0,15.7,0,35s15.7,35,35,35s35-15.7,35-35S54.3,0,35,0z M51.7,22.8c-0.1,1.4-0.9,6.4-1.7,11.7
	l-2.5,15.9c0,0-0.2,2.3-1.9,2.7c-1.7,0.4-4.6-1.4-5.1-1.8c-0.4-0.3-7.6-4.9-10.2-7.1c-0.7-0.6-1.5-1.8,0.1-3.2
	c3.6-3.3,8-7.5,10.6-10.1c1.2-1.2,2.4-4-2.6-0.6l-14.3,9.6c0,0-1.6,1-4.7,0.1c-3-0.9-6.6-2.1-6.6-2.1s-2.4-1.5,1.7-3.1L38.1,25
	c2.3-1,10.2-4.2,10.2-4.2S52,19.3,51.7,22.8z"/>
</svg>
