<?xml version="1.0" encoding="utf-8"?>
<!-- Generator: Adobe Illustrator 25.1.0, SVG Export Plug-In . SVG Version: 6.00 Build 0)  -->
<svg version="1.1" id="Layer_1" xmlns="http://www.w3.org/2000/svg" xmlns:xlink="http://www.w3.org/1999/xlink" x="0px" y="0px"
	 viewBox="0 0 36.1 36.8" style="enable-background:new 0 0 36.1 36.8;" xml:space="preserve">
<style type="text/css">
	.st0{fill:#D5A642;}
</style>
<g id="Layer_2_1_">
	<g id="ELEMENTS">
		<path class="st0" d="M36,16.7C35.3,6.8,26.7-0.7,16.8,0C7.8,0.7,0.7,7.8,0.1,16.7H0v3.4h0.1C0.8,30,9.4,37.5,19.3,36.8
			c8.9-0.6,16-7.7,16.7-16.7h0.1L36,16.7L36,16.7z M32.6,16.7h-6.8c-0.1-4.1-0.9-8.2-2.5-12C28.4,6.7,32,11.3,32.6,16.7L32.6,16.7z
			 M18,33.1c-1.4,0-4.1-4.6-4.4-13h8.9C22.1,28.5,19.5,33.1,18,33.1z M13.6,16.7c0.3-8.4,3-13,4.4-13s4.1,4.6,4.4,13H13.6z
			 M12.8,4.7c-1.6,3.8-2.5,7.9-2.5,12H3.5C4.1,11.3,7.7,6.7,12.8,4.7L12.8,4.7z M3.5,20.1h6.8c0,4.1,0.9,8.2,2.5,12
			C7.7,30.1,4.1,25.5,3.5,20.1z M23.3,32.1c1.6-3.8,2.5-7.9,2.5-12h6.8C32,25.5,28.4,30.1,23.3,32.1L23.3,32.1z"/>
	</g>
</g>
</svg>
