<?xml version="1.0" encoding="utf-8"?>
<!-- Generator: Adobe Illustrator 25.2.3, SVG Export Plug-In . SVG Version: 6.00 Build 0)  -->
<svg version="1.1" id="Laag_1" xmlns="http://www.w3.org/2000/svg" xmlns:xlink="http://www.w3.org/1999/xlink" x="0px" y="0px"
	 viewBox="0 0 105 105" style="enable-background:new 0 0 105 105;" xml:space="preserve">
<style type="text/css">
	.st0{fill:#D5A642;}
</style>
<g>
	<path class="st0" d="M45,95.5h15l0.2,0.2c3.2,4,7.4,6.8,12.2,8.1c7.2,1.9,14.7,0.4,20.5-4.2c5.8-4.5,9.1-11.2,9.1-18.5
		c0-13.1-10.6-23.7-23.7-23.7H56.2v-5.8h-1.4l0-0.5c0.2-3.1,1.5-4.5,4.2-4.6c1.3,0,2.9,0.1,4.5,0.3c7.2,0.7,14.7,1.5,16.2-9.8
		L75,36.4c-1,6.7-6.6,6.2-11,5.7c-1.8-0.2-3.5-0.4-5.1-0.3c-7.5,0.2-8.6,4.6-8.7,9.3l0,0.5h-1.3v5.8H26.7C13.6,57.3,3,68,3,81
		c0,7.3,3.3,14.1,9,18.5c5.9,4.5,13.4,6.1,20.6,4.2c4.8-1.3,9-4,12.2-8.1L45,95.5z M78.5,99.8c-1.6,0-3.3-0.2-4.9-0.6
		c-5.3-1.4-8.2-4.2-11.2-8.4H42.6c-2.9,4.1-5.9,7-11.2,8.4c-5.8,1.5-11.8,0.3-16.5-3.4c-4.6-3.6-7.2-9-7.2-14.8c0-10.5,8.5-19,19-19
		h51.6c10.5,0,19,8.5,19,19c0,5.9-2.6,11.3-7.3,14.9C86.7,98.5,82.6,99.8,78.5,99.8z M79.1,84.9c-1.5,0-2.8,1.2-2.8,2.8
		c0,1.5,1.2,2.7,2.8,2.7c1.5,0,2.7-1.2,2.7-2.7C81.9,86.1,80.7,84.9,79.1,84.9z M23.5,90.4h4.7v-7.1h7.1v-4.7h-7.1v-7.1h-4.7v7.1
		h-7.1v4.7h7.1V90.4z M54.7,86.7h6.5v-2.9h-6.5V86.7z M43.8,86.7h6.5v-2.9h-6.5V86.7z M85.9,78.2c-1.5,0-2.8,1.2-2.8,2.8
		s1.2,2.8,2.8,2.8s2.8-1.2,2.8-2.8S87.4,78.2,85.9,78.2z M72.4,78.2c-1.5,0-2.8,1.2-2.8,2.8c0,1.5,1.2,2.7,2.8,2.7
		c1.5,0,2.7-1.2,2.7-2.7C75.1,79.4,73.9,78.2,72.4,78.2z M79.1,71.4c-1.5,0-2.8,1.2-2.8,2.8s1.2,2.8,2.8,2.8c1.5,0,2.8-1.2,2.8-2.8
		S80.7,71.4,79.1,71.4z"/>
</g>
</svg>
