<?xml version="1.0" encoding="UTF-8"?>
<svg width="99px" height="69px" viewBox="0 0 99 69" version="1.1" xmlns="http://www.w3.org/2000/svg" xmlns:xlink="http://www.w3.org/1999/xlink">
    <!-- Generator: Sketch 55.1 (78136) - https://sketchapp.com -->
    <title>Shape</title>
    <desc>Created with Sketch.</desc>
    <g id="Page-1" stroke="none" stroke-width="1" fill="none" fill-rule="evenodd">
        <path d="M42,59.5 L57,59.5 L57.2,59.7 C60.4,63.7 64.6,66.5 69.4,67.8 C76.6,69.7 84.1,68.2 89.9,63.6 C95.7,59.1 99,52.4 99,45.1 C99,32 88.4,21.4 75.3,21.4 L53.2,21.4 L53.2,15.6 L51.8,15.6 L51.8,15.1 C52,12 53.3,10.6 56,10.5 C57.3,10.5 58.9,10.6 60.5,10.8 C67.7,11.5 75.2,12.3 76.7,1 L72,0.4 C71,7.1 65.4,6.6 61,6.1 C59.2,5.9 57.5,5.7 55.9,5.8 C48.4,6 47.3,10.4 47.2,15.1 L47.2,15.6 L45.9,15.6 L45.9,21.4 L23.7,21.4 C10.6,21.3 0,32 0,45 C0,52.3 3.3,59.1 9,63.5 C14.9,68 22.4,69.6 29.6,67.7 C34.4,66.4 38.6,63.7 41.8,59.6 L42,59.5 Z M75.5,63.8 C73.9,63.8 72.2,63.6 70.6,63.2 C65.3,61.8 62.4,59 59.4,54.8 L39.6,54.8 C36.7,58.9 33.7,61.8 28.4,63.2 C22.6,64.7 16.6,63.5 11.9,59.8 C7.3,56.2 4.7,50.8 4.7,45 C4.7,34.5 13.2,26 23.7,26 L75.3,26 C85.8,26 94.3,34.5 94.3,45 C94.3,50.9 91.7,56.3 87,59.9 C83.7,62.5 79.6,63.8 75.5,63.8 Z M76.1,48.9 C74.6,48.9 73.3,50.1 73.3,51.7 C73.3,53.2 74.5,54.4 76.1,54.4 C77.6,54.4 78.8,53.2 78.8,51.7 C78.9,50.1 77.7,48.9 76.1,48.9 Z M20.5,54.4 L25.2,54.4 L25.2,47.3 L32.3,47.3 L32.3,42.6 L25.2,42.6 L25.2,35.5 L20.5,35.5 L20.5,42.6 L13.4,42.6 L13.4,47.3 L20.5,47.3 L20.5,54.4 Z M51.7,50.7 L58.2,50.7 L58.2,47.8 L51.7,47.8 L51.7,50.7 Z M40.8,50.7 L47.3,50.7 L47.3,47.8 L40.8,47.8 L40.8,50.7 Z M82.9,42.2 C81.4,42.2 80.1,43.4 80.1,45 C80.1,46.6 81.3,47.8 82.9,47.8 C84.5,47.8 85.7,46.6 85.7,45 C85.7,43.4 84.4,42.2 82.9,42.2 Z M69.4,42.2 C67.9,42.2 66.6,43.4 66.6,45 C66.6,46.5 67.8,47.7 69.4,47.7 C70.9,47.7 72.1,46.5 72.1,45 C72.1,43.4 70.9,42.2 69.4,42.2 Z M76.1,35.4 C74.6,35.4 73.3,36.6 73.3,38.2 C73.3,39.8 74.5,41 76.1,41 C77.6,41 78.9,39.8 78.9,38.2 C78.9,36.6 77.7,35.4 76.1,35.4 Z" id="Shape" fill="#D5A642" fill-rule="nonzero"></path>
    </g>
</svg>