<svg width="99" height="69" xmlns="http://www.w3.org/2000/svg">
    <path d="M42 59.5h15l.2.2c3.2 4 7.4 6.8 12.2 8.1 7.2 1.9 14.7.4 20.5-4.2 5.8-4.5 9.1-11.2 9.1-18.5C99 32 88.4 21.4 75.3 21.4H53.2v-5.8h-1.4v-.5c.2-3.1 1.5-4.5 4.2-4.6 1.3 0 2.9.1 4.5.3 7.2.7 14.7 1.5 16.2-9.8L72 .4c-1 6.7-6.6 6.2-11 5.7-1.8-.2-3.5-.4-5.1-.3-7.5.2-8.6 4.6-8.7 9.3v.5h-1.3v5.8H23.7C10.6 21.3 0 32 0 45c0 7.3 3.3 14.1 9 18.5 5.9 4.5 13.4 6.1 20.6 4.2 4.8-1.3 9-4 12.2-8.1l.2-.1zm33.5 4.3c-1.6 0-3.3-.2-4.9-.6-5.3-1.4-8.2-4.2-11.2-8.4H39.6c-2.9 4.1-5.9 7-11.2 8.4-5.8 1.5-11.8.3-16.5-3.4-4.6-3.6-7.2-9-7.2-14.8 0-10.5 8.5-19 19-19h51.6c10.5 0 19 8.5 19 19 0 5.9-2.6 11.3-7.3 14.9-3.3 2.6-7.4 3.9-11.5 3.9zm.6-14.9c-1.5 0-2.8 1.2-2.8 2.8 0 1.5 1.2 2.7 2.8 2.7 1.5 0 2.7-1.2 2.7-2.7.1-1.6-1.1-2.8-2.7-2.8zm-55.6 5.5h4.7v-7.1h7.1v-4.7h-7.1v-7.1h-4.7v7.1h-7.1v4.7h7.1v7.1zm31.2-3.7h6.5v-2.9h-6.5v2.9zm-10.9 0h6.5v-2.9h-6.5v2.9zm42.1-8.5c-1.5 0-2.8 1.2-2.8 2.8 0 1.6 1.2 2.8 2.8 2.8 1.6 0 2.8-1.2 2.8-2.8 0-1.6-1.3-2.8-2.8-2.8zm-13.5 0c-1.5 0-2.8 1.2-2.8 2.8 0 1.5 1.2 2.7 2.8 2.7 1.5 0 2.7-1.2 2.7-2.7 0-1.6-1.2-2.8-2.7-2.8zm6.7-6.8c-1.5 0-2.8 1.2-2.8 2.8 0 1.6 1.2 2.8 2.8 2.8 1.5 0 2.8-1.2 2.8-2.8 0-1.6-1.2-2.8-2.8-2.8z" fill="#FFF" fill-rule="nonzero"/>
</svg>