<?xml version="1.0" encoding="utf-8"?>
<!-- Generator: Adobe Illustrator 25.2.3, SVG Export Plug-In . SVG Version: 6.00 Build 0)  -->
<svg version="1.1" id="Laag_1" xmlns="http://www.w3.org/2000/svg" xmlns:xlink="http://www.w3.org/1999/xlink" x="0px" y="0px"
	 viewBox="0 0 105 105" style="enable-background:new 0 0 105 105;" xml:space="preserve">
<style type="text/css">
	.st0{fill:#D5A642;}
</style>
<g>
	<path class="st0" d="M90.8,70.2c1.2,0,2.2-1,2.2-2.2c0-1-0.7-1.9-1.6-2.1c-0.4-9.5-3.4-16.4-9.1-21.2c-4.3-3.6-10.2-6-18.5-7.5
		V27.2c0-1.2-1-2.2-2.2-2.2h-1.7v-5.1c0-1.2-1-2.2-2.2-2.2h-7v-4.2h14.9c2.2,0,4.1-1.8,4.1-4.1v-5c0-2.2-1.8-4.1-4.1-4.1H31.7
		c-2.2,0-4.1,1.8-4.1,4.1v5c0,2.2,1.8,4.1,4.1,4.1h14.9v4.2h-7c-1.2,0-2.2,1-2.2,2.2V25h-1.7c-1.2,0-2.2,1-2.2,2.2v9H16.7v-2.3
		c0-1.2-1-2.2-2.2-2.2s-2.2,1-2.2,2.2v29.6c0,1.2,1,2.2,2.2,2.2s2.2-1,2.2-2.2v-2.1h17.9c6,7.6,17.1,9,24.8,3c1.1-0.9,2.2-1.9,3.1-3
		l1.8,0c3.1-0.3,5.9,1.7,6.6,4.7c-0.7,0.4-1.2,1.1-1.2,1.9c0,1.2,1,2.2,2.2,2.2H90.8z M41.7,25v-3h13.9v3H41.7z M51,63.6
		c-3.5,0.7-7.1-0.1-10.1-2.2c-1.4-0.9-2.5-2.1-3.5-3.5l-0.1-0.1c-0.1-0.1-0.2-0.2-0.3-0.3c-0.1-0.1-0.2-0.2-0.3-0.2
		c-0.1-0.1-0.2-0.1-0.4-0.1c-0.2,0-0.3,0-0.4,0H16.7V40.5h18.9c1.2,0,2.2-1,2.2-2.2v-9h21.6v9.8l0,0.2c0,0.1,0,0.3,0,0.4l0,0.1
		c0,0.1,0.1,0.2,0.2,0.4c0.1,0.1,0.1,0.2,0.2,0.3c0.1,0.1,0.2,0.2,0.3,0.3c0.1,0.1,0.2,0.2,0.4,0.3l0.4,0.1l0.2,0
		c14.9,2.3,25,7.4,25.8,24.7H75.4c-0.9-5.2-5.7-9-11-8.6l-3.1,0c-0.2,0-0.3,0-0.5,0c-0.1,0-0.3,0.1-0.4,0.1
		c-0.1,0.1-0.2,0.1-0.3,0.2c-0.1,0.1-0.2,0.2-0.3,0.3L59.7,58C57.6,60.9,54.5,62.9,51,63.6z M65.4,4.7v4.5H32V4.7H65.4z"/>
	<path class="st0" d="M89.1,86.4c-2.2-2.6-3.9-5.7-4.9-9.1c0-0.1-0.1-0.2-0.1-0.3c-0.1-0.1-0.1-0.2-0.2-0.3
		c-0.1-0.1-0.2-0.2-0.3-0.3l-0.3-0.3l-0.5-0.3l-0.4,0c-0.1,0-0.3,0-0.4,0c-0.1,0-0.3,0-0.4,0h-0.3l-0.5,0.2l-0.3,0.2
		c-0.1,0.1-0.2,0.2-0.3,0.3c-0.1,0.1-0.1,0.2-0.2,0.4l0,0.2c-0.9,3.3-2.6,6.5-4.9,9.1C73.7,88,72.6,90,72,92.2
		c-0.6,2.9,0.1,5.9,2,8.3c2.2,2.4,5.2,3.6,8.2,3.6c2.7,0,5.3-0.9,7.4-2.9c0.3-0.2,0.5-0.5,0.7-0.7c1.8-2.3,2.6-5.4,2-8.3
		C91.7,90,90.6,88,89.1,86.4z M87,97.8c-1.2,1.3-2.9,2-4.7,2.1c0,0-0.1,0-0.1,0c-1.7,0-3.4-0.7-4.7-1.9c-0.1-0.1-0.1-0.1-0.2-0.2
		c-1.1-1.3-1.5-3-1.2-4.7c0.5-1.5,1.3-3,2.4-4.2c1.4-1.6,2.6-3.4,3.6-5.3c1,1.9,2.2,3.7,3.6,5.3c1.1,1.2,1.9,2.6,2.4,4.1
		c0.3,1.6-0.1,3.3-1.1,4.6L87,97.8z"/>
</g>
</svg>
