<svg version="1.1" id="Laag_1" xmlns="http://www.w3.org/2000/svg" x="0" y="0" viewBox="0 0 105 105" xml:space="preserve">
<style>.st0{fill:#fff}</style>
	<path class="st0" d="M90.8 70.2c1.2 0 2.2-1 2.2-2.2 0-1-.7-1.9-1.6-2.1-.4-9.5-3.4-16.4-9.1-21.2-4.3-3.6-10.2-6-18.5-7.5v-10c0-1.2-1-2.2-2.2-2.2h-1.7v-5.1c0-1.2-1-2.2-2.2-2.2h-7v-4.2h14.9c2.2 0 4.1-1.8 4.1-4.1v-5c0-2.2-1.8-4.1-4.1-4.1H31.7c-2.2 0-4.1 1.8-4.1 4.1v5c0 2.2 1.8 4.1 4.1 4.1h14.9v4.2h-7c-1.2 0-2.2 1-2.2 2.2V25h-1.7c-1.2 0-2.2 1-2.2 2.2v9H16.7v-2.3c0-1.2-1-2.2-2.2-2.2s-2.2 1-2.2 2.2v29.6c0 1.2 1 2.2 2.2 2.2s2.2-1 2.2-2.2v-2.1h17.9c6 7.6 17.1 9 24.8 3 1.1-.9 2.2-1.9 3.1-3h1.8c3.1-.3 5.9 1.7 6.6 4.7-.7.4-1.2 1.1-1.2 1.9 0 1.2 1 2.2 2.2 2.2h18.9zM41.7 25v-3h13.9v3H41.7zM51 63.6c-3.5.7-7.1-.1-10.1-2.2-1.4-.9-2.5-2.1-3.5-3.5l-.1-.1-.3-.3c-.1-.1-.2-.2-.3-.2-.1-.1-.2-.1-.4-.1H16.7V40.5h18.9c1.2 0 2.2-1 2.2-2.2v-9h21.6v10.5c0 .1.1.2.2.4.1.1.1.2.2.3l.3.3c.1.1.2.2.4.3l.4.1h.2c14.9 2.3 25 7.4 25.8 24.7H75.4c-.9-5.2-5.7-9-11-8.6h-3.6c-.1 0-.3.1-.4.1-.1.1-.2.1-.3.2l-.3.3-.1.1c-2.1 2.9-5.2 4.9-8.7 5.6zM65.4 4.7v4.5H32V4.7h33.4zM89.1 86.4c-2.2-2.6-3.9-5.7-4.9-9.1 0-.1-.1-.2-.1-.3-.1-.1-.1-.2-.2-.3l-.3-.3-.3-.3-.5-.3H81.3l-.5.2-.3.2-.3.3c-.1.1-.1.2-.2.4v.2c-.9 3.3-2.6 6.5-4.9 9.1-1.4 1.8-2.5 3.8-3.1 6-.6 2.9.1 5.9 2 8.3 2.2 2.4 5.2 3.6 8.2 3.6 2.7 0 5.3-.9 7.4-2.9.3-.2.5-.5.7-.7 1.8-2.3 2.6-5.4 2-8.3-.6-2.2-1.7-4.2-3.2-5.8zM87 97.8c-1.2 1.3-2.9 2-4.7 2.1h-.1c-1.7 0-3.4-.7-4.7-1.9l-.2-.2c-1.1-1.3-1.5-3-1.2-4.7.5-1.5 1.3-3 2.4-4.2 1.4-1.6 2.6-3.4 3.6-5.3 1 1.9 2.2 3.7 3.6 5.3 1.1 1.2 1.9 2.6 2.4 4.1.3 1.6-.1 3.3-1.1 4.6v.2z"/>
</svg>