<?xml version="1.0" encoding="utf-8"?>
<!-- Generator: Adobe Illustrator 25.2.3, SVG Export Plug-In . SVG Version: 6.00 Build 0)  -->
<svg version="1.1" id="Laag_1" xmlns="http://www.w3.org/2000/svg" xmlns:xlink="http://www.w3.org/1999/xlink" x="0px" y="0px"
	 viewBox="0 0 105 105" style="enable-background:new 0 0 105 105;" xml:space="preserve">
<style type="text/css">
	.st0{fill:#FFFFFF;}
</style>
<g>
	<path class="st0" d="M89.9,31.1c6.9,0,12.6-5.6,12.6-12.5C102.5,11.7,96.9,6,90,6c-6.9,0-12.6,5.6-12.6,12.5c0,2.7,0.9,5.4,2.5,7.6
		L65,41c-3-2.5-6.7-4.1-10.6-4.5v-3.6c17.5-0.8,17.7-14.1,17.7-14.2v-1.6l-1.6-0.2c-0.4,0-9.8-0.9-15.5,4.2
		c-0.2,0.2-0.4,0.4-0.5,0.5v-1.3c0.2-3.9-1.3-7.7-4.2-10.4c-5.3-4.8-13.7-3.9-14-3.9l-1.6,0.2l0,1.6c0.1,4.2,1.7,8.3,4.6,11.4
		c3.1,3,7.3,4.7,11.7,4.8v12.5c-4,0.3-7.8,1.9-10.9,4.5l-5-5c2.7-4.1,1.6-9.7-2.5-12.4c-4.1-2.7-9.7-1.6-12.4,2.5
		c-2.7,4.1-1.6,9.7,2.5,12.4c3,2,6.9,2,9.9,0l5,5c-2.5,3.1-4.1,6.8-4.5,10.8H20.2c-1-4.8-5.7-7.9-10.5-7c-4.8,1-7.9,5.7-7,10.5
		s5.7,7.9,10.5,7c3.5-0.7,6.2-3.5,7-7h12.8c0.4,4,1.9,7.7,4.5,10.8l-8.6,8.6c-5.1-4.7-13-4.3-17.7,0.7s-4.3,13,0.7,17.7
		s13,4.3,17.7-0.7c3.8-4.1,4.4-10.2,1.5-14.9l8.9-8.9c7.3,6.1,17.8,6.1,25.1,0l5,5c-2.7,4.1-1.6,9.7,2.5,12.4s9.7,1.6,12.4-2.5
		c2.7-4.1,1.6-9.7-2.5-12.4c-3-2-6.9-2-9.9,0l-5-5c2.5-3.1,4.1-6.8,4.5-10.8h5.6c1,6.8,7.3,11.6,14.1,10.6c6.8-1,11.6-7.3,10.6-14.1
		c-1-6.8-7.3-11.6-14.1-10.6c-5.5,0.8-9.8,5.1-10.6,10.6H72c-0.4-4-1.9-7.7-4.5-10.8l14.9-14.9C84.6,30.2,87.2,31.1,89.9,31.1z
		 M57.3,23.8c3.2-2.9,8.2-3.3,10.9-3.4c-0.7,2.9-3.4,8.3-13.7,8.9C54.8,27.2,55.8,25.2,57.3,23.8z M27.5,36.5c-3,0-5.4-2.4-5.4-5.4
		s2.4-5.4,5.4-5.4s5.4,2.4,5.4,5.4S30.4,36.5,27.5,36.5z M11.4,61.4c-3,0-5.4-2.4-5.4-5.4c0-3,2.4-5.4,5.4-5.4s5.4,2.4,5.4,5.4
		C16.8,59,14.4,61.4,11.4,61.4z M20.3,95.3c-4.9,0-8.9-4-8.9-8.9c0-4.9,4-8.9,8.9-8.9s8.9,4,8.9,8.9C29.3,91.3,25.3,95.3,20.3,95.3z
		 M77.4,75.7c3,0,5.4,2.4,5.4,5.4c0,3-2.4,5.4-5.4,5.4s-5.4-2.4-5.4-5.4C72.1,78.1,74.5,75.7,77.4,75.7z M89.9,47.2
		c4.9,0,8.9,4,8.9,8.9s-4,8.9-8.9,8.9C85,65,81,61,81,56.1C81,51.2,85,47.2,89.9,47.2z M41.7,16.8c-1.9-2-3-4.5-3.4-7.2
		c3.4-0.1,6.8,1,9.5,3c2.1,2,3.2,4.8,3,7.7v0.1C47.5,20.4,44.2,19.1,41.7,16.8z M68.5,56.1c0,8.9-7.2,16.1-16.1,16.1
		s-16.1-7.2-16.1-16.1S43.6,40,52.5,40C61.3,40,68.5,47.2,68.5,56.1z M89.9,9.7c4.9,0,8.9,4,8.9,8.9s-4,8.9-8.9,8.9
		c-4.9,0-8.9-4-8.9-8.9C81,13.7,85,9.7,89.9,9.7z"/>
	<path class="st0" d="M52.5,50.7c1,0,1.8,0.8,1.8,1.8h3.6c0-2.3-1.4-4.3-3.6-5v-3.9h-3.6v3.9c-2.8,1-4.2,4-3.3,6.8
		c0.8,2.1,2.8,3.6,5.1,3.6c1,0,1.8,0.8,1.8,1.8c0,1-0.8,1.8-1.8,1.8c-1,0-1.8-0.8-1.8-1.8h-3.6c0,2.3,1.4,4.3,3.6,5v3.9h3.6v-3.9
		c2.8-1,4.2-4,3.3-6.8c-0.8-2.1-2.8-3.6-5-3.6c-1,0-1.8-0.8-1.8-1.8C50.7,51.5,51.5,50.7,52.5,50.7z"/>
	<rect x="40" y="54.3" class="st0" width="3.6" height="3.6"/>
	<rect x="61.4" y="54.3" class="st0" width="3.6" height="3.6"/>
	<polygon class="st0" points="22.1,81.1 18.6,81.1 18.6,84.5 15,84.5 15,88.1 18.6,88.1 18.6,91.7 22.1,91.7 22.1,88.1 25.7,88.1 
		25.7,84.5 22.1,84.5 	"/>
	<polygon class="st0" points="88.1,61.4 91.7,61.4 91.7,57.9 95.3,57.9 95.3,54.3 91.7,54.3 91.7,50.8 88.1,50.8 88.1,54.3 
		84.6,54.3 84.6,57.9 88.1,57.9 	"/>
	<polygon class="st0" points="88.1,24 91.7,24 91.7,20.4 95.3,20.4 95.3,16.8 91.7,16.8 91.7,13.3 88.1,13.3 88.1,16.8 84.6,16.8 
		84.6,20.4 88.1,20.4 	"/>
	<rect x="75.6" y="79.3" class="st0" width="3.6" height="3.6"/>
	<rect x="9.6" y="54.3" class="st0" width="3.6" height="3.6"/>
	<rect x="25.7" y="29.3" class="st0" width="3.6" height="3.6"/>
</g>
</svg>
