<?xml version="1.0" encoding="utf-8"?>
<!-- Generator: Adobe Illustrator 25.2.3, SVG Export Plug-In . SVG Version: 6.00 Build 0)  -->
<svg version="1.1" id="Laag_1" xmlns="http://www.w3.org/2000/svg" xmlns:xlink="http://www.w3.org/1999/xlink" x="0px" y="0px"
	 viewBox="0 0 105 105" style="enable-background:new 0 0 105 105;" xml:space="preserve">
<style type="text/css">
	.st0{fill:#D5A642;}
</style>
<g>
	<path class="st0" d="M98,50.4c-0.3-0.6-1-1.1-1.7-1.1h-3.9V21.7h-3.9v29.5c0,1.1,0.9,2,2,2h2.1l-6.4,9.2l-6.4-9.2h2.1
		c1.1,0,2-0.9,2-2V24.6h-3.9v24.7h-3.9c-0.7,0-1.4,0.4-1.7,1.1c-0.3,0.6-0.3,1.4,0.1,2l10.2,14.5c0.4,0.5,1,0.8,1.6,0.8
		c0.6,0,1.2-0.3,1.6-0.8l10.2-14.5C98.2,51.8,98.3,51,98,50.4z"/>
	<rect x="79.8" y="18.8" class="st0" width="3.9" height="3.9"/>
	<rect x="79.8" y="13" class="st0" width="3.9" height="3.9"/>
	<rect x="79.8" y="7.2" class="st0" width="3.9" height="3.9"/>
	<path class="st0" d="M31.2,24.6L31.2,24.6c0.3-0.6,0.3-1.4-0.1-2L20.9,8c-0.3-0.5-0.9-0.8-1.6-0.8S18,7.6,17.7,8L7.5,22.6
		c-0.4,0.6-0.5,1.4-0.1,2c0.3,0.6,1,1,1.7,1H13v24.7h3.9V23.7c0-1.1-0.9-2-2-2h-2.1l6.4-9.2l6.4,9.2h-2.1c-1.1,0-2,0.9-2,2v29.5h3.9
		V25.6h3.9C30.2,25.6,30.9,25.2,31.2,24.6z"/>
	<rect x="13" y="63.8" class="st0" width="3.9" height="3.9"/>
	<rect x="13" y="52.2" class="st0" width="3.9" height="3.9"/>
	<rect x="13" y="58" class="st0" width="3.9" height="3.9"/>
	<path class="st0" d="M61.4,42.7l6.3-5v-0.9c0-4.3-3-7.9-7.2-8.7l0.2-1.1l-1.3-0.7c-4.2-2.1-9.2-2.1-13.4,0L44.7,27l0.2,1.1
		c-4.2,0.8-7.2,4.4-7.2,8.7v0.9l6.3,5L33.8,52.8c-5,5-7.8,11.7-7.8,18.8c0,14.7,12,26.6,26.7,26.6c14.7,0,26.6-11.9,26.6-26.6
		c0-7.1-2.8-13.8-7.8-18.8L61.4,42.7z M66.2,85.6v-7.7h1.9v7.7H66.2z M66.6,89.5c-4,3.1-8.9,4.8-14,4.8c-5,0-9.9-1.7-13.9-4.8H66.6z
		 M41.6,35.9c0.4-2,1.9-3.6,4-4l1.7,8.5L41.6,35.9z M62.3,74v11.6h-1.9V68.2h-9.7v17.4H43v-1.9c3.2-0.3,5.8-3,5.8-6.3
		c0-3.5-2.8-6.3-6.3-6.3h-2.9c-1.3,0-2.4-1.1-2.4-2.4s1.1-2.4,2.4-2.4h2.9c1.3,0,2.4,1.1,2.4,2.4v0.5h3.9v-0.5c0-3.3-2.6-6-5.8-6.3
		v-2.9h-3.9v2.9c-3.2,0.3-5.8,3-5.8,6.3c0,3.5,2.8,6.3,6.3,6.3h2.9c1.3,0,2.4,1.1,2.4,2.4s-1.1,2.4-2.4,2.4h-2.9
		c-1.3,0-2.4-1.1-2.4-2.4v-2h-3.9v2c0,3.3,2.6,6,5.8,6.3v1.9h-4.3c-3.2-4-4.8-8.9-4.8-14c0-6.1,2.4-11.8,6.6-16l11.1-11.1h10
		l11.1,11.1c4.3,4.3,6.6,10,6.6,16c0,4.2-1.2,8.3-3.4,11.8V74H62.3z M56.5,72.1v13.5h-1.9V72.1H56.5z M58,40.4l1.7-8.5
		c2.1,0.3,3.7,1.9,4,4L58,40.4z M54,40.6h-2.6l-2.3-11.4c2.3-0.8,4.8-0.8,7.2,0L54,40.6z"/>
	<path class="st0" d="M73.3,68.3c-0.2-1.1-0.4-2.1-0.8-3.2l-0.2-0.5l-3.7,1.2l0.2,0.5c0.3,0.8,0.5,1.7,0.6,2.6l0.1,0.5l3.9-0.6
		L73.3,68.3z"/>
	<path class="st0" d="M71.2,62c-1-1.9-2.2-3.6-3.8-5.1L60,49.5l-2.8,2.8l7.4,7.4c1.2,1.2,2.3,2.6,3.1,4.2l0.2,0.4l3.5-1.8L71.2,62z"
		/>
</g>
</svg>
