<svg xmlns="http://www.w3.org/2000/svg" viewBox="0 0 115.8 128.8">
  <path
    d="M89.6 14v13.6h12.2c3.8 0 7.3 1.6 9.9 4.1 2.5 2.5 4.1 6 4.1 9.8v73.3c0 3.8-1.6 7.3-4.1 9.9-2.5 2.5-6 4.1-9.8 4.1H40.1c-3.8 0-7.3-1.6-9.9-4.1-2.5-2.5-4.1-6-4.1-9.8V98.4H14c-3.8 0-7.3-1.6-9.9-4.1-2.5-2.5-4.1-6-4.1-9.8V14c0-3.8 1.6-7.3 4.1-9.9 2.5-2.5 6-4.1 9.8-4.1h61.7c3.8 0 7.3 1.6 9.9 4.1 2.5 2.5 4.1 6 4.1 9.9zM79 27.6V14c0-.9-.4-1.8-1-2.4-.6-.6-1.5-1-2.4-1H14c-.9 0-1.8.4-2.4 1-.6.6-1 1.5-1 2.4v70.5c0 .9.4 1.8 1 2.4.6.6 1.5 1 2.4 1h12.2V41.5c0-3.8 1.6-7.3 4.1-9.9 2.5-2.5 6-4.1 9.8-4.1l38.9.1zm26.2 87.2V41.5c0-.9-.4-1.8-1-2.4-.6-.6-1.5-1-2.4-1H40.1c-.9 0-1.8.4-2.4 1-.6.6-1 1.5-1 2.4v73.3c0 .9.4 1.8 1 2.4.6.6 1.5 1 2.4 1h61.7c.9 0 1.8-.4 2.4-1 .6-.6 1-1.5 1-2.4z"
    fill-rule="evenodd" clip-rule="evenodd" fill="#d5a642" />
</svg>
